<svg width="88" height="79" viewBox="0 0 88 79" fill="none" xmlns="http://www.w3.org/2000/svg">
<path d="M14.9153 0C6.67782 0 0 6.61111 0 14.7664V50.9439C0 57.8245 4.75342 63.6059 11.1864 65.2451V75.5294C11.1864 77.0704 12.8559 78.0325 14.1893 77.2598L34.1186 65.7103H73.0847C81.3222 65.7103 88 59.0992 88 50.9439V14.7664C88 6.61111 81.3222 0 73.0847 0H14.9153Z" fill="#4261EC"/>
<path d="M20.9971 27.9971C20.9971 27.833 20.9561 27.6849 20.874 27.5527C20.792 27.416 20.6348 27.293 20.4023 27.1836C20.1745 27.0742 19.8372 26.974 19.3906 26.8828C18.9987 26.7962 18.6387 26.6937 18.3105 26.5752C17.987 26.4521 17.709 26.304 17.4766 26.1309C17.2441 25.9577 17.0641 25.7526 16.9365 25.5156C16.8089 25.2786 16.7451 25.0052 16.7451 24.6953C16.7451 24.3945 16.8112 24.1097 16.9434 23.8408C17.0755 23.5719 17.2646 23.335 17.5107 23.1299C17.7568 22.9248 18.0553 22.763 18.4062 22.6445C18.7617 22.526 19.1582 22.4668 19.5957 22.4668C20.2155 22.4668 20.7464 22.5716 21.1885 22.7812C21.6351 22.9863 21.9769 23.2666 22.2139 23.6221C22.4508 23.973 22.5693 24.3695 22.5693 24.8115H20.9219C20.9219 24.6156 20.8717 24.4333 20.7715 24.2646C20.6758 24.0915 20.5299 23.9525 20.334 23.8477C20.138 23.7383 19.8919 23.6836 19.5957 23.6836C19.3132 23.6836 19.0785 23.7292 18.8916 23.8203C18.7093 23.9069 18.5726 24.0208 18.4814 24.1621C18.3949 24.3034 18.3516 24.4583 18.3516 24.627C18.3516 24.75 18.3743 24.8617 18.4199 24.9619C18.4701 25.0576 18.5521 25.1465 18.666 25.2285C18.7799 25.306 18.9349 25.3789 19.1309 25.4473C19.3314 25.5156 19.582 25.5817 19.8828 25.6455C20.4479 25.764 20.9333 25.9167 21.3389 26.1035C21.749 26.2858 22.0635 26.5228 22.2822 26.8145C22.501 27.1016 22.6104 27.4661 22.6104 27.9082C22.6104 28.2363 22.5397 28.5371 22.3984 28.8105C22.2617 29.0794 22.0612 29.3141 21.7969 29.5146C21.5326 29.7106 21.2158 29.8633 20.8467 29.9727C20.4821 30.082 20.0719 30.1367 19.6162 30.1367C18.9463 30.1367 18.3789 30.0182 17.9141 29.7812C17.4492 29.5397 17.096 29.2321 16.8545 28.8584C16.6175 28.4801 16.499 28.0882 16.499 27.6826H18.0918C18.11 27.988 18.1943 28.2318 18.3447 28.4141C18.4997 28.5918 18.6911 28.7217 18.9189 28.8037C19.1514 28.8812 19.3906 28.9199 19.6367 28.9199C19.9329 28.9199 20.1813 28.8812 20.3818 28.8037C20.5824 28.7217 20.735 28.6123 20.8398 28.4756C20.9447 28.3343 20.9971 28.1748 20.9971 27.9971ZM27.3135 30.1367C26.7666 30.1367 26.2721 30.0479 25.8301 29.8701C25.3926 29.6878 25.0189 29.4349 24.709 29.1113C24.4036 28.7878 24.1689 28.4072 24.0049 27.9697C23.8408 27.5322 23.7588 27.0605 23.7588 26.5547V26.2812C23.7588 25.7025 23.8431 25.1784 24.0117 24.709C24.1803 24.2396 24.415 23.8385 24.7158 23.5059C25.0166 23.1686 25.3721 22.9111 25.7822 22.7334C26.1924 22.5557 26.6367 22.4668 27.1152 22.4668C27.6439 22.4668 28.1064 22.5557 28.5029 22.7334C28.8994 22.9111 29.2275 23.1618 29.4873 23.4854C29.7516 23.8044 29.9476 24.1849 30.0752 24.627C30.2074 25.069 30.2734 25.5566 30.2734 26.0898V26.7939H24.5586V25.6113H28.6465V25.4814C28.6374 25.1852 28.5781 24.9072 28.4688 24.6475C28.3639 24.3877 28.2021 24.1781 27.9834 24.0186C27.7646 23.859 27.473 23.7793 27.1084 23.7793C26.835 23.7793 26.5911 23.8385 26.377 23.957C26.1673 24.071 25.9919 24.2373 25.8506 24.4561C25.7093 24.6748 25.5999 24.9391 25.5225 25.249C25.4495 25.5544 25.4131 25.8984 25.4131 26.2812V26.5547C25.4131 26.8783 25.4564 27.179 25.543 27.457C25.6341 27.7305 25.7663 27.9697 25.9395 28.1748C26.1126 28.3799 26.3223 28.5417 26.5684 28.6602C26.8145 28.7741 27.0947 28.8311 27.4092 28.8311C27.8057 28.8311 28.1589 28.7513 28.4688 28.5918C28.7786 28.4323 29.0475 28.2067 29.2754 27.915L30.1436 28.7559C29.984 28.9883 29.7767 29.2116 29.5215 29.4258C29.2663 29.6354 28.9541 29.8063 28.585 29.9385C28.2204 30.0706 27.7965 30.1367 27.3135 30.1367ZM36.2959 22.6035H37.793V29.7949C37.793 30.4603 37.6517 31.0254 37.3691 31.4902C37.0866 31.9551 36.6924 32.3083 36.1865 32.5498C35.6807 32.7959 35.0951 32.9189 34.4297 32.9189C34.1471 32.9189 33.8327 32.8779 33.4863 32.7959C33.1445 32.7139 32.8118 32.5817 32.4883 32.3994C32.1693 32.2217 31.9027 31.987 31.6885 31.6953L32.4609 30.7246C32.7253 31.0391 33.0169 31.2692 33.3359 31.415C33.6549 31.5609 33.9899 31.6338 34.3408 31.6338C34.7191 31.6338 35.0404 31.5632 35.3047 31.4219C35.5736 31.2852 35.7809 31.0824 35.9268 30.8135C36.0726 30.5446 36.1455 30.2165 36.1455 29.8291V24.2783L36.2959 22.6035ZM31.2715 26.3838V26.2402C31.2715 25.6797 31.3398 25.1693 31.4766 24.709C31.6133 24.2441 31.8092 23.8454 32.0645 23.5127C32.3197 23.1755 32.6296 22.918 32.9941 22.7402C33.3587 22.5579 33.7712 22.4668 34.2314 22.4668C34.71 22.4668 35.1178 22.5534 35.4551 22.7266C35.7969 22.8997 36.0817 23.1481 36.3096 23.4717C36.5374 23.7907 36.7152 24.1735 36.8428 24.6201C36.9749 25.0622 37.0729 25.5544 37.1367 26.0967V26.5547C37.0775 27.0833 36.9772 27.5664 36.8359 28.0039C36.6947 28.4414 36.5078 28.8197 36.2754 29.1387C36.043 29.4577 35.7559 29.7038 35.4141 29.877C35.0768 30.0501 34.6781 30.1367 34.2178 30.1367C33.7666 30.1367 33.3587 30.0433 32.9941 29.8564C32.6341 29.6696 32.3242 29.4076 32.0645 29.0703C31.8092 28.7331 31.6133 28.3366 31.4766 27.8809C31.3398 27.4206 31.2715 26.9215 31.2715 26.3838ZM32.9189 26.2402V26.3838C32.9189 26.721 32.9508 27.0355 33.0146 27.3271C33.083 27.6188 33.1855 27.8763 33.3223 28.0996C33.4635 28.3184 33.6413 28.4915 33.8555 28.6191C34.0742 28.7422 34.3317 28.8037 34.6279 28.8037C35.0153 28.8037 35.332 28.7217 35.5781 28.5576C35.8288 28.3936 36.0202 28.1725 36.1523 27.8945C36.2891 27.612 36.3848 27.2975 36.4395 26.9512V25.7139C36.4121 25.445 36.3551 25.1943 36.2686 24.9619C36.1865 24.7295 36.0749 24.5267 35.9336 24.3535C35.7923 24.1758 35.6146 24.0391 35.4004 23.9434C35.1862 23.8431 34.9333 23.793 34.6416 23.793C34.3454 23.793 34.0879 23.8568 33.8691 23.9844C33.6504 24.112 33.4704 24.2874 33.3291 24.5107C33.1924 24.734 33.0898 24.9938 33.0215 25.29C32.9531 25.5863 32.9189 25.903 32.9189 26.2402ZM43.9521 28.2568V22.6035H45.6064V30H44.0479L43.9521 28.2568ZM44.1846 26.7188L44.7383 26.7051C44.7383 27.2018 44.6836 27.6598 44.5742 28.0791C44.4648 28.4938 44.2962 28.8561 44.0684 29.166C43.8405 29.4714 43.5488 29.7106 43.1934 29.8838C42.8379 30.0524 42.4118 30.1367 41.915 30.1367C41.555 30.1367 41.2246 30.0843 40.9238 29.9795C40.623 29.8747 40.3633 29.7129 40.1445 29.4941C39.9303 29.2754 39.764 28.9906 39.6455 28.6396C39.527 28.2887 39.4678 27.8695 39.4678 27.3818V22.6035H41.1152V27.3955C41.1152 27.6644 41.1471 27.89 41.2109 28.0723C41.2747 28.25 41.3613 28.3936 41.4707 28.5029C41.5801 28.6123 41.7077 28.6898 41.8535 28.7354C41.9993 28.7809 42.1543 28.8037 42.3184 28.8037C42.7878 28.8037 43.1569 28.7126 43.4258 28.5303C43.6992 28.3434 43.8929 28.0928 44.0068 27.7783C44.1253 27.4639 44.1846 27.1107 44.1846 26.7188ZM48.9287 24.1826V30H47.2812V22.6035H48.833L48.9287 24.1826ZM48.6348 26.0283L48.1016 26.0215C48.1061 25.4974 48.179 25.0166 48.3203 24.5791C48.4661 24.1416 48.6667 23.7656 48.9219 23.4512C49.1816 23.1367 49.4915 22.8952 49.8516 22.7266C50.2116 22.5534 50.6126 22.4668 51.0547 22.4668C51.4102 22.4668 51.7314 22.5169 52.0186 22.6172C52.3102 22.7129 52.5586 22.8701 52.7637 23.0889C52.9733 23.3076 53.1328 23.5924 53.2422 23.9434C53.3516 24.2897 53.4062 24.7158 53.4062 25.2217V30H51.752V25.2148C51.752 24.8594 51.6995 24.5791 51.5947 24.374C51.4945 24.1644 51.3464 24.0163 51.1504 23.9297C50.959 23.8385 50.7197 23.793 50.4326 23.793C50.1501 23.793 49.8971 23.8522 49.6738 23.9707C49.4505 24.0892 49.2614 24.251 49.1064 24.4561C48.9561 24.6611 48.8398 24.8981 48.7578 25.167C48.6758 25.4359 48.6348 25.723 48.6348 26.0283ZM59.5996 28.4688V19.5H61.2539V30H59.7568L59.5996 28.4688ZM54.7871 26.3838V26.2402C54.7871 25.6797 54.8532 25.1693 54.9854 24.709C55.1175 24.2441 55.3089 23.8454 55.5596 23.5127C55.8102 23.1755 56.1156 22.918 56.4756 22.7402C56.8356 22.5579 57.2412 22.4668 57.6924 22.4668C58.139 22.4668 58.5309 22.5534 58.8682 22.7266C59.2054 22.8997 59.4925 23.1481 59.7295 23.4717C59.9665 23.7907 60.1556 24.1735 60.2969 24.6201C60.4382 25.0622 60.5384 25.5544 60.5977 26.0967V26.5547C60.5384 27.0833 60.4382 27.5664 60.2969 28.0039C60.1556 28.4414 59.9665 28.8197 59.7295 29.1387C59.4925 29.4577 59.2031 29.7038 58.8613 29.877C58.5241 30.0501 58.1299 30.1367 57.6787 30.1367C57.2321 30.1367 56.8288 30.0433 56.4688 29.8564C56.1133 29.6696 55.8102 29.4076 55.5596 29.0703C55.3089 28.7331 55.1175 28.3366 54.9854 27.8809C54.8532 27.4206 54.7871 26.9215 54.7871 26.3838ZM56.4346 26.2402V26.3838C56.4346 26.721 56.4642 27.0355 56.5234 27.3271C56.5872 27.6188 56.6852 27.8763 56.8174 28.0996C56.9495 28.3184 57.1204 28.4915 57.3301 28.6191C57.5443 28.7422 57.7995 28.8037 58.0957 28.8037C58.4694 28.8037 58.777 28.7217 59.0186 28.5576C59.2601 28.3936 59.4492 28.1725 59.5859 27.8945C59.7272 27.612 59.8229 27.2975 59.873 26.9512V25.7139C59.8457 25.445 59.7887 25.1943 59.7021 24.9619C59.6201 24.7295 59.5085 24.5267 59.3672 24.3535C59.2259 24.1758 59.0505 24.0391 58.8408 23.9434C58.6357 23.8431 58.3919 23.793 58.1094 23.793C57.8086 23.793 57.5534 23.8568 57.3438 23.9844C57.1341 24.112 56.9609 24.2874 56.8242 24.5107C56.6921 24.734 56.5941 24.9938 56.5303 25.29C56.4665 25.5863 56.4346 25.903 56.4346 26.2402ZM62.6621 26.3838V26.2266C62.6621 25.6934 62.7396 25.1989 62.8945 24.7432C63.0495 24.2829 63.2728 23.8841 63.5645 23.5469C63.8607 23.2051 64.2207 22.9408 64.6445 22.7539C65.0729 22.5625 65.556 22.4668 66.0938 22.4668C66.6361 22.4668 67.1191 22.5625 67.543 22.7539C67.9714 22.9408 68.3337 23.2051 68.6299 23.5469C68.9261 23.8841 69.1517 24.2829 69.3066 24.7432C69.4616 25.1989 69.5391 25.6934 69.5391 26.2266V26.3838C69.5391 26.917 69.4616 27.4115 69.3066 27.8672C69.1517 28.3229 68.9261 28.7217 68.6299 29.0635C68.3337 29.4007 67.9736 29.665 67.5498 29.8564C67.126 30.0433 66.6452 30.1367 66.1074 30.1367C65.5651 30.1367 65.0798 30.0433 64.6514 29.8564C64.2275 29.665 63.8675 29.4007 63.5713 29.0635C63.2751 28.7217 63.0495 28.3229 62.8945 27.8672C62.7396 27.4115 62.6621 26.917 62.6621 26.3838ZM64.3096 26.2266V26.3838C64.3096 26.7165 64.3438 27.0309 64.4121 27.3271C64.4805 27.6234 64.5876 27.8831 64.7334 28.1064C64.8792 28.3298 65.0661 28.5052 65.2939 28.6328C65.5218 28.7604 65.793 28.8242 66.1074 28.8242C66.4128 28.8242 66.6771 28.7604 66.9004 28.6328C67.1283 28.5052 67.3151 28.3298 67.4609 28.1064C67.6068 27.8831 67.7139 27.6234 67.7822 27.3271C67.8551 27.0309 67.8916 26.7165 67.8916 26.3838V26.2266C67.8916 25.8984 67.8551 25.5885 67.7822 25.2969C67.7139 25.0007 67.6045 24.7386 67.4541 24.5107C67.3083 24.2829 67.1214 24.1051 66.8936 23.9775C66.6702 23.8454 66.4036 23.7793 66.0938 23.7793C65.7839 23.7793 65.515 23.8454 65.2871 23.9775C65.0638 24.1051 64.8792 24.2829 64.7334 24.5107C64.5876 24.7386 64.4805 25.0007 64.4121 25.2969C64.3438 25.5885 64.3096 25.8984 64.3096 26.2266ZM20.2383 38.6035V39.8066H16.0684V38.6035H20.2383ZM17.2715 36.792H18.9189V43.9561C18.9189 44.1839 18.9508 44.3594 19.0146 44.4824C19.083 44.6009 19.1764 44.6807 19.2949 44.7217C19.4134 44.7627 19.5524 44.7832 19.7119 44.7832C19.8258 44.7832 19.9352 44.7764 20.04 44.7627C20.1449 44.749 20.2292 44.7354 20.293 44.7217L20.2998 45.9795C20.1631 46.0205 20.0036 46.057 19.8213 46.0889C19.6436 46.1208 19.4385 46.1367 19.2061 46.1367C18.8278 46.1367 18.4928 46.0706 18.2012 45.9385C17.9095 45.8018 17.6816 45.5807 17.5176 45.2754C17.3535 44.9701 17.2715 44.5645 17.2715 44.0586V36.792ZM25.96 44.2568V38.6035H27.6143V46H26.0557L25.96 44.2568ZM26.1924 42.7188L26.7461 42.7051C26.7461 43.2018 26.6914 43.6598 26.582 44.0791C26.4727 44.4938 26.304 44.8561 26.0762 45.166C25.8483 45.4714 25.5566 45.7106 25.2012 45.8838C24.8457 46.0524 24.4196 46.1367 23.9229 46.1367C23.5628 46.1367 23.2324 46.0843 22.9316 45.9795C22.6309 45.8747 22.3711 45.7129 22.1523 45.4941C21.9382 45.2754 21.7718 44.9906 21.6533 44.6396C21.5348 44.2887 21.4756 43.8695 21.4756 43.3818V38.6035H23.123V43.3955C23.123 43.6644 23.1549 43.89 23.2188 44.0723C23.2826 44.25 23.3691 44.3936 23.4785 44.5029C23.5879 44.6123 23.7155 44.6898 23.8613 44.7354C24.0072 44.7809 24.1621 44.8037 24.3262 44.8037C24.7956 44.8037 25.1647 44.7126 25.4336 44.5303C25.707 44.3434 25.9007 44.0928 26.0146 43.7783C26.1331 43.4639 26.1924 43.1107 26.1924 42.7188ZM30.957 40.0117V46H29.3096V38.6035H30.8818L30.957 40.0117ZM33.2197 38.5557L33.2061 40.0869C33.1058 40.0687 32.9964 40.055 32.8779 40.0459C32.764 40.0368 32.6501 40.0322 32.5361 40.0322C32.2536 40.0322 32.0052 40.0732 31.791 40.1553C31.5768 40.2327 31.3968 40.3467 31.251 40.4971C31.1097 40.6429 31.0003 40.8206 30.9229 41.0303C30.8454 41.2399 30.7998 41.4746 30.7861 41.7344L30.4102 41.7617C30.4102 41.2969 30.4557 40.8662 30.5469 40.4697C30.638 40.0732 30.7747 39.7246 30.957 39.4238C31.1439 39.123 31.3763 38.8883 31.6543 38.7197C31.9368 38.5511 32.2627 38.4668 32.6318 38.4668C32.7321 38.4668 32.8392 38.4759 32.9531 38.4941C33.0716 38.5124 33.1605 38.5329 33.2197 38.5557ZM35.8857 40.1826V46H34.2383V38.6035H35.79L35.8857 40.1826ZM35.5918 42.0283L35.0586 42.0215C35.0632 41.4974 35.1361 41.0166 35.2773 40.5791C35.4232 40.1416 35.6237 39.7656 35.8789 39.4512C36.1387 39.1367 36.4486 38.8952 36.8086 38.7266C37.1686 38.5534 37.5697 38.4668 38.0117 38.4668C38.3672 38.4668 38.6885 38.5169 38.9756 38.6172C39.2673 38.7129 39.5156 38.8701 39.7207 39.0889C39.9303 39.3076 40.0898 39.5924 40.1992 39.9434C40.3086 40.2897 40.3633 40.7158 40.3633 41.2217V46H38.709V41.2148C38.709 40.8594 38.6566 40.5791 38.5518 40.374C38.4515 40.1644 38.3034 40.0163 38.1074 39.9297C37.916 39.8385 37.6768 39.793 37.3896 39.793C37.1071 39.793 36.8542 39.8522 36.6309 39.9707C36.4076 40.0892 36.2184 40.251 36.0635 40.4561C35.9131 40.6611 35.7969 40.8981 35.7148 41.167C35.6328 41.4359 35.5918 41.723 35.5918 42.0283ZM41.7305 42.3838V42.2266C41.7305 41.6934 41.8079 41.1989 41.9629 40.7432C42.1178 40.2829 42.3411 39.8841 42.6328 39.5469C42.929 39.2051 43.2891 38.9408 43.7129 38.7539C44.1413 38.5625 44.6243 38.4668 45.1621 38.4668C45.7044 38.4668 46.1875 38.5625 46.6113 38.7539C47.0397 38.9408 47.402 39.2051 47.6982 39.5469C47.9945 39.8841 48.2201 40.2829 48.375 40.7432C48.5299 41.1989 48.6074 41.6934 48.6074 42.2266V42.3838C48.6074 42.917 48.5299 43.4115 48.375 43.8672C48.2201 44.3229 47.9945 44.7217 47.6982 45.0635C47.402 45.4007 47.042 45.665 46.6182 45.8564C46.1943 46.0433 45.7135 46.1367 45.1758 46.1367C44.6335 46.1367 44.1481 46.0433 43.7197 45.8564C43.2959 45.665 42.9359 45.4007 42.6396 45.0635C42.3434 44.7217 42.1178 44.3229 41.9629 43.8672C41.8079 43.4115 41.7305 42.917 41.7305 42.3838ZM43.3779 42.2266V42.3838C43.3779 42.7165 43.4121 43.0309 43.4805 43.3271C43.5488 43.6234 43.6559 43.8831 43.8018 44.1064C43.9476 44.3298 44.1344 44.5052 44.3623 44.6328C44.5902 44.7604 44.8613 44.8242 45.1758 44.8242C45.4811 44.8242 45.7454 44.7604 45.9688 44.6328C46.1966 44.5052 46.3835 44.3298 46.5293 44.1064C46.6751 43.8831 46.7822 43.6234 46.8506 43.3271C46.9235 43.0309 46.96 42.7165 46.96 42.3838V42.2266C46.96 41.8984 46.9235 41.5885 46.8506 41.2969C46.7822 41.0007 46.6729 40.7386 46.5225 40.5107C46.3766 40.2829 46.1898 40.1051 45.9619 39.9775C45.7386 39.8454 45.472 39.7793 45.1621 39.7793C44.8522 39.7793 44.5833 39.8454 44.3555 39.9775C44.1322 40.1051 43.9476 40.2829 43.8018 40.5107C43.6559 40.7386 43.5488 41.0007 43.4805 41.2969C43.4121 41.5885 43.3779 41.8984 43.3779 42.2266Z" fill="#F8F7FA"/>
</svg>
