<svg width="1440" height="534" viewBox="0 0 1440 534" fill="none" xmlns="http://www.w3.org/2000/svg">
<path d="M117.352 76.54L114.505 83H113.274L116.121 76.8623H112.435V75.8906H117.352V76.54ZM124.328 80.2949C124.328 80.7539 124.274 81.1592 124.167 81.5107C124.063 81.859 123.911 82.152 123.713 82.3896C123.514 82.624 123.272 82.8014 122.985 82.9219C122.699 83.0423 122.377 83.1025 122.019 83.1025C121.664 83.1025 121.343 83.0423 121.057 82.9219C120.77 82.8014 120.526 82.624 120.324 82.3896C120.126 82.152 119.971 81.859 119.86 81.5107C119.753 81.1592 119.699 80.7539 119.699 80.2949V78.5957C119.699 78.1367 119.753 77.7331 119.86 77.3848C119.968 77.0332 120.121 76.7402 120.319 76.5059C120.521 76.2682 120.764 76.0892 121.047 75.9688C121.333 75.8483 121.654 75.7881 122.009 75.7881C122.367 75.7881 122.689 75.8483 122.976 75.9688C123.262 76.0892 123.505 76.2682 123.703 76.5059C123.905 76.7402 124.06 77.0332 124.167 77.3848C124.274 77.7331 124.328 78.1367 124.328 78.5957V80.2949ZM120.871 79.8506L123.146 78.1562C123.12 77.6712 123.013 77.3132 122.824 77.082C122.639 76.8477 122.367 76.7305 122.009 76.7305C121.628 76.7305 121.343 76.8656 121.154 77.1357C120.965 77.4059 120.871 77.821 120.871 78.3809V79.8506ZM123.156 79.0742L120.881 80.7686C120.939 81.6995 121.319 82.165 122.019 82.165C122.777 82.165 123.156 81.61 123.156 80.5V79.0742ZM127.999 80.2754V83H126.827V75.8906H129.205C129.56 75.8939 129.887 75.9476 130.187 76.0518C130.489 76.1527 130.75 76.2992 130.968 76.4912C131.186 76.68 131.355 76.9111 131.476 77.1846C131.599 77.4548 131.661 77.7607 131.661 78.1025C131.661 78.4346 131.599 78.734 131.476 79.001C131.355 79.2679 131.186 79.4958 130.968 79.6846C130.75 79.8734 130.489 80.0182 130.187 80.1191C129.887 80.2201 129.56 80.2721 129.205 80.2754H127.999ZM127.999 79.3281H129.205C129.404 79.3281 129.581 79.2988 129.737 79.2402C129.894 79.1784 130.027 79.0938 130.138 78.9863C130.248 78.8789 130.333 78.7503 130.392 78.6006C130.45 78.4508 130.479 78.2881 130.479 78.1123C130.479 77.9268 130.45 77.7559 130.392 77.5996C130.333 77.4434 130.248 77.3099 130.138 77.1992C130.027 77.0853 129.894 76.9974 129.737 76.9355C129.581 76.8737 129.404 76.8411 129.205 76.8379H127.999V79.3281ZM136.064 78.5371L137.432 75.8906H138.813L136.787 79.416L138.862 83H137.49L136.084 80.3096L134.678 83H133.291L135.366 79.416L133.345 75.8906H134.717L136.064 78.5371Z" fill="#F8F7FA"/>
<line y1="183.75" x2="1440" y2="183.75" stroke="#F8F7FA" stroke-opacity="0.5" stroke-width="0.5"/>
<line y1="43.75" x2="1440" y2="43.75" stroke="#F8F7FA" stroke-opacity="0.5" stroke-width="0.5"/>
<line y1="393.75" x2="1440" y2="393.75" stroke="#F8F7FA" stroke-opacity="0.5" stroke-width="0.5"/>
<line y1="253.75" x2="1440" y2="253.75" stroke="#F8F7FA" stroke-opacity="0.5" stroke-width="0.5"/>
<line y1="113.75" x2="1440" y2="113.75" stroke="#F8F7FA" stroke-opacity="0.5" stroke-width="0.5"/>
<line y1="463.75" x2="1440" y2="463.75" stroke="#F8F7FA" stroke-opacity="0.5" stroke-width="0.5"/>
<line y1="323.75" x2="1440" y2="323.75" stroke="#F8F7FA" stroke-opacity="0.5" stroke-width="0.5"/>
<line y1="533.75" x2="1440" y2="533.75" stroke="#F8F7FA" stroke-opacity="0.5" stroke-width="0.5"/>
<path d="M108.545 14.4336H107.461C107.426 14.6914 107.365 14.9316 107.279 15.1543C107.193 15.373 107.078 15.5625 106.934 15.7227C106.789 15.8867 106.611 16.0137 106.4 16.1035C106.193 16.1934 105.947 16.2383 105.662 16.2383C105.4 16.2383 105.172 16.1973 104.977 16.1152C104.781 16.0293 104.611 15.9121 104.467 15.7637C104.322 15.6191 104.203 15.4512 104.109 15.2598C104.016 15.0684 103.939 14.8633 103.881 14.6445C103.822 14.4297 103.779 14.2109 103.752 13.9883C103.729 13.7617 103.717 13.543 103.717 13.332V12.1309C103.717 11.9199 103.729 11.7031 103.752 11.4805C103.779 11.2539 103.822 11.0332 103.881 10.8184C103.939 10.6035 104.016 10.4004 104.109 10.209C104.207 10.0176 104.328 9.84961 104.473 9.70508C104.613 9.56055 104.781 9.44727 104.977 9.36523C105.176 9.2793 105.404 9.23633 105.662 9.23633C105.947 9.23633 106.193 9.28516 106.4 9.38281C106.611 9.47656 106.789 9.60742 106.934 9.77539C107.078 9.94336 107.193 10.1387 107.279 10.3613C107.365 10.584 107.426 10.8242 107.461 11.082H108.545C108.498 10.6758 108.4 10.3047 108.252 9.96875C108.107 9.63281 107.914 9.34375 107.672 9.10156C107.43 8.86328 107.141 8.67969 106.805 8.55078C106.469 8.41797 106.088 8.35156 105.662 8.35156C105.307 8.35156 104.986 8.40234 104.701 8.50391C104.416 8.60156 104.162 8.73828 103.939 8.91406C103.713 9.08984 103.518 9.29883 103.354 9.54102C103.193 9.7793 103.061 10.0391 102.955 10.3203C102.846 10.6016 102.764 10.8965 102.709 11.2051C102.658 11.5137 102.631 11.8262 102.627 12.1426V13.332C102.631 13.6484 102.658 13.9609 102.709 14.2695C102.764 14.5781 102.846 14.873 102.955 15.1543C103.061 15.4355 103.193 15.6953 103.354 15.9336C103.518 16.1719 103.713 16.3789 103.939 16.5547C104.162 16.7305 104.416 16.8691 104.701 16.9707C104.99 17.0684 105.311 17.1172 105.662 17.1172C106.072 17.1172 106.443 17.0527 106.775 16.9238C107.111 16.791 107.402 16.6055 107.648 16.3672C107.891 16.1328 108.088 15.8516 108.24 15.5234C108.393 15.1914 108.494 14.8281 108.545 14.4336ZM116.699 14.791L117.373 17H118.451L115.744 8.46875H114.836L112.082 17H113.166L113.851 14.791H116.699ZM114.144 13.8477L115.287 10.1445L116.412 13.8477H114.144ZM122.122 17H124.097C124.507 16.9961 124.888 16.9473 125.239 16.8535C125.595 16.7598 125.913 16.625 126.195 16.4492C126.46 16.2812 126.7 16.0781 126.915 15.8398C127.13 15.6016 127.308 15.3359 127.448 15.043C127.585 14.7617 127.689 14.4531 127.759 14.1172C127.833 13.7812 127.87 13.4258 127.87 13.0508V12.4238C127.866 12.0332 127.825 11.666 127.747 11.3223C127.673 10.9785 127.564 10.6621 127.419 10.373C127.259 10.0332 127.044 9.73438 126.775 9.47656C126.509 9.21484 126.202 9.00391 125.855 8.84375C125.605 8.72656 125.331 8.63672 125.034 8.57422C124.741 8.50781 124.429 8.47266 124.097 8.46875H122.122V17ZM123.224 9.35938H124.097C124.366 9.36328 124.614 9.39453 124.841 9.45312C125.068 9.50781 125.273 9.58594 125.456 9.6875C125.714 9.82422 125.931 10.0039 126.107 10.2266C126.286 10.4453 126.429 10.6914 126.534 10.9648C126.616 11.1758 126.677 11.4043 126.716 11.6504C126.759 11.8926 126.782 12.1465 126.786 12.4121V13.0508C126.782 13.3125 126.761 13.5645 126.722 13.8066C126.683 14.0449 126.624 14.2676 126.546 14.4746C126.456 14.7285 126.333 14.959 126.177 15.166C126.025 15.3691 125.843 15.541 125.632 15.6816C125.433 15.8184 125.204 15.9238 124.946 15.998C124.693 16.0723 124.409 16.1113 124.097 16.1152H123.224V9.35938ZM135.913 14.791L136.587 17H137.665L134.958 8.46875H134.05L131.296 17H132.38L133.065 14.791H135.913ZM133.358 13.8477L134.501 10.1445L135.626 13.8477H133.358ZM156.457 9.07812V8.46875H150.691V9.41797H155.309L151.787 17H152.924L156.457 9.07812ZM166.017 13.7363V11.7383C166.017 11.1953 165.955 10.7148 165.83 10.2969C165.705 9.875 165.525 9.51953 165.291 9.23047C165.052 8.94141 164.761 8.72266 164.418 8.57422C164.078 8.42188 163.689 8.3457 163.252 8.3457C162.818 8.3457 162.429 8.42188 162.086 8.57422C161.746 8.72266 161.459 8.94141 161.224 9.23047C160.986 9.51953 160.804 9.875 160.679 10.2969C160.554 10.7148 160.492 11.1953 160.492 11.7383V13.7363C160.492 14.2793 160.554 14.7617 160.679 15.1836C160.804 15.6016 160.986 15.9531 161.224 16.2383C161.463 16.5312 161.754 16.752 162.097 16.9004C162.441 17.0449 162.83 17.1172 163.263 17.1172C163.701 17.1172 164.089 17.043 164.429 16.8945C164.769 16.7461 165.056 16.5273 165.291 16.2383C165.525 15.9531 165.705 15.6016 165.83 15.1836C165.955 14.7617 166.017 14.2793 166.017 13.7363ZM161.582 13.5195C161.582 13.418 161.582 13.3184 161.582 13.2207C161.582 13.123 161.582 13.0254 161.582 12.9277V11.498C161.582 11.0996 161.621 10.75 161.699 10.4492C161.781 10.1445 161.904 9.89648 162.068 9.70508C162.205 9.55273 162.371 9.4375 162.566 9.35938C162.765 9.27734 162.994 9.23633 163.252 9.23633C163.505 9.23633 163.728 9.27344 163.92 9.34766C164.115 9.42188 164.279 9.5332 164.412 9.68164C164.548 9.82617 164.656 10.0078 164.734 10.2266C164.816 10.4414 164.873 10.6895 164.904 10.9707L161.582 13.5195ZM164.927 13.9648C164.927 14.3828 164.884 14.7461 164.798 15.0547C164.716 15.3633 164.586 15.6133 164.406 15.8047C164.273 15.9453 164.111 16.0527 163.92 16.127C163.728 16.2012 163.509 16.2383 163.263 16.2383C163.029 16.2383 162.818 16.2051 162.63 16.1387C162.443 16.0684 162.283 15.9668 162.15 15.834C162.005 15.6934 161.888 15.5156 161.798 15.3008C161.709 15.082 161.646 14.8301 161.611 14.5449L164.927 12.0078C164.927 12.1172 164.927 12.2559 164.927 12.4238C164.927 12.5879 164.927 12.6992 164.927 12.7578V13.9648ZM171.452 13.5781H173.134C173.517 13.5742 173.878 13.5156 174.218 13.4023C174.562 13.2891 174.863 13.125 175.12 12.9102C175.378 12.6953 175.581 12.4316 175.73 12.1191C175.882 11.8027 175.958 11.4395 175.958 11.0293C175.958 10.6191 175.882 10.2559 175.73 9.93945C175.581 9.62305 175.378 9.35742 175.12 9.14258C174.863 8.92773 174.562 8.76367 174.218 8.65039C173.878 8.53711 173.517 8.47656 173.134 8.46875H170.368V17H171.452V13.5781ZM171.452 12.6875V9.35938H173.134C173.384 9.36328 173.614 9.4043 173.825 9.48242C174.04 9.56055 174.226 9.67188 174.382 9.81641C174.534 9.96094 174.654 10.1367 174.739 10.3438C174.829 10.5508 174.874 10.7832 174.874 11.041C174.874 11.2988 174.829 11.5293 174.739 11.7324C174.654 11.9316 174.532 12.1016 174.376 12.2422C174.22 12.3828 174.036 12.4922 173.825 12.5703C173.614 12.6445 173.384 12.6836 173.134 12.6875H171.452ZM182.518 11.8145L180.702 8.46875H179.43L181.909 12.6992L179.366 17H180.649L182.542 13.5898L184.429 17H185.694L183.157 12.6992L185.636 8.46875H184.358L182.518 11.8145ZM203.783 13.0566V12.1367H200.221V9.39453H204.322V8.46875H199.137V17H204.375V16.0801H200.221V13.0566H203.783ZM214.322 13.1152V12.3652C214.318 12.0527 214.291 11.7363 214.24 11.416C214.189 11.0918 214.113 10.7812 214.011 10.4844C213.906 10.1875 213.771 9.91016 213.607 9.65234C213.447 9.39062 213.255 9.16406 213.033 8.97266C212.806 8.78125 212.546 8.63086 212.254 8.52148C211.964 8.4082 211.638 8.35156 211.275 8.35156C210.912 8.35156 210.584 8.4082 210.291 8.52148C210.002 8.63086 209.746 8.78125 209.523 8.97266C209.296 9.16797 209.103 9.39648 208.943 9.6582C208.783 9.91602 208.65 10.1934 208.545 10.4902C208.439 10.7871 208.361 11.0957 208.31 11.416C208.259 11.7363 208.232 12.0527 208.228 12.3652V13.1152C208.232 13.4277 208.259 13.7441 208.31 14.0645C208.361 14.3809 208.439 14.6875 208.545 14.9844C208.65 15.2812 208.785 15.5605 208.949 15.8223C209.113 16.0801 209.308 16.3047 209.535 16.4961C209.757 16.6875 210.013 16.8398 210.302 16.9531C210.591 17.0625 210.918 17.1172 211.281 17.1172C211.421 17.1172 211.556 17.1074 211.685 17.0879C211.818 17.0723 211.945 17.0469 212.066 17.0117L213.754 18.4414L214.498 17.7324L213.027 16.5078C213.254 16.3164 213.447 16.0918 213.607 15.834C213.771 15.5723 213.906 15.293 214.011 14.9961C214.113 14.6992 214.189 14.3906 214.24 14.0703C214.291 13.75 214.318 13.4316 214.322 13.1152ZM213.244 12.3535V13.1152C213.24 13.3301 213.226 13.5547 213.203 13.7891C213.183 14.0195 213.146 14.248 213.091 14.4746C213.033 14.7012 212.957 14.916 212.863 15.1191C212.769 15.3223 212.65 15.5 212.505 15.6523C212.361 15.8086 212.187 15.9336 211.984 16.0273C211.785 16.1172 211.55 16.1621 211.281 16.1621C211.015 16.1621 210.781 16.1172 210.578 16.0273C210.379 15.9336 210.207 15.8086 210.062 15.6523C209.918 15.4961 209.796 15.3164 209.699 15.1133C209.605 14.9102 209.529 14.6953 209.47 14.4688C209.412 14.2422 209.369 14.0137 209.341 13.7832C209.318 13.5488 209.306 13.3262 209.306 13.1152V12.3535C209.306 12.1426 209.318 11.9219 209.341 11.6914C209.369 11.457 209.412 11.2266 209.47 11C209.529 10.7773 209.605 10.5645 209.699 10.3613C209.796 10.1582 209.918 9.97852 210.062 9.82227C210.207 9.66992 210.379 9.54883 210.578 9.45898C210.777 9.36523 211.009 9.31836 211.275 9.31836C211.545 9.31836 211.779 9.36328 211.978 9.45312C212.181 9.54297 212.355 9.66406 212.5 9.81641C212.644 9.97266 212.763 10.1523 212.857 10.3555C212.955 10.5586 213.033 10.7715 213.091 10.9941C213.146 11.2207 213.183 11.4512 213.203 11.6855C213.226 11.916 213.24 12.1387 213.244 12.3535ZM223.659 8.46875H222.611L222.593 14.2461C222.585 14.5 222.544 14.7441 222.47 14.9785C222.396 15.2129 222.288 15.4199 222.148 15.5996C222.003 15.7832 221.825 15.9297 221.614 16.0391C221.404 16.1445 221.159 16.1973 220.882 16.1973C220.605 16.1973 220.359 16.1426 220.144 16.0332C219.933 15.9238 219.757 15.7793 219.616 15.5996C219.472 15.4199 219.361 15.2129 219.282 14.9785C219.208 14.7441 219.169 14.5 219.165 14.2461L219.142 8.46875H218.111L218.099 14.2461C218.103 14.6445 218.173 15.0195 218.31 15.3711C218.446 15.7188 218.636 16.0215 218.878 16.2793C219.12 16.541 219.411 16.7461 219.751 16.8945C220.091 17.043 220.468 17.1172 220.882 17.1172C221.288 17.1172 221.661 17.043 222.001 16.8945C222.341 16.7422 222.634 16.5352 222.88 16.2734C223.126 16.0156 223.32 15.7129 223.46 15.3652C223.601 15.0176 223.671 14.6445 223.671 14.2461L223.659 8.46875ZM227.911 8.46875V9.41211H229.909V16.0625H227.911V17H233.067V16.0625H231.022V9.41211H233.067V8.46875H227.911ZM239.61 17H240.553L243.243 8.46875H242.088L240.202 14.8262L240.073 15.2539L239.95 14.8379L238.075 8.46875H236.914L239.61 17ZM251.197 14.791L251.871 17H252.949L250.242 8.46875H249.334L246.58 17H247.664L248.35 14.791H251.197ZM248.643 13.8477L249.785 10.1445L250.91 13.8477H248.643ZM257.957 16.0801V8.46875H256.873V17H262.129V16.0801H257.957ZM271.032 13.0566V12.1367H267.47V9.39453H271.571V8.46875H266.386V17H271.624V16.0801H267.47V13.0566H271.032ZM289.625 14.791L290.299 17H291.377L288.67 8.46875H287.762L285.008 17H286.092L286.778 14.791H289.625ZM287.071 13.8477L288.213 10.1445L289.338 13.8477H287.071ZM308.564 17V8.46875H308.476L304.761 9.81055V11.2285L306.918 10.4551V17H308.564ZM319.736 13.7539V11.7148C319.736 11.1641 319.671 10.6797 319.542 10.2617C319.413 9.83984 319.23 9.48633 318.991 9.20117C318.749 8.91992 318.456 8.70703 318.113 8.5625C317.769 8.41797 317.382 8.3457 316.952 8.3457C316.527 8.3457 316.142 8.41797 315.798 8.5625C315.458 8.70703 315.169 8.91992 314.931 9.20117C314.689 9.48633 314.503 9.83984 314.374 10.2617C314.245 10.6797 314.181 11.1641 314.181 11.7148V13.7539C314.181 14.3047 314.245 14.791 314.374 15.2129C314.507 15.6309 314.695 15.9805 314.937 16.2617C315.175 16.5469 315.466 16.7617 315.81 16.9062C316.154 17.0508 316.538 17.123 316.964 17.123C317.394 17.123 317.78 17.0508 318.124 16.9062C318.468 16.7617 318.759 16.5469 318.997 16.2617C319.236 15.9805 319.417 15.6309 319.542 15.2129C319.671 14.791 319.736 14.3047 319.736 13.7539ZM315.821 13.0508C315.821 12.9297 315.821 12.8379 315.821 12.7754C315.821 12.7129 315.821 12.5879 315.821 12.4004V11.457C315.821 11.1406 315.845 10.8672 315.892 10.6367C315.943 10.4062 316.019 10.2188 316.12 10.0742C316.214 9.9375 316.329 9.83594 316.466 9.76953C316.607 9.69922 316.769 9.66406 316.952 9.66406C317.116 9.66406 317.263 9.69141 317.392 9.74609C317.525 9.79688 317.636 9.87695 317.726 9.98633C317.843 10.123 317.931 10.3066 317.989 10.5371C318.052 10.7637 318.087 11.0371 318.095 11.3574L315.821 13.0508ZM318.095 14C318.095 14.3164 318.07 14.5918 318.019 14.8262C317.972 15.0566 317.9 15.2461 317.802 15.3945C317.708 15.5352 317.591 15.6406 317.45 15.7109C317.31 15.7773 317.148 15.8105 316.964 15.8105C316.765 15.8105 316.593 15.7715 316.448 15.6934C316.304 15.6152 316.185 15.4961 316.091 15.3359C316.009 15.2031 315.945 15.0371 315.898 14.8379C315.855 14.6387 315.829 14.4102 315.821 14.1523L318.095 12.4648C318.095 12.5781 318.095 12.666 318.095 12.7285C318.095 12.7871 318.095 12.8809 318.095 13.0098V14ZM335.358 8.46875H333.313V17H334.825V14.4746L334.754 10.6426L335.756 14.1875H336.571L337.69 10.4844L337.62 14.4746V17H339.131V8.46875H337.086L336.166 11.6738L335.358 8.46875ZM343.307 8.46875V9.79883H344.93V15.6758H343.307V17H348.24V15.6758H346.576V9.79883H348.24V8.46875H343.307ZM354.314 15.6699V8.46875H352.662V17H358.31V15.6699H354.314ZM367.788 17V8.46875H366.159V11.9668H363.745V8.46875H362.111V17H363.745V13.3027H366.159V17H367.788ZM377.718 13.3613V12.1191C377.718 11.7324 377.68 11.3672 377.606 11.0234C377.536 10.6797 377.432 10.3633 377.296 10.0742C377.171 9.82031 377.02 9.58789 376.845 9.37695C376.673 9.16602 376.471 8.98633 376.241 8.83789C376.011 8.68164 375.751 8.5625 375.462 8.48047C375.177 8.39453 374.87 8.35156 374.542 8.35156C374.218 8.35156 373.917 8.39258 373.639 8.47461C373.362 8.55664 373.112 8.67383 372.889 8.82617C372.663 8.98242 372.462 9.16992 372.286 9.38867C372.114 9.60742 371.968 9.85156 371.846 10.1211C371.721 10.4062 371.626 10.7168 371.559 11.0527C371.497 11.3887 371.466 11.7441 371.466 12.1191V13.3613C371.466 13.7129 371.493 14.0469 371.548 14.3633C371.606 14.6797 371.69 14.9727 371.8 15.2422C371.921 15.5352 372.071 15.7988 372.251 16.0332C372.43 16.2637 372.634 16.4609 372.86 16.625C373.091 16.7812 373.346 16.9023 373.628 16.9883C373.909 17.0742 374.216 17.1172 374.548 17.1172C374.86 17.1172 375.151 17.0781 375.421 17C375.694 16.9258 375.944 16.8203 376.171 16.6836C376.421 16.5273 376.643 16.332 376.839 16.0977C377.034 15.8633 377.198 15.6055 377.331 15.3242C377.456 15.043 377.552 14.7383 377.618 14.4102C377.684 14.0781 377.718 13.7285 377.718 13.3613ZM376.048 12.1074V13.3613C376.048 13.5723 376.036 13.7754 376.013 13.9707C375.993 14.166 375.962 14.3457 375.919 14.5098C375.864 14.7207 375.79 14.9102 375.696 15.0781C375.606 15.2422 375.495 15.3789 375.362 15.4883C375.257 15.5781 375.136 15.6465 374.999 15.6934C374.862 15.7402 374.712 15.7637 374.548 15.7637C374.376 15.7637 374.221 15.7383 374.085 15.6875C373.952 15.6367 373.833 15.5645 373.727 15.4707C373.614 15.3652 373.514 15.2285 373.429 15.0605C373.346 14.8887 373.284 14.6992 373.241 14.4922C373.202 14.3281 373.175 14.1504 373.159 13.959C373.143 13.7676 373.136 13.5684 373.136 13.3613V12.1074C373.136 11.8887 373.143 11.6797 373.159 11.4805C373.179 11.2812 373.208 11.0977 373.247 10.9297C373.298 10.7109 373.368 10.5195 373.458 10.3555C373.552 10.1914 373.665 10.0547 373.798 9.94531C373.895 9.87109 374.005 9.81445 374.126 9.77539C374.251 9.73633 374.389 9.7168 374.542 9.7168C374.702 9.7168 374.846 9.73828 374.975 9.78125C375.108 9.82422 375.227 9.88477 375.333 9.96289C375.466 10.0684 375.581 10.2051 375.679 10.373C375.776 10.5371 375.854 10.7246 375.913 10.9355C375.96 11.1035 375.993 11.2871 376.013 11.4863C376.036 11.6816 376.048 11.8887 376.048 12.1074ZM376.733 5.97266L375.913 5.79102C375.913 5.87305 375.899 5.94922 375.872 6.01953C375.848 6.08594 375.815 6.14258 375.772 6.18945C375.725 6.24414 375.667 6.28711 375.596 6.31836C375.53 6.3457 375.46 6.35938 375.386 6.35938C375.237 6.35938 375.096 6.33398 374.964 6.2832C374.831 6.22852 374.7 6.16797 374.571 6.10156C374.438 6.03906 374.304 5.98242 374.167 5.93164C374.03 5.87695 373.884 5.84961 373.727 5.84961C373.536 5.84961 373.362 5.89258 373.206 5.97852C373.054 6.06445 372.923 6.17578 372.813 6.3125C372.704 6.44922 372.618 6.60352 372.555 6.77539C372.497 6.94727 372.468 7.11914 372.468 7.29102L373.288 7.4668C373.288 7.37695 373.302 7.29688 373.329 7.22656C373.356 7.15234 373.395 7.0918 373.446 7.04492C373.493 6.99414 373.548 6.95703 373.61 6.93359C373.673 6.90625 373.739 6.89258 373.809 6.89258C373.962 6.89258 374.098 6.91992 374.22 6.97461C374.341 7.02539 374.464 7.08203 374.589 7.14453C374.71 7.21094 374.839 7.27148 374.975 7.32617C375.116 7.37695 375.28 7.40234 375.468 7.40234C375.659 7.40234 375.831 7.36133 375.983 7.2793C376.139 7.19727 376.274 7.08789 376.388 6.95117C376.497 6.81836 376.581 6.66602 376.639 6.49414C376.702 6.32227 376.733 6.14844 376.733 5.97266ZM386.621 13.2617V11.9609H383.118V9.81055H387.196V8.46875H381.465V17H387.213V15.6699H383.118V13.2617H386.621ZM395.408 14.7734C395.408 14.9258 395.377 15.0664 395.314 15.1953C395.252 15.3203 395.162 15.4277 395.045 15.5176C394.928 15.6074 394.783 15.6777 394.611 15.7285C394.443 15.7793 394.25 15.8047 394.031 15.8047C393.785 15.8047 393.559 15.7773 393.352 15.7227C393.148 15.668 392.975 15.582 392.83 15.4648C392.682 15.3477 392.566 15.1973 392.484 15.0137C392.402 14.8301 392.357 14.6094 392.35 14.3516H390.732C390.732 14.793 390.816 15.1777 390.984 15.5059C391.156 15.834 391.389 16.1191 391.682 16.3613C391.99 16.6074 392.352 16.7949 392.766 16.9238C393.184 17.0488 393.605 17.1113 394.031 17.1113C394.465 17.1113 394.865 17.0605 395.232 16.959C395.6 16.8535 395.916 16.6992 396.182 16.4961C396.447 16.2969 396.654 16.0527 396.803 15.7637C396.955 15.4707 397.031 15.1367 397.031 14.7617C397.031 14.3281 396.932 13.9453 396.732 13.6133C396.533 13.2812 396.266 12.9902 395.93 12.7402C395.707 12.5879 395.463 12.4531 395.197 12.3359C394.932 12.2188 394.652 12.1191 394.359 12.0371C394.086 11.9629 393.84 11.8828 393.621 11.7969C393.406 11.7109 393.223 11.6152 393.07 11.5098C392.918 11.4082 392.801 11.293 392.719 11.1641C392.641 11.0352 392.602 10.8906 392.602 10.7305C392.602 10.5781 392.631 10.4375 392.689 10.3086C392.752 10.1758 392.842 10.0605 392.959 9.96289C393.076 9.86914 393.219 9.79688 393.387 9.74609C393.559 9.69141 393.754 9.66406 393.973 9.66406C394.211 9.66406 394.418 9.69727 394.594 9.76367C394.773 9.82617 394.924 9.91406 395.045 10.0273C395.162 10.1445 395.25 10.2832 395.309 10.4434C395.371 10.6035 395.406 10.7793 395.414 10.9707H397.02C397.02 10.5879 396.945 10.2363 396.797 9.91602C396.648 9.5957 396.441 9.31836 396.176 9.08398C395.91 8.85352 395.592 8.67383 395.221 8.54492C394.854 8.41602 394.447 8.35156 394.002 8.35156C393.572 8.35156 393.174 8.4082 392.807 8.52148C392.439 8.63086 392.121 8.78906 391.852 8.99609C391.582 9.20312 391.371 9.45312 391.219 9.74609C391.066 10.0391 390.99 10.3652 390.99 10.7246C390.99 11.0371 391.047 11.3262 391.16 11.5918C391.277 11.8574 391.449 12.0996 391.676 12.3184C391.902 12.5371 392.193 12.7383 392.549 12.9219C392.908 13.1055 393.324 13.2617 393.797 13.3906C394.102 13.4727 394.355 13.5625 394.559 13.6602C394.766 13.7539 394.934 13.8574 395.062 13.9707C395.188 14.0879 395.275 14.2129 395.326 14.3457C395.381 14.4785 395.408 14.6211 395.408 14.7734ZM410.157 17H412.448C412.827 17 413.183 16.9531 413.515 16.8594C413.851 16.7656 414.157 16.6309 414.435 16.4551C414.673 16.3066 414.892 16.123 415.091 15.9043C415.29 15.6816 415.464 15.4395 415.612 15.1777C415.769 14.8848 415.89 14.5625 415.976 14.2109C416.062 13.8594 416.105 13.4863 416.105 13.0918V12.3887C416.105 11.9785 416.058 11.5918 415.964 11.2285C415.874 10.8652 415.745 10.5332 415.577 10.2324C415.433 9.98633 415.263 9.75977 415.068 9.55273C414.876 9.3418 414.657 9.16406 414.411 9.01953C414.13 8.84375 413.818 8.70898 413.474 8.61523C413.13 8.51758 412.761 8.46875 412.366 8.46875H410.157V17ZM411.816 9.80469H412.366C412.566 9.80469 412.749 9.82812 412.917 9.875C413.089 9.91797 413.245 9.98047 413.386 10.0625C413.57 10.1719 413.73 10.3125 413.866 10.4844C414.007 10.6562 414.12 10.8516 414.206 11.0703C414.277 11.2539 414.329 11.457 414.364 11.6797C414.404 11.8984 414.423 12.1309 414.423 12.377V13.0918C414.423 13.3535 414.404 13.5977 414.364 13.8242C414.329 14.0469 414.277 14.25 414.206 14.4336C414.12 14.6445 414.017 14.8301 413.896 14.9902C413.779 15.1465 413.646 15.2754 413.497 15.377C413.353 15.4746 413.193 15.5488 413.017 15.5996C412.841 15.6504 412.652 15.6758 412.448 15.6758H411.816V9.80469ZM425.05 13.2617V11.9609H421.546V9.81055H425.624V8.46875H419.893V17H425.641V15.6699H421.546V13.2617H425.05ZM441.006 17H442.682L445.266 8.46875H443.449L441.996 14.0352L441.838 14.6152L441.691 14.041L440.244 8.46875H438.428L441.006 17ZM454.574 13.3613V12.1191C454.574 11.7324 454.537 11.3672 454.462 11.0234C454.392 10.6797 454.289 10.3633 454.152 10.0742C454.027 9.82031 453.877 9.58789 453.701 9.37695C453.529 9.16602 453.328 8.98633 453.097 8.83789C452.867 8.68164 452.607 8.5625 452.318 8.48047C452.033 8.39453 451.726 8.35156 451.398 8.35156C451.074 8.35156 450.773 8.39258 450.496 8.47461C450.218 8.55664 449.968 8.67383 449.746 8.82617C449.519 8.98242 449.318 9.16992 449.142 9.38867C448.97 9.60742 448.824 9.85156 448.703 10.1211C448.578 10.4062 448.482 10.7168 448.416 11.0527C448.353 11.3887 448.322 11.7441 448.322 12.1191V13.3613C448.322 13.7129 448.349 14.0469 448.404 14.3633C448.462 14.6797 448.546 14.9727 448.656 15.2422C448.777 15.5352 448.927 15.7988 449.107 16.0332C449.287 16.2637 449.49 16.4609 449.716 16.625C449.947 16.7812 450.203 16.9023 450.484 16.9883C450.765 17.0742 451.072 17.1172 451.404 17.1172C451.716 17.1172 452.007 17.0781 452.277 17C452.55 16.9258 452.8 16.8203 453.027 16.6836C453.277 16.5273 453.5 16.332 453.695 16.0977C453.89 15.8633 454.054 15.6055 454.187 15.3242C454.312 15.043 454.408 14.7383 454.474 14.4102C454.541 14.0781 454.574 13.7285 454.574 13.3613ZM452.904 12.1074V13.3613C452.904 13.5723 452.892 13.7754 452.869 13.9707C452.849 14.166 452.818 14.3457 452.775 14.5098C452.72 14.7207 452.646 14.9102 452.552 15.0781C452.462 15.2422 452.351 15.3789 452.218 15.4883C452.113 15.5781 451.992 15.6465 451.855 15.6934C451.718 15.7402 451.568 15.7637 451.404 15.7637C451.232 15.7637 451.078 15.7383 450.941 15.6875C450.808 15.6367 450.689 15.5645 450.584 15.4707C450.47 15.3652 450.371 15.2285 450.285 15.0605C450.203 14.8887 450.14 14.6992 450.097 14.4922C450.058 14.3281 450.031 14.1504 450.015 13.959C450 13.7676 449.992 13.5684 449.992 13.3613V12.1074C449.992 11.8887 450 11.6797 450.015 11.4805C450.035 11.2812 450.064 11.0977 450.103 10.9297C450.154 10.7109 450.224 10.5195 450.314 10.3555C450.408 10.1914 450.521 10.0547 450.654 9.94531C450.752 9.87109 450.861 9.81445 450.982 9.77539C451.107 9.73633 451.246 9.7168 451.398 9.7168C451.558 9.7168 451.703 9.73828 451.832 9.78125C451.964 9.82422 452.084 9.88477 452.189 9.96289C452.322 10.0684 452.437 10.2051 452.535 10.373C452.632 10.5371 452.711 10.7246 452.769 10.9355C452.816 11.1035 452.849 11.2871 452.869 11.4863C452.892 11.6816 452.904 11.8887 452.904 12.1074ZM464.497 9.81055V8.46875H457.618V9.81055H460.214V17H461.866V9.81055H464.497ZM473.788 13.3613V12.1191C473.788 11.7324 473.751 11.3672 473.677 11.0234C473.606 10.6797 473.503 10.3633 473.366 10.0742C473.241 9.82031 473.091 9.58789 472.915 9.37695C472.743 9.16602 472.542 8.98633 472.311 8.83789C472.081 8.68164 471.821 8.5625 471.532 8.48047C471.247 8.39453 470.94 8.35156 470.612 8.35156C470.288 8.35156 469.987 8.39258 469.71 8.47461C469.432 8.55664 469.182 8.67383 468.96 8.82617C468.733 8.98242 468.532 9.16992 468.356 9.38867C468.184 9.60742 468.038 9.85156 467.917 10.1211C467.792 10.4062 467.696 10.7168 467.63 11.0527C467.567 11.3887 467.536 11.7441 467.536 12.1191V13.3613C467.536 13.7129 467.563 14.0469 467.618 14.3633C467.677 14.6797 467.761 14.9727 467.87 15.2422C467.991 15.5352 468.141 15.7988 468.321 16.0332C468.501 16.2637 468.704 16.4609 468.93 16.625C469.161 16.7812 469.417 16.9023 469.698 16.9883C469.979 17.0742 470.286 17.1172 470.618 17.1172C470.93 17.1172 471.221 17.0781 471.491 17C471.764 16.9258 472.014 16.8203 472.241 16.6836C472.491 16.5273 472.714 16.332 472.909 16.0977C473.104 15.8633 473.268 15.6055 473.401 15.3242C473.526 15.043 473.622 14.7383 473.688 14.4102C473.755 14.0781 473.788 13.7285 473.788 13.3613ZM472.118 12.1074V13.3613C472.118 13.5723 472.106 13.7754 472.083 13.9707C472.063 14.166 472.032 14.3457 471.989 14.5098C471.934 14.7207 471.86 14.9102 471.766 15.0781C471.677 15.2422 471.565 15.3789 471.432 15.4883C471.327 15.5781 471.206 15.6465 471.069 15.6934C470.932 15.7402 470.782 15.7637 470.618 15.7637C470.446 15.7637 470.292 15.7383 470.155 15.6875C470.022 15.6367 469.903 15.5645 469.798 15.4707C469.684 15.3652 469.585 15.2285 469.499 15.0605C469.417 14.8887 469.354 14.6992 469.311 14.4922C469.272 14.3281 469.245 14.1504 469.229 13.959C469.214 13.7676 469.206 13.5684 469.206 13.3613V12.1074C469.206 11.8887 469.214 11.6797 469.229 11.4805C469.249 11.2812 469.278 11.0977 469.317 10.9297C469.368 10.7109 469.438 10.5195 469.528 10.3555C469.622 10.1914 469.735 10.0547 469.868 9.94531C469.966 9.87109 470.075 9.81445 470.196 9.77539C470.321 9.73633 470.46 9.7168 470.612 9.7168C470.772 9.7168 470.917 9.73828 471.046 9.78125C471.179 9.82422 471.298 9.88477 471.403 9.96289C471.536 10.0684 471.651 10.2051 471.749 10.373C471.846 10.5371 471.925 10.7246 471.983 10.9355C472.03 11.1035 472.063 11.2871 472.083 11.4863C472.106 11.6816 472.118 11.8887 472.118 12.1074ZM481.871 14.7734C481.871 14.9258 481.84 15.0664 481.778 15.1953C481.715 15.3203 481.625 15.4277 481.508 15.5176C481.391 15.6074 481.246 15.6777 481.075 15.7285C480.907 15.7793 480.713 15.8047 480.495 15.8047C480.248 15.8047 480.022 15.7773 479.815 15.7227C479.612 15.668 479.438 15.582 479.293 15.4648C479.145 15.3477 479.03 15.1973 478.948 15.0137C478.866 14.8301 478.821 14.6094 478.813 14.3516H477.196C477.196 14.793 477.28 15.1777 477.448 15.5059C477.62 15.834 477.852 16.1191 478.145 16.3613C478.454 16.6074 478.815 16.7949 479.229 16.9238C479.647 17.0488 480.069 17.1113 480.495 17.1113C480.928 17.1113 481.329 17.0605 481.696 16.959C482.063 16.8535 482.379 16.6992 482.645 16.4961C482.911 16.2969 483.118 16.0527 483.266 15.7637C483.418 15.4707 483.495 15.1367 483.495 14.7617C483.495 14.3281 483.395 13.9453 483.196 13.6133C482.996 13.2812 482.729 12.9902 482.393 12.7402C482.17 12.5879 481.926 12.4531 481.661 12.3359C481.395 12.2188 481.116 12.1191 480.823 12.0371C480.549 11.9629 480.303 11.8828 480.084 11.7969C479.87 11.7109 479.686 11.6152 479.534 11.5098C479.381 11.4082 479.264 11.293 479.182 11.1641C479.104 11.0352 479.065 10.8906 479.065 10.7305C479.065 10.5781 479.094 10.4375 479.153 10.3086C479.215 10.1758 479.305 10.0605 479.422 9.96289C479.539 9.86914 479.682 9.79688 479.85 9.74609C480.022 9.69141 480.217 9.66406 480.436 9.66406C480.674 9.66406 480.881 9.69727 481.057 9.76367C481.237 9.82617 481.387 9.91406 481.508 10.0273C481.625 10.1445 481.713 10.2832 481.772 10.4434C481.834 10.6035 481.87 10.7793 481.877 10.9707H483.483C483.483 10.5879 483.409 10.2363 483.26 9.91602C483.112 9.5957 482.905 9.31836 482.639 9.08398C482.373 8.85352 482.055 8.67383 481.684 8.54492C481.317 8.41602 480.911 8.35156 480.465 8.35156C480.036 8.35156 479.637 8.4082 479.27 8.52148C478.903 8.63086 478.584 8.78906 478.315 8.99609C478.045 9.20312 477.834 9.45312 477.682 9.74609C477.53 10.0391 477.454 10.3652 477.454 10.7246C477.454 11.0371 477.51 11.3262 477.623 11.5918C477.741 11.8574 477.913 12.0996 478.139 12.3184C478.366 12.5371 478.657 12.7383 479.012 12.9219C479.371 13.1055 479.788 13.2617 480.26 13.3906C480.565 13.4727 480.819 13.5625 481.022 13.6602C481.229 13.7539 481.397 13.8574 481.526 13.9707C481.651 14.0879 481.739 14.2129 481.789 14.3457C481.844 14.4785 481.871 14.6211 481.871 14.7734ZM498.648 17H500.324L502.908 8.46875H501.091L499.638 14.0352L499.48 14.6152L499.334 14.041L497.886 8.46875H496.07L498.648 17ZM510.458 15.2188L510.956 17H512.691L509.948 8.46875H508.454L505.659 17H507.394L507.898 15.2188H510.458ZM508.302 13.8184L509.198 10.6777L510.072 13.8184H508.302ZM509.614 6.31836L508.519 7.95312H509.784L511.407 6.31836H509.614ZM517.634 15.6699V8.46875H515.981V17H521.63V15.6699H517.634ZM525.84 8.46875V9.79883H527.463V15.6758H525.84V17H530.774V15.6758H529.11V9.79883H530.774V8.46875H525.84ZM535.049 17H537.34C537.719 17 538.074 16.9531 538.406 16.8594C538.742 16.7656 539.049 16.6309 539.326 16.4551C539.564 16.3066 539.783 16.123 539.982 15.9043C540.182 15.6816 540.355 15.4395 540.504 15.1777C540.66 14.8848 540.781 14.5625 540.867 14.2109C540.953 13.8594 540.996 13.4863 540.996 13.0918V12.3887C540.996 11.9785 540.949 11.5918 540.855 11.2285C540.766 10.8652 540.637 10.5332 540.469 10.2324C540.324 9.98633 540.154 9.75977 539.959 9.55273C539.768 9.3418 539.549 9.16406 539.303 9.01953C539.021 8.84375 538.709 8.70898 538.365 8.61523C538.021 8.51758 537.652 8.46875 537.258 8.46875H535.049V17ZM536.707 9.80469H537.258C537.457 9.80469 537.641 9.82812 537.809 9.875C537.98 9.91797 538.137 9.98047 538.277 10.0625C538.461 10.1719 538.621 10.3125 538.758 10.4844C538.898 10.6562 539.012 10.8516 539.098 11.0703C539.168 11.2539 539.221 11.457 539.256 11.6797C539.295 11.8984 539.314 12.1309 539.314 12.377V13.0918C539.314 13.3535 539.295 13.5977 539.256 13.8242C539.221 14.0469 539.168 14.25 539.098 14.4336C539.012 14.6445 538.908 14.8301 538.787 14.9902C538.67 15.1465 538.537 15.2754 538.389 15.377C538.244 15.4746 538.084 15.5488 537.908 15.5996C537.732 15.6504 537.543 15.6758 537.34 15.6758H536.707V9.80469ZM550.644 13.3613V12.1191C550.644 11.7324 550.607 11.3672 550.533 11.0234C550.462 10.6797 550.359 10.3633 550.222 10.0742C550.097 9.82031 549.947 9.58789 549.771 9.37695C549.599 9.16602 549.398 8.98633 549.168 8.83789C548.937 8.68164 548.677 8.5625 548.388 8.48047C548.103 8.39453 547.796 8.35156 547.468 8.35156C547.144 8.35156 546.843 8.39258 546.566 8.47461C546.289 8.55664 546.039 8.67383 545.816 8.82617C545.589 8.98242 545.388 9.16992 545.212 9.38867C545.041 9.60742 544.894 9.85156 544.773 10.1211C544.648 10.4062 544.552 10.7168 544.486 11.0527C544.423 11.3887 544.392 11.7441 544.392 12.1191V13.3613C544.392 13.7129 544.42 14.0469 544.474 14.3633C544.533 14.6797 544.617 14.9727 544.726 15.2422C544.847 15.5352 544.998 15.7988 545.177 16.0332C545.357 16.2637 545.56 16.4609 545.787 16.625C546.017 16.7812 546.273 16.9023 546.554 16.9883C546.836 17.0742 547.142 17.1172 547.474 17.1172C547.787 17.1172 548.078 17.0781 548.347 17C548.621 16.9258 548.871 16.8203 549.097 16.6836C549.347 16.5273 549.57 16.332 549.765 16.0977C549.961 15.8633 550.125 15.6055 550.257 15.3242C550.382 15.043 550.478 14.7383 550.545 14.4102C550.611 14.0781 550.644 13.7285 550.644 13.3613ZM548.974 12.1074V13.3613C548.974 13.5723 548.962 13.7754 548.939 13.9707C548.92 14.166 548.888 14.3457 548.845 14.5098C548.791 14.7207 548.716 14.9102 548.623 15.0781C548.533 15.2422 548.421 15.3789 548.289 15.4883C548.183 15.5781 548.062 15.6465 547.925 15.6934C547.789 15.7402 547.638 15.7637 547.474 15.7637C547.302 15.7637 547.148 15.7383 547.011 15.6875C546.879 15.6367 546.759 15.5645 546.654 15.4707C546.541 15.3652 546.441 15.2285 546.355 15.0605C546.273 14.8887 546.211 14.6992 546.168 14.4922C546.129 14.3281 546.101 14.1504 546.086 13.959C546.07 13.7676 546.062 13.5684 546.062 13.3613V12.1074C546.062 11.8887 546.07 11.6797 546.086 11.4805C546.105 11.2812 546.134 11.0977 546.173 10.9297C546.224 10.7109 546.295 10.5195 546.384 10.3555C546.478 10.1914 546.591 10.0547 546.724 9.94531C546.822 9.87109 546.931 9.81445 547.052 9.77539C547.177 9.73633 547.316 9.7168 547.468 9.7168C547.629 9.7168 547.773 9.73828 547.902 9.78125C548.035 9.82422 548.154 9.88477 548.259 9.96289C548.392 10.0684 548.507 10.2051 548.605 10.373C548.703 10.5371 548.781 10.7246 548.839 10.9355C548.886 11.1035 548.92 11.2871 548.939 11.4863C548.962 11.6816 548.974 11.8887 548.974 12.1074ZM558.728 14.7734C558.728 14.9258 558.697 15.0664 558.634 15.1953C558.572 15.3203 558.482 15.4277 558.364 15.5176C558.247 15.6074 558.103 15.6777 557.931 15.7285C557.763 15.7793 557.57 15.8047 557.351 15.8047C557.105 15.8047 556.878 15.7773 556.671 15.7227C556.468 15.668 556.294 15.582 556.15 15.4648C556.001 15.3477 555.886 15.1973 555.804 15.0137C555.722 14.8301 555.677 14.6094 555.669 14.3516H554.052C554.052 14.793 554.136 15.1777 554.304 15.5059C554.476 15.834 554.708 16.1191 555.001 16.3613C555.31 16.6074 555.671 16.7949 556.085 16.9238C556.503 17.0488 556.925 17.1113 557.351 17.1113C557.784 17.1113 558.185 17.0605 558.552 16.959C558.919 16.8535 559.236 16.6992 559.501 16.4961C559.767 16.2969 559.974 16.0527 560.122 15.7637C560.275 15.4707 560.351 15.1367 560.351 14.7617C560.351 14.3281 560.251 13.9453 560.052 13.6133C559.853 13.2812 559.585 12.9902 559.249 12.7402C559.027 12.5879 558.782 12.4531 558.517 12.3359C558.251 12.2188 557.972 12.1191 557.679 12.0371C557.405 11.9629 557.159 11.8828 556.941 11.7969C556.726 11.7109 556.542 11.6152 556.39 11.5098C556.238 11.4082 556.12 11.293 556.038 11.1641C555.96 11.0352 555.921 10.8906 555.921 10.7305C555.921 10.5781 555.95 10.4375 556.009 10.3086C556.072 10.1758 556.161 10.0605 556.279 9.96289C556.396 9.86914 556.538 9.79688 556.706 9.74609C556.878 9.69141 557.073 9.66406 557.292 9.66406C557.53 9.66406 557.738 9.69727 557.913 9.76367C558.093 9.82617 558.243 9.91406 558.364 10.0273C558.482 10.1445 558.57 10.2832 558.628 10.4434C558.691 10.6035 558.726 10.7793 558.734 10.9707H560.339C560.339 10.5879 560.265 10.2363 560.116 9.91602C559.968 9.5957 559.761 9.31836 559.495 9.08398C559.23 8.85352 558.911 8.67383 558.54 8.54492C558.173 8.41602 557.767 8.35156 557.322 8.35156C556.892 8.35156 556.493 8.4082 556.126 8.52148C555.759 8.63086 555.441 8.78906 555.171 8.99609C554.902 9.20312 554.691 9.45312 554.538 9.74609C554.386 10.0391 554.31 10.3652 554.31 10.7246C554.31 11.0371 554.366 11.3262 554.48 11.5918C554.597 11.8574 554.769 12.0996 554.995 12.3184C555.222 12.5371 555.513 12.7383 555.868 12.9219C556.228 13.1055 556.644 13.2617 557.116 13.3906C557.421 13.4727 557.675 13.5625 557.878 13.6602C558.085 13.7539 558.253 13.8574 558.382 13.9707C558.507 14.0879 558.595 14.2129 558.646 14.3457C558.7 14.4785 558.728 14.6211 558.728 14.7734ZM565.61 16.0566C565.61 16.3574 565.712 16.6094 565.915 16.8125C566.118 17.0156 566.393 17.1172 566.741 17.1172C567.085 17.1172 567.358 17.0176 567.561 16.8184C567.768 16.6152 567.872 16.3613 567.872 16.0566C567.872 15.752 567.77 15.4961 567.567 15.2891C567.368 15.082 567.093 14.9785 566.741 14.9785C566.386 14.9785 566.108 15.084 565.909 15.2949C565.71 15.502 565.61 15.7559 565.61 16.0566Z" fill="#F8F7FA"/>
<path d="M1221.48 14.8438C1221.48 15.0781 1221.43 15.2812 1221.33 15.4531C1221.23 15.6211 1221.1 15.7598 1220.94 15.8691C1220.78 15.9824 1220.6 16.0664 1220.39 16.1211C1220.19 16.1719 1219.98 16.1973 1219.77 16.1973C1219.5 16.1973 1219.26 16.1621 1219.03 16.0918C1218.81 16.0176 1218.61 15.9082 1218.44 15.7637C1218.27 15.623 1218.12 15.4512 1218.02 15.248C1217.91 15.041 1217.83 14.8047 1217.8 14.5391H1216.69C1216.7 14.9062 1216.78 15.2402 1216.93 15.541C1217.08 15.8379 1217.29 16.0977 1217.55 16.3203C1217.84 16.5781 1218.18 16.7754 1218.57 16.9121C1218.96 17.0488 1219.36 17.1172 1219.77 17.1172C1220.11 17.1172 1220.45 17.0703 1220.79 16.9766C1221.13 16.8789 1221.43 16.7344 1221.7 16.543C1221.97 16.3555 1222.19 16.1191 1222.36 15.834C1222.53 15.5488 1222.62 15.2148 1222.62 14.832C1222.62 14.4531 1222.54 14.1191 1222.38 13.8301C1222.22 13.541 1222.01 13.2969 1221.75 13.0977C1221.49 12.8828 1221.2 12.707 1220.89 12.5703C1220.57 12.4297 1220.25 12.3105 1219.94 12.2129C1219.75 12.1543 1219.54 12.0859 1219.32 12.0078C1219.11 11.9297 1218.91 11.832 1218.72 11.7148C1218.54 11.5977 1218.38 11.4551 1218.26 11.2871C1218.14 11.1152 1218.08 10.9062 1218.07 10.6602C1218.07 10.4336 1218.12 10.2344 1218.21 10.0625C1218.3 9.89062 1218.43 9.74609 1218.58 9.62891C1218.74 9.51172 1218.91 9.42383 1219.11 9.36523C1219.3 9.30664 1219.51 9.27734 1219.71 9.27734C1219.97 9.27734 1220.2 9.31836 1220.41 9.40039C1220.61 9.47852 1220.79 9.58984 1220.94 9.73438C1221.09 9.87891 1221.21 10.0527 1221.3 10.2559C1221.39 10.4551 1221.45 10.6777 1221.48 10.9238H1222.59C1222.58 10.5332 1222.5 10.1797 1222.34 9.86328C1222.18 9.54688 1221.97 9.27734 1221.7 9.05469C1221.44 8.83203 1221.13 8.66016 1220.79 8.53906C1220.44 8.41406 1220.09 8.35156 1219.71 8.35156C1219.38 8.35156 1219.04 8.4043 1218.71 8.50977C1218.38 8.61133 1218.08 8.76172 1217.82 8.96094C1217.56 9.16016 1217.35 9.4043 1217.18 9.69336C1217.02 9.98242 1216.94 10.3105 1216.94 10.6777C1216.94 11.0449 1217.02 11.3652 1217.18 11.6387C1217.35 11.9082 1217.56 12.1426 1217.82 12.3418C1218.07 12.5371 1218.35 12.7051 1218.66 12.8457C1218.97 12.9824 1219.28 13.0996 1219.58 13.1973C1219.79 13.2637 1220 13.3379 1220.22 13.4199C1220.45 13.502 1220.66 13.6035 1220.85 13.7246C1221.03 13.8496 1221.19 14.002 1221.3 14.1816C1221.42 14.3613 1221.48 14.582 1221.48 14.8438ZM1231.32 13.0566V12.1367H1227.76V9.39453H1231.86V8.46875H1226.67V17H1231.91V16.0801H1227.76V13.0566H1231.32ZM1241.75 15.8809L1241.74 12.752H1238.97V13.666H1240.7L1240.69 15.582C1240.6 15.7109 1240.49 15.8164 1240.36 15.8984C1240.23 15.9766 1240.08 16.0391 1239.93 16.0859C1239.78 16.1328 1239.62 16.1641 1239.46 16.1797C1239.3 16.1953 1239.14 16.2012 1238.99 16.1973C1238.74 16.1934 1238.51 16.1484 1238.3 16.0625C1238.1 15.9727 1237.92 15.8535 1237.77 15.7051C1237.61 15.5566 1237.48 15.3848 1237.37 15.1895C1237.26 14.9941 1237.17 14.7871 1237.1 14.5684C1237.03 14.3496 1236.98 14.127 1236.94 13.9004C1236.91 13.6699 1236.89 13.4473 1236.89 13.2324V12.2305C1236.89 12.0195 1236.9 11.8008 1236.93 11.5742C1236.96 11.3477 1237 11.125 1237.07 10.9062C1237.13 10.6875 1237.21 10.4805 1237.31 10.2852C1237.4 10.0859 1237.53 9.91211 1237.67 9.76367C1237.82 9.61523 1238 9.49805 1238.2 9.41211C1238.4 9.32227 1238.62 9.27734 1238.88 9.27734C1239.15 9.27734 1239.39 9.32031 1239.59 9.40625C1239.79 9.48828 1239.97 9.60352 1240.12 9.75195C1240.26 9.90039 1240.38 10.0801 1240.47 10.291C1240.56 10.498 1240.63 10.7246 1240.67 10.9707H1241.74C1241.71 10.5723 1241.61 10.2129 1241.46 9.89258C1241.31 9.56836 1241.11 9.29102 1240.86 9.06055C1240.61 8.83398 1240.31 8.66016 1239.98 8.53906C1239.64 8.41406 1239.27 8.35156 1238.88 8.35156C1238.52 8.35156 1238.19 8.4043 1237.9 8.50977C1237.61 8.61523 1237.36 8.75781 1237.13 8.9375C1236.9 9.12109 1236.7 9.33789 1236.54 9.58789C1236.37 9.83398 1236.24 10.1016 1236.13 10.3906C1236.02 10.6797 1235.94 10.9824 1235.88 11.2988C1235.83 11.6113 1235.8 11.9258 1235.8 12.2422V13.2324C1235.8 13.5527 1235.84 13.8711 1235.89 14.1875C1235.96 14.5 1236.05 14.7988 1236.17 15.084C1236.29 15.373 1236.43 15.6406 1236.61 15.8867C1236.78 16.1328 1236.99 16.3457 1237.22 16.5254C1237.46 16.709 1237.72 16.8535 1238.01 16.959C1238.31 17.0605 1238.64 17.1133 1238.99 17.1172C1239.34 17.1211 1239.67 17.082 1239.98 17C1240.3 16.9219 1240.59 16.8008 1240.87 16.6367C1241.03 16.543 1241.18 16.4336 1241.33 16.3086C1241.48 16.1797 1241.62 16.0371 1241.75 15.8809ZM1251.2 8.46875H1250.15L1250.13 14.2461C1250.12 14.5 1250.08 14.7441 1250.01 14.9785C1249.93 15.2129 1249.83 15.4199 1249.68 15.5996C1249.54 15.7832 1249.36 15.9297 1249.15 16.0391C1248.94 16.1445 1248.7 16.1973 1248.42 16.1973C1248.14 16.1973 1247.9 16.1426 1247.68 16.0332C1247.47 15.9238 1247.29 15.7793 1247.15 15.5996C1247.01 15.4199 1246.9 15.2129 1246.82 14.9785C1246.74 14.7441 1246.71 14.5 1246.7 14.2461L1246.68 8.46875H1245.65L1245.64 14.2461C1245.64 14.6445 1245.71 15.0195 1245.85 15.3711C1245.98 15.7188 1246.17 16.0215 1246.41 16.2793C1246.66 16.541 1246.95 16.7461 1247.29 16.8945C1247.63 17.043 1248 17.1172 1248.42 17.1172C1248.83 17.1172 1249.2 17.043 1249.54 16.8945C1249.88 16.7422 1250.17 16.5352 1250.42 16.2734C1250.66 16.0156 1250.86 15.7129 1251 15.3652C1251.14 15.0176 1251.21 14.6445 1251.21 14.2461L1251.2 8.46875ZM1260.79 17V8.46875H1259.7L1259.68 14.832L1256.37 8.46875H1255.27V17H1256.36L1256.38 10.625L1259.69 17H1260.79ZM1264.94 17H1266.92C1267.33 16.9961 1267.71 16.9473 1268.06 16.8535C1268.42 16.7598 1268.73 16.625 1269.02 16.4492C1269.28 16.2812 1269.52 16.0781 1269.74 15.8398C1269.95 15.6016 1270.13 15.3359 1270.27 15.043C1270.41 14.7617 1270.51 14.4531 1270.58 14.1172C1270.65 13.7812 1270.69 13.4258 1270.69 13.0508V12.4238C1270.69 12.0332 1270.65 11.666 1270.57 11.3223C1270.49 10.9785 1270.38 10.6621 1270.24 10.373C1270.08 10.0332 1269.87 9.73438 1269.6 9.47656C1269.33 9.21484 1269.02 9.00391 1268.68 8.84375C1268.43 8.72656 1268.15 8.63672 1267.86 8.57422C1267.56 8.50781 1267.25 8.47266 1266.92 8.46875H1264.94V17ZM1266.04 9.35938H1266.92C1267.19 9.36328 1267.44 9.39453 1267.66 9.45312C1267.89 9.50781 1268.09 9.58594 1268.28 9.6875C1268.54 9.82422 1268.75 10.0039 1268.93 10.2266C1269.11 10.4453 1269.25 10.6914 1269.36 10.9648C1269.44 11.1758 1269.5 11.4043 1269.54 11.6504C1269.58 11.8926 1269.6 12.1465 1269.61 12.4121V13.0508C1269.6 13.3125 1269.58 13.5645 1269.54 13.8066C1269.5 14.0449 1269.45 14.2676 1269.37 14.4746C1269.28 14.7285 1269.15 14.959 1269 15.166C1268.85 15.3691 1268.66 15.541 1268.45 15.6816C1268.25 15.8184 1268.03 15.9238 1267.77 15.998C1267.51 16.0723 1267.23 16.1113 1266.92 16.1152H1266.04V9.35938ZM1280.21 13.2266V12.2539C1280.21 11.9492 1280.18 11.6406 1280.13 11.3281C1280.08 11.0156 1280.01 10.7148 1279.91 10.4258C1279.8 10.1367 1279.67 9.86719 1279.51 9.61719C1279.35 9.36328 1279.16 9.14258 1278.94 8.95508C1278.73 8.76758 1278.47 8.62109 1278.19 8.51562C1277.9 8.40625 1277.59 8.35156 1277.23 8.35156C1276.88 8.35156 1276.56 8.40625 1276.28 8.51562C1276 8.62109 1275.75 8.76758 1275.53 8.95508C1275.31 9.14648 1275.12 9.36914 1274.96 9.62305C1274.8 9.87305 1274.68 10.1426 1274.57 10.4316C1274.47 10.7207 1274.39 11.0215 1274.34 11.334C1274.29 11.6426 1274.27 11.9492 1274.26 12.2539V13.2266C1274.27 13.5312 1274.29 13.8379 1274.35 14.1465C1274.4 14.4551 1274.47 14.7539 1274.58 15.043C1274.68 15.332 1274.81 15.6035 1274.97 15.8574C1275.13 16.1074 1275.32 16.3262 1275.54 16.5137C1275.76 16.7012 1276.01 16.8496 1276.29 16.959C1276.58 17.0645 1276.89 17.1172 1277.25 17.1172C1277.6 17.1172 1277.91 17.0645 1278.19 16.959C1278.48 16.8496 1278.73 16.7012 1278.95 16.5137C1279.17 16.3262 1279.36 16.1074 1279.51 15.8574C1279.67 15.6074 1279.8 15.3379 1279.91 15.0488C1280.01 14.7598 1280.08 14.4609 1280.13 14.1523C1280.18 13.8398 1280.21 13.5312 1280.21 13.2266ZM1279.14 12.2422V13.2266C1279.13 13.4297 1279.12 13.6426 1279.1 13.8652C1279.08 14.0879 1279.04 14.3066 1278.99 14.5215C1278.93 14.7402 1278.85 14.9492 1278.76 15.1484C1278.67 15.3438 1278.55 15.5156 1278.42 15.6641C1278.28 15.8164 1278.11 15.9375 1277.91 16.0273C1277.72 16.1172 1277.5 16.1621 1277.25 16.1621C1276.99 16.1621 1276.77 16.1172 1276.58 16.0273C1276.39 15.9375 1276.22 15.8164 1276.08 15.6641C1275.94 15.5156 1275.82 15.3418 1275.73 15.1426C1275.63 14.9434 1275.56 14.7344 1275.5 14.5156C1275.44 14.3008 1275.4 14.082 1275.37 13.8594C1275.35 13.6367 1275.33 13.4258 1275.33 13.2266V12.2422C1275.33 12.043 1275.35 11.834 1275.37 11.6152C1275.4 11.3926 1275.44 11.1719 1275.5 10.9531C1275.55 10.7383 1275.63 10.5332 1275.72 10.3379C1275.82 10.1387 1275.93 9.96289 1276.07 9.81055C1276.21 9.66211 1276.38 9.54297 1276.57 9.45312C1276.76 9.36328 1276.98 9.31836 1277.23 9.31836C1277.49 9.31836 1277.71 9.36328 1277.9 9.45312C1278.09 9.53906 1278.26 9.65625 1278.4 9.80469C1278.54 9.95703 1278.66 10.1328 1278.75 10.332C1278.85 10.5273 1278.92 10.7324 1278.98 10.9473C1279.03 11.166 1279.07 11.3867 1279.1 11.6094C1279.12 11.8281 1279.13 12.0391 1279.14 12.2422ZM1299.63 9.39453V8.46875H1293.3V9.39453H1295.94V17H1296.99V9.39453H1299.63ZM1308.84 8.46875H1307.79L1307.77 14.2461C1307.76 14.5 1307.72 14.7441 1307.65 14.9785C1307.57 15.2129 1307.47 15.4199 1307.33 15.5996C1307.18 15.7832 1307 15.9297 1306.79 16.0391C1306.58 16.1445 1306.34 16.1973 1306.06 16.1973C1305.78 16.1973 1305.54 16.1426 1305.32 16.0332C1305.11 15.9238 1304.94 15.7793 1304.8 15.5996C1304.65 15.4199 1304.54 15.2129 1304.46 14.9785C1304.39 14.7441 1304.35 14.5 1304.34 14.2461L1304.32 8.46875H1303.29L1303.28 14.2461C1303.28 14.6445 1303.35 15.0195 1303.49 15.3711C1303.63 15.7188 1303.81 16.0215 1304.06 16.2793C1304.3 16.541 1304.59 16.7461 1304.93 16.8945C1305.27 17.043 1305.65 17.1172 1306.06 17.1172C1306.47 17.1172 1306.84 17.043 1307.18 16.8945C1307.52 16.7422 1307.81 16.5352 1308.06 16.2734C1308.31 16.0156 1308.5 15.7129 1308.64 15.3652C1308.78 15.0176 1308.85 14.6445 1308.85 14.2461L1308.84 8.46875ZM1315.91 13.5195L1317.59 17H1318.73L1318.74 16.9297L1316.93 13.2852C1317.16 13.1836 1317.38 13.0605 1317.57 12.916C1317.77 12.7715 1317.94 12.6055 1318.08 12.418C1318.22 12.2305 1318.33 12.0215 1318.4 11.791C1318.49 11.5605 1318.53 11.3066 1318.53 11.0293C1318.53 10.5996 1318.45 10.2266 1318.3 9.91016C1318.15 9.58984 1317.95 9.32422 1317.68 9.11328C1317.42 8.90234 1317.11 8.74414 1316.76 8.63867C1316.41 8.5332 1316.03 8.47656 1315.63 8.46875H1313.13V17H1314.21V13.5195H1315.91ZM1314.21 12.6289V9.35938H1315.63C1315.89 9.36328 1316.13 9.40039 1316.35 9.4707C1316.58 9.54102 1316.77 9.64453 1316.93 9.78125C1317.09 9.92188 1317.21 10.0957 1317.3 10.3027C1317.39 10.5059 1317.44 10.7441 1317.44 11.0176C1317.44 11.2754 1317.39 11.5039 1317.3 11.7031C1317.2 11.8984 1317.08 12.0645 1316.92 12.2012C1316.75 12.3379 1316.56 12.4434 1316.35 12.5176C1316.13 12.5879 1315.9 12.625 1315.66 12.6289H1314.21ZM1328.04 17V8.46875H1326.94L1326.93 14.832L1323.62 8.46875H1322.52V17H1323.61L1323.63 10.625L1326.94 17H1328.04ZM1337.85 13.2266V12.2539C1337.85 11.9492 1337.82 11.6406 1337.77 11.3281C1337.72 11.0156 1337.65 10.7148 1337.55 10.4258C1337.44 10.1367 1337.31 9.86719 1337.15 9.61719C1336.99 9.36328 1336.81 9.14258 1336.59 8.95508C1336.37 8.76758 1336.12 8.62109 1335.83 8.51562C1335.55 8.40625 1335.23 8.35156 1334.88 8.35156C1334.52 8.35156 1334.21 8.40625 1333.92 8.51562C1333.64 8.62109 1333.39 8.76758 1333.17 8.95508C1332.95 9.14648 1332.76 9.36914 1332.6 9.62305C1332.45 9.87305 1332.32 10.1426 1332.22 10.4316C1332.11 10.7207 1332.03 11.0215 1331.98 11.334C1331.93 11.6426 1331.91 11.9492 1331.91 12.2539V13.2266C1331.91 13.5312 1331.94 13.8379 1331.99 14.1465C1332.04 14.4551 1332.12 14.7539 1332.22 15.043C1332.32 15.332 1332.45 15.6035 1332.61 15.8574C1332.77 16.1074 1332.96 16.3262 1333.18 16.5137C1333.4 16.7012 1333.65 16.8496 1333.93 16.959C1334.22 17.0645 1334.54 17.1172 1334.89 17.1172C1335.24 17.1172 1335.56 17.0645 1335.84 16.959C1336.12 16.8496 1336.37 16.7012 1336.59 16.5137C1336.81 16.3262 1337 16.1074 1337.16 15.8574C1337.32 15.6074 1337.45 15.3379 1337.55 15.0488C1337.65 14.7598 1337.72 14.4609 1337.77 14.1523C1337.82 13.8398 1337.85 13.5312 1337.85 13.2266ZM1336.78 12.2422V13.2266C1336.78 13.4297 1336.76 13.6426 1336.74 13.8652C1336.72 14.0879 1336.68 14.3066 1336.63 14.5215C1336.57 14.7402 1336.49 14.9492 1336.4 15.1484C1336.31 15.3438 1336.2 15.5156 1336.06 15.6641C1335.92 15.8164 1335.75 15.9375 1335.56 16.0273C1335.36 16.1172 1335.14 16.1621 1334.89 16.1621C1334.63 16.1621 1334.41 16.1172 1334.22 16.0273C1334.03 15.9375 1333.86 15.8164 1333.72 15.6641C1333.58 15.5156 1333.46 15.3418 1333.37 15.1426C1333.28 14.9434 1333.2 14.7344 1333.14 14.5156C1333.08 14.3008 1333.04 14.082 1333.01 13.8594C1332.99 13.6367 1332.98 13.4258 1332.97 13.2266V12.2422C1332.98 12.043 1332.99 11.834 1333.01 11.6152C1333.04 11.3926 1333.08 11.1719 1333.14 10.9531C1333.2 10.7383 1333.27 10.5332 1333.36 10.3379C1333.46 10.1387 1333.58 9.96289 1333.72 9.81055C1333.86 9.66211 1334.02 9.54297 1334.21 9.45312C1334.41 9.36328 1334.63 9.31836 1334.88 9.31836C1335.13 9.31836 1335.35 9.36328 1335.54 9.45312C1335.74 9.53906 1335.9 9.65625 1336.04 9.80469C1336.18 9.95703 1336.3 10.1328 1336.39 10.332C1336.49 10.5273 1336.56 10.7324 1336.62 10.9473C1336.68 11.166 1336.72 11.3867 1336.74 11.6094C1336.76 11.8281 1336.78 12.0391 1336.78 12.2422Z" fill="#F8F7FA"/>
<line x1="102.5" y1="44" x2="102.5" y2="114" stroke="#F8F7FA"/>
</svg>
