<svg width="1440" height="965" viewBox="0 0 1440 965" fill="none" xmlns="http://www.w3.org/2000/svg">
<rect width="1440" height="965" fill="#ED6745"/>
<path d="M117.352 204.54L114.505 211H113.274L116.121 204.862H112.435V203.891H117.352V204.54ZM124.328 208.295C124.328 208.754 124.274 209.159 124.167 209.511C124.063 209.859 123.911 210.152 123.713 210.39C123.514 210.624 123.272 210.801 122.985 210.922C122.699 211.042 122.377 211.103 122.019 211.103C121.664 211.103 121.343 211.042 121.057 210.922C120.77 210.801 120.526 210.624 120.324 210.39C120.126 210.152 119.971 209.859 119.86 209.511C119.753 209.159 119.699 208.754 119.699 208.295V206.596C119.699 206.137 119.753 205.733 119.86 205.385C119.968 205.033 120.121 204.74 120.319 204.506C120.521 204.268 120.764 204.089 121.047 203.969C121.333 203.848 121.654 203.788 122.009 203.788C122.367 203.788 122.689 203.848 122.976 203.969C123.262 204.089 123.505 204.268 123.703 204.506C123.905 204.74 124.06 205.033 124.167 205.385C124.274 205.733 124.328 206.137 124.328 206.596V208.295ZM120.871 207.851L123.146 206.156C123.12 205.671 123.013 205.313 122.824 205.082C122.639 204.848 122.367 204.73 122.009 204.73C121.628 204.73 121.343 204.866 121.154 205.136C120.965 205.406 120.871 205.821 120.871 206.381V207.851ZM123.156 207.074L120.881 208.769C120.939 209.7 121.319 210.165 122.019 210.165C122.777 210.165 123.156 209.61 123.156 208.5V207.074ZM127.999 208.275V211H126.827V203.891H129.205C129.56 203.894 129.887 203.948 130.187 204.052C130.489 204.153 130.75 204.299 130.968 204.491C131.186 204.68 131.355 204.911 131.476 205.185C131.599 205.455 131.661 205.761 131.661 206.103C131.661 206.435 131.599 206.734 131.476 207.001C131.355 207.268 131.186 207.496 130.968 207.685C130.75 207.873 130.489 208.018 130.187 208.119C129.887 208.22 129.56 208.272 129.205 208.275H127.999ZM127.999 207.328H129.205C129.404 207.328 129.581 207.299 129.737 207.24C129.894 207.178 130.027 207.094 130.138 206.986C130.248 206.879 130.333 206.75 130.392 206.601C130.45 206.451 130.479 206.288 130.479 206.112C130.479 205.927 130.45 205.756 130.392 205.6C130.333 205.443 130.248 205.31 130.138 205.199C130.027 205.085 129.894 204.997 129.737 204.936C129.581 204.874 129.404 204.841 129.205 204.838H127.999V207.328ZM136.064 206.537L137.432 203.891H138.813L136.787 207.416L138.862 211H137.49L136.084 208.31L134.678 211H133.291L135.366 207.416L133.345 203.891H134.717L136.064 206.537Z" fill="#F8F7FA"/>
<line y1="311.75" x2="1440" y2="311.75" stroke="#F8F7FA" stroke-opacity="0.5" stroke-width="0.5"/>
<line y1="171.75" x2="1440" y2="171.75" stroke="#F8F7FA" stroke-opacity="0.5" stroke-width="0.5"/>
<line y1="521.75" x2="1440" y2="521.75" stroke="#F8F7FA" stroke-opacity="0.5" stroke-width="0.5"/>
<line y1="381.75" x2="1440" y2="381.75" stroke="#F8F7FA" stroke-opacity="0.5" stroke-width="0.5"/>
<line y1="241.75" x2="1440" y2="241.75" stroke="#F8F7FA" stroke-opacity="0.5" stroke-width="0.5"/>
<line y1="591.75" x2="1440" y2="591.75" stroke="#F8F7FA" stroke-opacity="0.5" stroke-width="0.5"/>
<line y1="451.75" x2="1440" y2="451.75" stroke="#F8F7FA" stroke-opacity="0.5" stroke-width="0.5"/>
<line y1="661.75" x2="1440" y2="661.75" stroke="#F8F7FA" stroke-opacity="0.5" stroke-width="0.5"/>
<path d="M108.545 142.434H107.461C107.426 142.691 107.365 142.932 107.279 143.154C107.193 143.373 107.078 143.562 106.934 143.723C106.789 143.887 106.611 144.014 106.4 144.104C106.193 144.193 105.947 144.238 105.662 144.238C105.4 144.238 105.172 144.197 104.977 144.115C104.781 144.029 104.611 143.912 104.467 143.764C104.322 143.619 104.203 143.451 104.109 143.26C104.016 143.068 103.939 142.863 103.881 142.645C103.822 142.43 103.779 142.211 103.752 141.988C103.729 141.762 103.717 141.543 103.717 141.332V140.131C103.717 139.92 103.729 139.703 103.752 139.48C103.779 139.254 103.822 139.033 103.881 138.818C103.939 138.604 104.016 138.4 104.109 138.209C104.207 138.018 104.328 137.85 104.473 137.705C104.613 137.561 104.781 137.447 104.977 137.365C105.176 137.279 105.404 137.236 105.662 137.236C105.947 137.236 106.193 137.285 106.4 137.383C106.611 137.477 106.789 137.607 106.934 137.775C107.078 137.943 107.193 138.139 107.279 138.361C107.365 138.584 107.426 138.824 107.461 139.082H108.545C108.498 138.676 108.4 138.305 108.252 137.969C108.107 137.633 107.914 137.344 107.672 137.102C107.43 136.863 107.141 136.68 106.805 136.551C106.469 136.418 106.088 136.352 105.662 136.352C105.307 136.352 104.986 136.402 104.701 136.504C104.416 136.602 104.162 136.738 103.939 136.914C103.713 137.09 103.518 137.299 103.354 137.541C103.193 137.779 103.061 138.039 102.955 138.32C102.846 138.602 102.764 138.896 102.709 139.205C102.658 139.514 102.631 139.826 102.627 140.143V141.332C102.631 141.648 102.658 141.961 102.709 142.27C102.764 142.578 102.846 142.873 102.955 143.154C103.061 143.436 103.193 143.695 103.354 143.934C103.518 144.172 103.713 144.379 103.939 144.555C104.162 144.73 104.416 144.869 104.701 144.971C104.99 145.068 105.311 145.117 105.662 145.117C106.072 145.117 106.443 145.053 106.775 144.924C107.111 144.791 107.402 144.605 107.648 144.367C107.891 144.133 108.088 143.852 108.24 143.523C108.393 143.191 108.494 142.828 108.545 142.434ZM116.699 142.791L117.373 145H118.451L115.744 136.469H114.836L112.082 145H113.166L113.851 142.791H116.699ZM114.144 141.848L115.287 138.145L116.412 141.848H114.144ZM122.122 145H124.097C124.507 144.996 124.888 144.947 125.239 144.854C125.595 144.76 125.913 144.625 126.195 144.449C126.46 144.281 126.7 144.078 126.915 143.84C127.13 143.602 127.308 143.336 127.448 143.043C127.585 142.762 127.689 142.453 127.759 142.117C127.833 141.781 127.87 141.426 127.87 141.051V140.424C127.866 140.033 127.825 139.666 127.747 139.322C127.673 138.979 127.564 138.662 127.419 138.373C127.259 138.033 127.044 137.734 126.775 137.477C126.509 137.215 126.202 137.004 125.855 136.844C125.605 136.727 125.331 136.637 125.034 136.574C124.741 136.508 124.429 136.473 124.097 136.469H122.122V145ZM123.224 137.359H124.097C124.366 137.363 124.614 137.395 124.841 137.453C125.068 137.508 125.273 137.586 125.456 137.688C125.714 137.824 125.931 138.004 126.107 138.227C126.286 138.445 126.429 138.691 126.534 138.965C126.616 139.176 126.677 139.404 126.716 139.65C126.759 139.893 126.782 140.146 126.786 140.412V141.051C126.782 141.312 126.761 141.564 126.722 141.807C126.683 142.045 126.624 142.268 126.546 142.475C126.456 142.729 126.333 142.959 126.177 143.166C126.025 143.369 125.843 143.541 125.632 143.682C125.433 143.818 125.204 143.924 124.946 143.998C124.693 144.072 124.409 144.111 124.097 144.115H123.224V137.359ZM135.913 142.791L136.587 145H137.665L134.958 136.469H134.05L131.296 145H132.38L133.065 142.791H135.913ZM133.358 141.848L134.501 138.145L135.626 141.848H133.358ZM156.457 137.078V136.469H150.691V137.418H155.309L151.787 145H152.924L156.457 137.078ZM166.017 141.736V139.738C166.017 139.195 165.955 138.715 165.83 138.297C165.705 137.875 165.525 137.52 165.291 137.23C165.052 136.941 164.761 136.723 164.418 136.574C164.078 136.422 163.689 136.346 163.252 136.346C162.818 136.346 162.429 136.422 162.086 136.574C161.746 136.723 161.459 136.941 161.224 137.23C160.986 137.52 160.804 137.875 160.679 138.297C160.554 138.715 160.492 139.195 160.492 139.738V141.736C160.492 142.279 160.554 142.762 160.679 143.184C160.804 143.602 160.986 143.953 161.224 144.238C161.463 144.531 161.754 144.752 162.097 144.9C162.441 145.045 162.83 145.117 163.263 145.117C163.701 145.117 164.089 145.043 164.429 144.895C164.769 144.746 165.056 144.527 165.291 144.238C165.525 143.953 165.705 143.602 165.83 143.184C165.955 142.762 166.017 142.279 166.017 141.736ZM161.582 141.52C161.582 141.418 161.582 141.318 161.582 141.221C161.582 141.123 161.582 141.025 161.582 140.928V139.498C161.582 139.1 161.621 138.75 161.699 138.449C161.781 138.145 161.904 137.896 162.068 137.705C162.205 137.553 162.371 137.438 162.566 137.359C162.765 137.277 162.994 137.236 163.252 137.236C163.505 137.236 163.728 137.273 163.92 137.348C164.115 137.422 164.279 137.533 164.412 137.682C164.548 137.826 164.656 138.008 164.734 138.227C164.816 138.441 164.873 138.689 164.904 138.971L161.582 141.52ZM164.927 141.965C164.927 142.383 164.884 142.746 164.798 143.055C164.716 143.363 164.586 143.613 164.406 143.805C164.273 143.945 164.111 144.053 163.92 144.127C163.728 144.201 163.509 144.238 163.263 144.238C163.029 144.238 162.818 144.205 162.63 144.139C162.443 144.068 162.283 143.967 162.15 143.834C162.005 143.693 161.888 143.516 161.798 143.301C161.709 143.082 161.646 142.83 161.611 142.545L164.927 140.008C164.927 140.117 164.927 140.256 164.927 140.424C164.927 140.588 164.927 140.699 164.927 140.758V141.965ZM171.452 141.578H173.134C173.517 141.574 173.878 141.516 174.218 141.402C174.562 141.289 174.863 141.125 175.12 140.91C175.378 140.695 175.581 140.432 175.73 140.119C175.882 139.803 175.958 139.439 175.958 139.029C175.958 138.619 175.882 138.256 175.73 137.939C175.581 137.623 175.378 137.357 175.12 137.143C174.863 136.928 174.562 136.764 174.218 136.65C173.878 136.537 173.517 136.477 173.134 136.469H170.368V145H171.452V141.578ZM171.452 140.688V137.359H173.134C173.384 137.363 173.614 137.404 173.825 137.482C174.04 137.561 174.226 137.672 174.382 137.816C174.534 137.961 174.654 138.137 174.739 138.344C174.829 138.551 174.874 138.783 174.874 139.041C174.874 139.299 174.829 139.529 174.739 139.732C174.654 139.932 174.532 140.102 174.376 140.242C174.22 140.383 174.036 140.492 173.825 140.57C173.614 140.645 173.384 140.684 173.134 140.688H171.452ZM182.518 139.814L180.702 136.469H179.43L181.909 140.699L179.366 145H180.649L182.542 141.59L184.429 145H185.694L183.157 140.699L185.636 136.469H184.358L182.518 139.814ZM203.783 141.057V140.137H200.221V137.395H204.322V136.469H199.137V145H204.375V144.08H200.221V141.057H203.783ZM214.322 141.115V140.365C214.318 140.053 214.291 139.736 214.24 139.416C214.189 139.092 214.113 138.781 214.011 138.484C213.906 138.188 213.771 137.91 213.607 137.652C213.447 137.391 213.255 137.164 213.033 136.973C212.806 136.781 212.546 136.631 212.254 136.521C211.964 136.408 211.638 136.352 211.275 136.352C210.912 136.352 210.584 136.408 210.291 136.521C210.002 136.631 209.746 136.781 209.523 136.973C209.296 137.168 209.103 137.396 208.943 137.658C208.783 137.916 208.65 138.193 208.545 138.49C208.439 138.787 208.361 139.096 208.31 139.416C208.259 139.736 208.232 140.053 208.228 140.365V141.115C208.232 141.428 208.259 141.744 208.31 142.064C208.361 142.381 208.439 142.688 208.545 142.984C208.65 143.281 208.785 143.561 208.949 143.822C209.113 144.08 209.308 144.305 209.535 144.496C209.757 144.688 210.013 144.84 210.302 144.953C210.591 145.062 210.918 145.117 211.281 145.117C211.421 145.117 211.556 145.107 211.685 145.088C211.818 145.072 211.945 145.047 212.066 145.012L213.754 146.441L214.498 145.732L213.027 144.508C213.254 144.316 213.447 144.092 213.607 143.834C213.771 143.572 213.906 143.293 214.011 142.996C214.113 142.699 214.189 142.391 214.24 142.07C214.291 141.75 214.318 141.432 214.322 141.115ZM213.244 140.354V141.115C213.24 141.33 213.226 141.555 213.203 141.789C213.183 142.02 213.146 142.248 213.091 142.475C213.033 142.701 212.957 142.916 212.863 143.119C212.769 143.322 212.65 143.5 212.505 143.652C212.361 143.809 212.187 143.934 211.984 144.027C211.785 144.117 211.55 144.162 211.281 144.162C211.015 144.162 210.781 144.117 210.578 144.027C210.379 143.934 210.207 143.809 210.062 143.652C209.918 143.496 209.796 143.316 209.699 143.113C209.605 142.91 209.529 142.695 209.47 142.469C209.412 142.242 209.369 142.014 209.341 141.783C209.318 141.549 209.306 141.326 209.306 141.115V140.354C209.306 140.143 209.318 139.922 209.341 139.691C209.369 139.457 209.412 139.227 209.47 139C209.529 138.777 209.605 138.564 209.699 138.361C209.796 138.158 209.918 137.979 210.062 137.822C210.207 137.67 210.379 137.549 210.578 137.459C210.777 137.365 211.009 137.318 211.275 137.318C211.545 137.318 211.779 137.363 211.978 137.453C212.181 137.543 212.355 137.664 212.5 137.816C212.644 137.973 212.763 138.152 212.857 138.355C212.955 138.559 213.033 138.771 213.091 138.994C213.146 139.221 213.183 139.451 213.203 139.686C213.226 139.916 213.24 140.139 213.244 140.354ZM223.659 136.469H222.611L222.593 142.246C222.585 142.5 222.544 142.744 222.47 142.979C222.396 143.213 222.288 143.42 222.148 143.6C222.003 143.783 221.825 143.93 221.614 144.039C221.404 144.145 221.159 144.197 220.882 144.197C220.605 144.197 220.359 144.143 220.144 144.033C219.933 143.924 219.757 143.779 219.616 143.6C219.472 143.42 219.361 143.213 219.282 142.979C219.208 142.744 219.169 142.5 219.165 142.246L219.142 136.469H218.111L218.099 142.246C218.103 142.645 218.173 143.02 218.31 143.371C218.446 143.719 218.636 144.021 218.878 144.279C219.12 144.541 219.411 144.746 219.751 144.895C220.091 145.043 220.468 145.117 220.882 145.117C221.288 145.117 221.661 145.043 222.001 144.895C222.341 144.742 222.634 144.535 222.88 144.273C223.126 144.016 223.32 143.713 223.46 143.365C223.601 143.018 223.671 142.645 223.671 142.246L223.659 136.469ZM227.911 136.469V137.412H229.909V144.062H227.911V145H233.067V144.062H231.022V137.412H233.067V136.469H227.911ZM239.61 145H240.553L243.243 136.469H242.088L240.202 142.826L240.073 143.254L239.95 142.838L238.075 136.469H236.914L239.61 145ZM251.197 142.791L251.871 145H252.949L250.242 136.469H249.334L246.58 145H247.664L248.35 142.791H251.197ZM248.643 141.848L249.785 138.145L250.91 141.848H248.643ZM257.957 144.08V136.469H256.873V145H262.129V144.08H257.957ZM271.032 141.057V140.137H267.47V137.395H271.571V136.469H266.386V145H271.624V144.08H267.47V141.057H271.032ZM289.625 142.791L290.299 145H291.377L288.67 136.469H287.762L285.008 145H286.092L286.778 142.791H289.625ZM287.071 141.848L288.213 138.145L289.338 141.848H287.071ZM308.564 145V136.469H308.476L304.761 137.811V139.229L306.918 138.455V145H308.564ZM319.736 141.754V139.715C319.736 139.164 319.671 138.68 319.542 138.262C319.413 137.84 319.23 137.486 318.991 137.201C318.749 136.92 318.456 136.707 318.113 136.562C317.769 136.418 317.382 136.346 316.952 136.346C316.527 136.346 316.142 136.418 315.798 136.562C315.458 136.707 315.169 136.92 314.931 137.201C314.689 137.486 314.503 137.84 314.374 138.262C314.245 138.68 314.181 139.164 314.181 139.715V141.754C314.181 142.305 314.245 142.791 314.374 143.213C314.507 143.631 314.695 143.98 314.937 144.262C315.175 144.547 315.466 144.762 315.81 144.906C316.154 145.051 316.538 145.123 316.964 145.123C317.394 145.123 317.78 145.051 318.124 144.906C318.468 144.762 318.759 144.547 318.997 144.262C319.236 143.98 319.417 143.631 319.542 143.213C319.671 142.791 319.736 142.305 319.736 141.754ZM315.821 141.051C315.821 140.93 315.821 140.838 315.821 140.775C315.821 140.713 315.821 140.588 315.821 140.4V139.457C315.821 139.141 315.845 138.867 315.892 138.637C315.943 138.406 316.019 138.219 316.12 138.074C316.214 137.938 316.329 137.836 316.466 137.77C316.607 137.699 316.769 137.664 316.952 137.664C317.116 137.664 317.263 137.691 317.392 137.746C317.525 137.797 317.636 137.877 317.726 137.986C317.843 138.123 317.931 138.307 317.989 138.537C318.052 138.764 318.087 139.037 318.095 139.357L315.821 141.051ZM318.095 142C318.095 142.316 318.07 142.592 318.019 142.826C317.972 143.057 317.9 143.246 317.802 143.395C317.708 143.535 317.591 143.641 317.45 143.711C317.31 143.777 317.148 143.811 316.964 143.811C316.765 143.811 316.593 143.771 316.448 143.693C316.304 143.615 316.185 143.496 316.091 143.336C316.009 143.203 315.945 143.037 315.898 142.838C315.855 142.639 315.829 142.41 315.821 142.152L318.095 140.465C318.095 140.578 318.095 140.666 318.095 140.729C318.095 140.787 318.095 140.881 318.095 141.01V142ZM335.358 136.469H333.313V145H334.825V142.475L334.754 138.643L335.756 142.188H336.571L337.69 138.484L337.62 142.475V145H339.131V136.469H337.086L336.166 139.674L335.358 136.469ZM343.307 136.469V137.799H344.93V143.676H343.307V145H348.24V143.676H346.576V137.799H348.24V136.469H343.307ZM354.314 143.67V136.469H352.662V145H358.31V143.67H354.314ZM367.788 145V136.469H366.159V139.967H363.745V136.469H362.111V145H363.745V141.303H366.159V145H367.788ZM377.718 141.361V140.119C377.718 139.732 377.68 139.367 377.606 139.023C377.536 138.68 377.432 138.363 377.296 138.074C377.171 137.82 377.02 137.588 376.845 137.377C376.673 137.166 376.471 136.986 376.241 136.838C376.011 136.682 375.751 136.562 375.462 136.48C375.177 136.395 374.87 136.352 374.542 136.352C374.218 136.352 373.917 136.393 373.639 136.475C373.362 136.557 373.112 136.674 372.889 136.826C372.663 136.982 372.462 137.17 372.286 137.389C372.114 137.607 371.968 137.852 371.846 138.121C371.721 138.406 371.626 138.717 371.559 139.053C371.497 139.389 371.466 139.744 371.466 140.119V141.361C371.466 141.713 371.493 142.047 371.548 142.363C371.606 142.68 371.69 142.973 371.8 143.242C371.921 143.535 372.071 143.799 372.251 144.033C372.43 144.264 372.634 144.461 372.86 144.625C373.091 144.781 373.346 144.902 373.628 144.988C373.909 145.074 374.216 145.117 374.548 145.117C374.86 145.117 375.151 145.078 375.421 145C375.694 144.926 375.944 144.82 376.171 144.684C376.421 144.527 376.643 144.332 376.839 144.098C377.034 143.863 377.198 143.605 377.331 143.324C377.456 143.043 377.552 142.738 377.618 142.41C377.684 142.078 377.718 141.729 377.718 141.361ZM376.048 140.107V141.361C376.048 141.572 376.036 141.775 376.013 141.971C375.993 142.166 375.962 142.346 375.919 142.51C375.864 142.721 375.79 142.91 375.696 143.078C375.606 143.242 375.495 143.379 375.362 143.488C375.257 143.578 375.136 143.646 374.999 143.693C374.862 143.74 374.712 143.764 374.548 143.764C374.376 143.764 374.221 143.738 374.085 143.688C373.952 143.637 373.833 143.564 373.727 143.471C373.614 143.365 373.514 143.229 373.429 143.061C373.346 142.889 373.284 142.699 373.241 142.492C373.202 142.328 373.175 142.15 373.159 141.959C373.143 141.768 373.136 141.568 373.136 141.361V140.107C373.136 139.889 373.143 139.68 373.159 139.48C373.179 139.281 373.208 139.098 373.247 138.93C373.298 138.711 373.368 138.52 373.458 138.355C373.552 138.191 373.665 138.055 373.798 137.945C373.895 137.871 374.005 137.814 374.126 137.775C374.251 137.736 374.389 137.717 374.542 137.717C374.702 137.717 374.846 137.738 374.975 137.781C375.108 137.824 375.227 137.885 375.333 137.963C375.466 138.068 375.581 138.205 375.679 138.373C375.776 138.537 375.854 138.725 375.913 138.936C375.96 139.104 375.993 139.287 376.013 139.486C376.036 139.682 376.048 139.889 376.048 140.107ZM376.733 133.973L375.913 133.791C375.913 133.873 375.899 133.949 375.872 134.02C375.848 134.086 375.815 134.143 375.772 134.189C375.725 134.244 375.667 134.287 375.596 134.318C375.53 134.346 375.46 134.359 375.386 134.359C375.237 134.359 375.096 134.334 374.964 134.283C374.831 134.229 374.7 134.168 374.571 134.102C374.438 134.039 374.304 133.982 374.167 133.932C374.03 133.877 373.884 133.85 373.727 133.85C373.536 133.85 373.362 133.893 373.206 133.979C373.054 134.064 372.923 134.176 372.813 134.312C372.704 134.449 372.618 134.604 372.555 134.775C372.497 134.947 372.468 135.119 372.468 135.291L373.288 135.467C373.288 135.377 373.302 135.297 373.329 135.227C373.356 135.152 373.395 135.092 373.446 135.045C373.493 134.994 373.548 134.957 373.61 134.934C373.673 134.906 373.739 134.893 373.809 134.893C373.962 134.893 374.098 134.92 374.22 134.975C374.341 135.025 374.464 135.082 374.589 135.145C374.71 135.211 374.839 135.271 374.975 135.326C375.116 135.377 375.28 135.402 375.468 135.402C375.659 135.402 375.831 135.361 375.983 135.279C376.139 135.197 376.274 135.088 376.388 134.951C376.497 134.818 376.581 134.666 376.639 134.494C376.702 134.322 376.733 134.148 376.733 133.973ZM386.621 141.262V139.961H383.118V137.811H387.196V136.469H381.465V145H387.213V143.67H383.118V141.262H386.621ZM395.408 142.773C395.408 142.926 395.377 143.066 395.314 143.195C395.252 143.32 395.162 143.428 395.045 143.518C394.928 143.607 394.783 143.678 394.611 143.729C394.443 143.779 394.25 143.805 394.031 143.805C393.785 143.805 393.559 143.777 393.352 143.723C393.148 143.668 392.975 143.582 392.83 143.465C392.682 143.348 392.566 143.197 392.484 143.014C392.402 142.83 392.357 142.609 392.35 142.352H390.732C390.732 142.793 390.816 143.178 390.984 143.506C391.156 143.834 391.389 144.119 391.682 144.361C391.99 144.607 392.352 144.795 392.766 144.924C393.184 145.049 393.605 145.111 394.031 145.111C394.465 145.111 394.865 145.061 395.232 144.959C395.6 144.854 395.916 144.699 396.182 144.496C396.447 144.297 396.654 144.053 396.803 143.764C396.955 143.471 397.031 143.137 397.031 142.762C397.031 142.328 396.932 141.945 396.732 141.613C396.533 141.281 396.266 140.99 395.93 140.74C395.707 140.588 395.463 140.453 395.197 140.336C394.932 140.219 394.652 140.119 394.359 140.037C394.086 139.963 393.84 139.883 393.621 139.797C393.406 139.711 393.223 139.615 393.07 139.51C392.918 139.408 392.801 139.293 392.719 139.164C392.641 139.035 392.602 138.891 392.602 138.73C392.602 138.578 392.631 138.438 392.689 138.309C392.752 138.176 392.842 138.061 392.959 137.963C393.076 137.869 393.219 137.797 393.387 137.746C393.559 137.691 393.754 137.664 393.973 137.664C394.211 137.664 394.418 137.697 394.594 137.764C394.773 137.826 394.924 137.914 395.045 138.027C395.162 138.145 395.25 138.283 395.309 138.443C395.371 138.604 395.406 138.779 395.414 138.971H397.02C397.02 138.588 396.945 138.236 396.797 137.916C396.648 137.596 396.441 137.318 396.176 137.084C395.91 136.854 395.592 136.674 395.221 136.545C394.854 136.416 394.447 136.352 394.002 136.352C393.572 136.352 393.174 136.408 392.807 136.521C392.439 136.631 392.121 136.789 391.852 136.996C391.582 137.203 391.371 137.453 391.219 137.746C391.066 138.039 390.99 138.365 390.99 138.725C390.99 139.037 391.047 139.326 391.16 139.592C391.277 139.857 391.449 140.1 391.676 140.318C391.902 140.537 392.193 140.738 392.549 140.922C392.908 141.105 393.324 141.262 393.797 141.391C394.102 141.473 394.355 141.562 394.559 141.66C394.766 141.754 394.934 141.857 395.062 141.971C395.188 142.088 395.275 142.213 395.326 142.346C395.381 142.479 395.408 142.621 395.408 142.773ZM410.157 145H412.448C412.827 145 413.183 144.953 413.515 144.859C413.851 144.766 414.157 144.631 414.435 144.455C414.673 144.307 414.892 144.123 415.091 143.904C415.29 143.682 415.464 143.439 415.612 143.178C415.769 142.885 415.89 142.562 415.976 142.211C416.062 141.859 416.105 141.486 416.105 141.092V140.389C416.105 139.979 416.058 139.592 415.964 139.229C415.874 138.865 415.745 138.533 415.577 138.232C415.433 137.986 415.263 137.76 415.068 137.553C414.876 137.342 414.657 137.164 414.411 137.02C414.13 136.844 413.818 136.709 413.474 136.615C413.13 136.518 412.761 136.469 412.366 136.469H410.157V145ZM411.816 137.805H412.366C412.566 137.805 412.749 137.828 412.917 137.875C413.089 137.918 413.245 137.98 413.386 138.062C413.57 138.172 413.73 138.312 413.866 138.484C414.007 138.656 414.12 138.852 414.206 139.07C414.277 139.254 414.329 139.457 414.364 139.68C414.404 139.898 414.423 140.131 414.423 140.377V141.092C414.423 141.354 414.404 141.598 414.364 141.824C414.329 142.047 414.277 142.25 414.206 142.434C414.12 142.645 414.017 142.83 413.896 142.99C413.779 143.146 413.646 143.275 413.497 143.377C413.353 143.475 413.193 143.549 413.017 143.6C412.841 143.65 412.652 143.676 412.448 143.676H411.816V137.805ZM425.05 141.262V139.961H421.546V137.811H425.624V136.469H419.893V145H425.641V143.67H421.546V141.262H425.05ZM441.006 145H442.682L445.266 136.469H443.449L441.996 142.035L441.838 142.615L441.691 142.041L440.244 136.469H438.428L441.006 145ZM454.574 141.361V140.119C454.574 139.732 454.537 139.367 454.462 139.023C454.392 138.68 454.289 138.363 454.152 138.074C454.027 137.82 453.877 137.588 453.701 137.377C453.529 137.166 453.328 136.986 453.097 136.838C452.867 136.682 452.607 136.562 452.318 136.48C452.033 136.395 451.726 136.352 451.398 136.352C451.074 136.352 450.773 136.393 450.496 136.475C450.218 136.557 449.968 136.674 449.746 136.826C449.519 136.982 449.318 137.17 449.142 137.389C448.97 137.607 448.824 137.852 448.703 138.121C448.578 138.406 448.482 138.717 448.416 139.053C448.353 139.389 448.322 139.744 448.322 140.119V141.361C448.322 141.713 448.349 142.047 448.404 142.363C448.462 142.68 448.546 142.973 448.656 143.242C448.777 143.535 448.927 143.799 449.107 144.033C449.287 144.264 449.49 144.461 449.716 144.625C449.947 144.781 450.203 144.902 450.484 144.988C450.765 145.074 451.072 145.117 451.404 145.117C451.716 145.117 452.007 145.078 452.277 145C452.55 144.926 452.8 144.82 453.027 144.684C453.277 144.527 453.5 144.332 453.695 144.098C453.89 143.863 454.054 143.605 454.187 143.324C454.312 143.043 454.408 142.738 454.474 142.41C454.541 142.078 454.574 141.729 454.574 141.361ZM452.904 140.107V141.361C452.904 141.572 452.892 141.775 452.869 141.971C452.849 142.166 452.818 142.346 452.775 142.51C452.72 142.721 452.646 142.91 452.552 143.078C452.462 143.242 452.351 143.379 452.218 143.488C452.113 143.578 451.992 143.646 451.855 143.693C451.718 143.74 451.568 143.764 451.404 143.764C451.232 143.764 451.078 143.738 450.941 143.688C450.808 143.637 450.689 143.564 450.584 143.471C450.47 143.365 450.371 143.229 450.285 143.061C450.203 142.889 450.14 142.699 450.097 142.492C450.058 142.328 450.031 142.15 450.015 141.959C450 141.768 449.992 141.568 449.992 141.361V140.107C449.992 139.889 450 139.68 450.015 139.48C450.035 139.281 450.064 139.098 450.103 138.93C450.154 138.711 450.224 138.52 450.314 138.355C450.408 138.191 450.521 138.055 450.654 137.945C450.752 137.871 450.861 137.814 450.982 137.775C451.107 137.736 451.246 137.717 451.398 137.717C451.558 137.717 451.703 137.738 451.832 137.781C451.964 137.824 452.084 137.885 452.189 137.963C452.322 138.068 452.437 138.205 452.535 138.373C452.632 138.537 452.711 138.725 452.769 138.936C452.816 139.104 452.849 139.287 452.869 139.486C452.892 139.682 452.904 139.889 452.904 140.107ZM464.497 137.811V136.469H457.618V137.811H460.214V145H461.866V137.811H464.497ZM473.788 141.361V140.119C473.788 139.732 473.751 139.367 473.677 139.023C473.606 138.68 473.503 138.363 473.366 138.074C473.241 137.82 473.091 137.588 472.915 137.377C472.743 137.166 472.542 136.986 472.311 136.838C472.081 136.682 471.821 136.562 471.532 136.48C471.247 136.395 470.94 136.352 470.612 136.352C470.288 136.352 469.987 136.393 469.71 136.475C469.432 136.557 469.182 136.674 468.96 136.826C468.733 136.982 468.532 137.17 468.356 137.389C468.184 137.607 468.038 137.852 467.917 138.121C467.792 138.406 467.696 138.717 467.63 139.053C467.567 139.389 467.536 139.744 467.536 140.119V141.361C467.536 141.713 467.563 142.047 467.618 142.363C467.677 142.68 467.761 142.973 467.87 143.242C467.991 143.535 468.141 143.799 468.321 144.033C468.501 144.264 468.704 144.461 468.93 144.625C469.161 144.781 469.417 144.902 469.698 144.988C469.979 145.074 470.286 145.117 470.618 145.117C470.93 145.117 471.221 145.078 471.491 145C471.764 144.926 472.014 144.82 472.241 144.684C472.491 144.527 472.714 144.332 472.909 144.098C473.104 143.863 473.268 143.605 473.401 143.324C473.526 143.043 473.622 142.738 473.688 142.41C473.755 142.078 473.788 141.729 473.788 141.361ZM472.118 140.107V141.361C472.118 141.572 472.106 141.775 472.083 141.971C472.063 142.166 472.032 142.346 471.989 142.51C471.934 142.721 471.86 142.91 471.766 143.078C471.677 143.242 471.565 143.379 471.432 143.488C471.327 143.578 471.206 143.646 471.069 143.693C470.932 143.74 470.782 143.764 470.618 143.764C470.446 143.764 470.292 143.738 470.155 143.688C470.022 143.637 469.903 143.564 469.798 143.471C469.684 143.365 469.585 143.229 469.499 143.061C469.417 142.889 469.354 142.699 469.311 142.492C469.272 142.328 469.245 142.15 469.229 141.959C469.214 141.768 469.206 141.568 469.206 141.361V140.107C469.206 139.889 469.214 139.68 469.229 139.48C469.249 139.281 469.278 139.098 469.317 138.93C469.368 138.711 469.438 138.52 469.528 138.355C469.622 138.191 469.735 138.055 469.868 137.945C469.966 137.871 470.075 137.814 470.196 137.775C470.321 137.736 470.46 137.717 470.612 137.717C470.772 137.717 470.917 137.738 471.046 137.781C471.179 137.824 471.298 137.885 471.403 137.963C471.536 138.068 471.651 138.205 471.749 138.373C471.846 138.537 471.925 138.725 471.983 138.936C472.03 139.104 472.063 139.287 472.083 139.486C472.106 139.682 472.118 139.889 472.118 140.107ZM481.871 142.773C481.871 142.926 481.84 143.066 481.778 143.195C481.715 143.32 481.625 143.428 481.508 143.518C481.391 143.607 481.246 143.678 481.075 143.729C480.907 143.779 480.713 143.805 480.495 143.805C480.248 143.805 480.022 143.777 479.815 143.723C479.612 143.668 479.438 143.582 479.293 143.465C479.145 143.348 479.03 143.197 478.948 143.014C478.866 142.83 478.821 142.609 478.813 142.352H477.196C477.196 142.793 477.28 143.178 477.448 143.506C477.62 143.834 477.852 144.119 478.145 144.361C478.454 144.607 478.815 144.795 479.229 144.924C479.647 145.049 480.069 145.111 480.495 145.111C480.928 145.111 481.329 145.061 481.696 144.959C482.063 144.854 482.379 144.699 482.645 144.496C482.911 144.297 483.118 144.053 483.266 143.764C483.418 143.471 483.495 143.137 483.495 142.762C483.495 142.328 483.395 141.945 483.196 141.613C482.996 141.281 482.729 140.99 482.393 140.74C482.17 140.588 481.926 140.453 481.661 140.336C481.395 140.219 481.116 140.119 480.823 140.037C480.549 139.963 480.303 139.883 480.084 139.797C479.87 139.711 479.686 139.615 479.534 139.51C479.381 139.408 479.264 139.293 479.182 139.164C479.104 139.035 479.065 138.891 479.065 138.73C479.065 138.578 479.094 138.438 479.153 138.309C479.215 138.176 479.305 138.061 479.422 137.963C479.539 137.869 479.682 137.797 479.85 137.746C480.022 137.691 480.217 137.664 480.436 137.664C480.674 137.664 480.881 137.697 481.057 137.764C481.237 137.826 481.387 137.914 481.508 138.027C481.625 138.145 481.713 138.283 481.772 138.443C481.834 138.604 481.87 138.779 481.877 138.971H483.483C483.483 138.588 483.409 138.236 483.26 137.916C483.112 137.596 482.905 137.318 482.639 137.084C482.373 136.854 482.055 136.674 481.684 136.545C481.317 136.416 480.911 136.352 480.465 136.352C480.036 136.352 479.637 136.408 479.27 136.521C478.903 136.631 478.584 136.789 478.315 136.996C478.045 137.203 477.834 137.453 477.682 137.746C477.53 138.039 477.454 138.365 477.454 138.725C477.454 139.037 477.51 139.326 477.623 139.592C477.741 139.857 477.913 140.1 478.139 140.318C478.366 140.537 478.657 140.738 479.012 140.922C479.371 141.105 479.788 141.262 480.26 141.391C480.565 141.473 480.819 141.562 481.022 141.66C481.229 141.754 481.397 141.857 481.526 141.971C481.651 142.088 481.739 142.213 481.789 142.346C481.844 142.479 481.871 142.621 481.871 142.773ZM498.648 145H500.324L502.908 136.469H501.091L499.638 142.035L499.48 142.615L499.334 142.041L497.886 136.469H496.07L498.648 145ZM510.458 143.219L510.956 145H512.691L509.948 136.469H508.454L505.659 145H507.394L507.898 143.219H510.458ZM508.302 141.818L509.198 138.678L510.072 141.818H508.302ZM509.614 134.318L508.519 135.953H509.784L511.407 134.318H509.614ZM517.634 143.67V136.469H515.981V145H521.63V143.67H517.634ZM525.84 136.469V137.799H527.463V143.676H525.84V145H530.774V143.676H529.11V137.799H530.774V136.469H525.84ZM535.049 145H537.34C537.719 145 538.074 144.953 538.406 144.859C538.742 144.766 539.049 144.631 539.326 144.455C539.564 144.307 539.783 144.123 539.982 143.904C540.182 143.682 540.355 143.439 540.504 143.178C540.66 142.885 540.781 142.562 540.867 142.211C540.953 141.859 540.996 141.486 540.996 141.092V140.389C540.996 139.979 540.949 139.592 540.855 139.229C540.766 138.865 540.637 138.533 540.469 138.232C540.324 137.986 540.154 137.76 539.959 137.553C539.768 137.342 539.549 137.164 539.303 137.02C539.021 136.844 538.709 136.709 538.365 136.615C538.021 136.518 537.652 136.469 537.258 136.469H535.049V145ZM536.707 137.805H537.258C537.457 137.805 537.641 137.828 537.809 137.875C537.98 137.918 538.137 137.98 538.277 138.062C538.461 138.172 538.621 138.312 538.758 138.484C538.898 138.656 539.012 138.852 539.098 139.07C539.168 139.254 539.221 139.457 539.256 139.68C539.295 139.898 539.314 140.131 539.314 140.377V141.092C539.314 141.354 539.295 141.598 539.256 141.824C539.221 142.047 539.168 142.25 539.098 142.434C539.012 142.645 538.908 142.83 538.787 142.99C538.67 143.146 538.537 143.275 538.389 143.377C538.244 143.475 538.084 143.549 537.908 143.6C537.732 143.65 537.543 143.676 537.34 143.676H536.707V137.805ZM550.644 141.361V140.119C550.644 139.732 550.607 139.367 550.533 139.023C550.462 138.68 550.359 138.363 550.222 138.074C550.097 137.82 549.947 137.588 549.771 137.377C549.599 137.166 549.398 136.986 549.168 136.838C548.937 136.682 548.677 136.562 548.388 136.48C548.103 136.395 547.796 136.352 547.468 136.352C547.144 136.352 546.843 136.393 546.566 136.475C546.289 136.557 546.039 136.674 545.816 136.826C545.589 136.982 545.388 137.17 545.212 137.389C545.041 137.607 544.894 137.852 544.773 138.121C544.648 138.406 544.552 138.717 544.486 139.053C544.423 139.389 544.392 139.744 544.392 140.119V141.361C544.392 141.713 544.42 142.047 544.474 142.363C544.533 142.68 544.617 142.973 544.726 143.242C544.847 143.535 544.998 143.799 545.177 144.033C545.357 144.264 545.56 144.461 545.787 144.625C546.017 144.781 546.273 144.902 546.554 144.988C546.836 145.074 547.142 145.117 547.474 145.117C547.787 145.117 548.078 145.078 548.347 145C548.621 144.926 548.871 144.82 549.097 144.684C549.347 144.527 549.57 144.332 549.765 144.098C549.961 143.863 550.125 143.605 550.257 143.324C550.382 143.043 550.478 142.738 550.545 142.41C550.611 142.078 550.644 141.729 550.644 141.361ZM548.974 140.107V141.361C548.974 141.572 548.962 141.775 548.939 141.971C548.92 142.166 548.888 142.346 548.845 142.51C548.791 142.721 548.716 142.91 548.623 143.078C548.533 143.242 548.421 143.379 548.289 143.488C548.183 143.578 548.062 143.646 547.925 143.693C547.789 143.74 547.638 143.764 547.474 143.764C547.302 143.764 547.148 143.738 547.011 143.688C546.879 143.637 546.759 143.564 546.654 143.471C546.541 143.365 546.441 143.229 546.355 143.061C546.273 142.889 546.211 142.699 546.168 142.492C546.129 142.328 546.101 142.15 546.086 141.959C546.07 141.768 546.062 141.568 546.062 141.361V140.107C546.062 139.889 546.07 139.68 546.086 139.48C546.105 139.281 546.134 139.098 546.173 138.93C546.224 138.711 546.295 138.52 546.384 138.355C546.478 138.191 546.591 138.055 546.724 137.945C546.822 137.871 546.931 137.814 547.052 137.775C547.177 137.736 547.316 137.717 547.468 137.717C547.629 137.717 547.773 137.738 547.902 137.781C548.035 137.824 548.154 137.885 548.259 137.963C548.392 138.068 548.507 138.205 548.605 138.373C548.703 138.537 548.781 138.725 548.839 138.936C548.886 139.104 548.92 139.287 548.939 139.486C548.962 139.682 548.974 139.889 548.974 140.107ZM558.728 142.773C558.728 142.926 558.697 143.066 558.634 143.195C558.572 143.32 558.482 143.428 558.364 143.518C558.247 143.607 558.103 143.678 557.931 143.729C557.763 143.779 557.57 143.805 557.351 143.805C557.105 143.805 556.878 143.777 556.671 143.723C556.468 143.668 556.294 143.582 556.15 143.465C556.001 143.348 555.886 143.197 555.804 143.014C555.722 142.83 555.677 142.609 555.669 142.352H554.052C554.052 142.793 554.136 143.178 554.304 143.506C554.476 143.834 554.708 144.119 555.001 144.361C555.31 144.607 555.671 144.795 556.085 144.924C556.503 145.049 556.925 145.111 557.351 145.111C557.784 145.111 558.185 145.061 558.552 144.959C558.919 144.854 559.236 144.699 559.501 144.496C559.767 144.297 559.974 144.053 560.122 143.764C560.275 143.471 560.351 143.137 560.351 142.762C560.351 142.328 560.251 141.945 560.052 141.613C559.853 141.281 559.585 140.99 559.249 140.74C559.027 140.588 558.782 140.453 558.517 140.336C558.251 140.219 557.972 140.119 557.679 140.037C557.405 139.963 557.159 139.883 556.941 139.797C556.726 139.711 556.542 139.615 556.39 139.51C556.238 139.408 556.12 139.293 556.038 139.164C555.96 139.035 555.921 138.891 555.921 138.73C555.921 138.578 555.95 138.438 556.009 138.309C556.072 138.176 556.161 138.061 556.279 137.963C556.396 137.869 556.538 137.797 556.706 137.746C556.878 137.691 557.073 137.664 557.292 137.664C557.53 137.664 557.738 137.697 557.913 137.764C558.093 137.826 558.243 137.914 558.364 138.027C558.482 138.145 558.57 138.283 558.628 138.443C558.691 138.604 558.726 138.779 558.734 138.971H560.339C560.339 138.588 560.265 138.236 560.116 137.916C559.968 137.596 559.761 137.318 559.495 137.084C559.23 136.854 558.911 136.674 558.54 136.545C558.173 136.416 557.767 136.352 557.322 136.352C556.892 136.352 556.493 136.408 556.126 136.521C555.759 136.631 555.441 136.789 555.171 136.996C554.902 137.203 554.691 137.453 554.538 137.746C554.386 138.039 554.31 138.365 554.31 138.725C554.31 139.037 554.366 139.326 554.48 139.592C554.597 139.857 554.769 140.1 554.995 140.318C555.222 140.537 555.513 140.738 555.868 140.922C556.228 141.105 556.644 141.262 557.116 141.391C557.421 141.473 557.675 141.562 557.878 141.66C558.085 141.754 558.253 141.857 558.382 141.971C558.507 142.088 558.595 142.213 558.646 142.346C558.7 142.479 558.728 142.621 558.728 142.773ZM565.61 144.057C565.61 144.357 565.712 144.609 565.915 144.812C566.118 145.016 566.393 145.117 566.741 145.117C567.085 145.117 567.358 145.018 567.561 144.818C567.768 144.615 567.872 144.361 567.872 144.057C567.872 143.752 567.77 143.496 567.567 143.289C567.368 143.082 567.093 142.979 566.741 142.979C566.386 142.979 566.108 143.084 565.909 143.295C565.71 143.502 565.61 143.756 565.61 144.057Z" fill="#F8F7FA"/>
<path d="M1221.48 142.844C1221.48 143.078 1221.43 143.281 1221.33 143.453C1221.23 143.621 1221.1 143.76 1220.94 143.869C1220.78 143.982 1220.6 144.066 1220.39 144.121C1220.19 144.172 1219.98 144.197 1219.77 144.197C1219.5 144.197 1219.26 144.162 1219.03 144.092C1218.81 144.018 1218.61 143.908 1218.44 143.764C1218.27 143.623 1218.12 143.451 1218.02 143.248C1217.91 143.041 1217.83 142.805 1217.8 142.539H1216.69C1216.7 142.906 1216.78 143.24 1216.93 143.541C1217.08 143.838 1217.29 144.098 1217.55 144.32C1217.84 144.578 1218.18 144.775 1218.57 144.912C1218.96 145.049 1219.36 145.117 1219.77 145.117C1220.11 145.117 1220.45 145.07 1220.79 144.977C1221.13 144.879 1221.43 144.734 1221.7 144.543C1221.97 144.355 1222.19 144.119 1222.36 143.834C1222.53 143.549 1222.62 143.215 1222.62 142.832C1222.62 142.453 1222.54 142.119 1222.38 141.83C1222.22 141.541 1222.01 141.297 1221.75 141.098C1221.49 140.883 1221.2 140.707 1220.89 140.57C1220.57 140.43 1220.25 140.311 1219.94 140.213C1219.75 140.154 1219.54 140.086 1219.32 140.008C1219.11 139.93 1218.91 139.832 1218.72 139.715C1218.54 139.598 1218.38 139.455 1218.26 139.287C1218.14 139.115 1218.08 138.906 1218.07 138.66C1218.07 138.434 1218.12 138.234 1218.21 138.062C1218.3 137.891 1218.43 137.746 1218.58 137.629C1218.74 137.512 1218.91 137.424 1219.11 137.365C1219.3 137.307 1219.51 137.277 1219.71 137.277C1219.97 137.277 1220.2 137.318 1220.41 137.4C1220.61 137.479 1220.79 137.59 1220.94 137.734C1221.09 137.879 1221.21 138.053 1221.3 138.256C1221.39 138.455 1221.45 138.678 1221.48 138.924H1222.59C1222.58 138.533 1222.5 138.18 1222.34 137.863C1222.18 137.547 1221.97 137.277 1221.7 137.055C1221.44 136.832 1221.13 136.66 1220.79 136.539C1220.44 136.414 1220.09 136.352 1219.71 136.352C1219.38 136.352 1219.04 136.404 1218.71 136.51C1218.38 136.611 1218.08 136.762 1217.82 136.961C1217.56 137.16 1217.35 137.404 1217.18 137.693C1217.02 137.982 1216.94 138.311 1216.94 138.678C1216.94 139.045 1217.02 139.365 1217.18 139.639C1217.35 139.908 1217.56 140.143 1217.82 140.342C1218.07 140.537 1218.35 140.705 1218.66 140.846C1218.97 140.982 1219.28 141.1 1219.58 141.197C1219.79 141.264 1220 141.338 1220.22 141.42C1220.45 141.502 1220.66 141.604 1220.85 141.725C1221.03 141.85 1221.19 142.002 1221.3 142.182C1221.42 142.361 1221.48 142.582 1221.48 142.844ZM1231.32 141.057V140.137H1227.76V137.395H1231.86V136.469H1226.67V145H1231.91V144.08H1227.76V141.057H1231.32ZM1241.75 143.881L1241.74 140.752H1238.97V141.666H1240.7L1240.69 143.582C1240.6 143.711 1240.49 143.816 1240.36 143.898C1240.23 143.977 1240.08 144.039 1239.93 144.086C1239.78 144.133 1239.62 144.164 1239.46 144.18C1239.3 144.195 1239.14 144.201 1238.99 144.197C1238.74 144.193 1238.51 144.148 1238.3 144.062C1238.1 143.973 1237.92 143.854 1237.77 143.705C1237.61 143.557 1237.48 143.385 1237.37 143.189C1237.26 142.994 1237.17 142.787 1237.1 142.568C1237.03 142.35 1236.98 142.127 1236.94 141.9C1236.91 141.67 1236.89 141.447 1236.89 141.232V140.23C1236.89 140.02 1236.9 139.801 1236.93 139.574C1236.96 139.348 1237 139.125 1237.07 138.906C1237.13 138.688 1237.21 138.48 1237.31 138.285C1237.4 138.086 1237.53 137.912 1237.67 137.764C1237.82 137.615 1238 137.498 1238.2 137.412C1238.4 137.322 1238.62 137.277 1238.88 137.277C1239.15 137.277 1239.39 137.32 1239.59 137.406C1239.79 137.488 1239.97 137.604 1240.12 137.752C1240.26 137.9 1240.38 138.08 1240.47 138.291C1240.56 138.498 1240.63 138.725 1240.67 138.971H1241.74C1241.71 138.572 1241.61 138.213 1241.46 137.893C1241.31 137.568 1241.11 137.291 1240.86 137.061C1240.61 136.834 1240.31 136.66 1239.98 136.539C1239.64 136.414 1239.27 136.352 1238.88 136.352C1238.52 136.352 1238.19 136.404 1237.9 136.51C1237.61 136.615 1237.36 136.758 1237.13 136.938C1236.9 137.121 1236.7 137.338 1236.54 137.588C1236.37 137.834 1236.24 138.102 1236.13 138.391C1236.02 138.68 1235.94 138.982 1235.88 139.299C1235.83 139.611 1235.8 139.926 1235.8 140.242V141.232C1235.8 141.553 1235.84 141.871 1235.89 142.188C1235.96 142.5 1236.05 142.799 1236.17 143.084C1236.29 143.373 1236.43 143.641 1236.61 143.887C1236.78 144.133 1236.99 144.346 1237.22 144.525C1237.46 144.709 1237.72 144.854 1238.01 144.959C1238.31 145.061 1238.64 145.113 1238.99 145.117C1239.34 145.121 1239.67 145.082 1239.98 145C1240.3 144.922 1240.59 144.801 1240.87 144.637C1241.03 144.543 1241.18 144.434 1241.33 144.309C1241.48 144.18 1241.62 144.037 1241.75 143.881ZM1251.2 136.469H1250.15L1250.13 142.246C1250.12 142.5 1250.08 142.744 1250.01 142.979C1249.93 143.213 1249.83 143.42 1249.68 143.6C1249.54 143.783 1249.36 143.93 1249.15 144.039C1248.94 144.145 1248.7 144.197 1248.42 144.197C1248.14 144.197 1247.9 144.143 1247.68 144.033C1247.47 143.924 1247.29 143.779 1247.15 143.6C1247.01 143.42 1246.9 143.213 1246.82 142.979C1246.74 142.744 1246.71 142.5 1246.7 142.246L1246.68 136.469H1245.65L1245.64 142.246C1245.64 142.645 1245.71 143.02 1245.85 143.371C1245.98 143.719 1246.17 144.021 1246.41 144.279C1246.66 144.541 1246.95 144.746 1247.29 144.895C1247.63 145.043 1248 145.117 1248.42 145.117C1248.83 145.117 1249.2 145.043 1249.54 144.895C1249.88 144.742 1250.17 144.535 1250.42 144.273C1250.66 144.016 1250.86 143.713 1251 143.365C1251.14 143.018 1251.21 142.645 1251.21 142.246L1251.2 136.469ZM1260.79 145V136.469H1259.7L1259.68 142.832L1256.37 136.469H1255.27V145H1256.36L1256.38 138.625L1259.69 145H1260.79ZM1264.94 145H1266.92C1267.33 144.996 1267.71 144.947 1268.06 144.854C1268.42 144.76 1268.73 144.625 1269.02 144.449C1269.28 144.281 1269.52 144.078 1269.74 143.84C1269.95 143.602 1270.13 143.336 1270.27 143.043C1270.41 142.762 1270.51 142.453 1270.58 142.117C1270.65 141.781 1270.69 141.426 1270.69 141.051V140.424C1270.69 140.033 1270.65 139.666 1270.57 139.322C1270.49 138.979 1270.38 138.662 1270.24 138.373C1270.08 138.033 1269.87 137.734 1269.6 137.477C1269.33 137.215 1269.02 137.004 1268.68 136.844C1268.43 136.727 1268.15 136.637 1267.86 136.574C1267.56 136.508 1267.25 136.473 1266.92 136.469H1264.94V145ZM1266.04 137.359H1266.92C1267.19 137.363 1267.44 137.395 1267.66 137.453C1267.89 137.508 1268.09 137.586 1268.28 137.688C1268.54 137.824 1268.75 138.004 1268.93 138.227C1269.11 138.445 1269.25 138.691 1269.36 138.965C1269.44 139.176 1269.5 139.404 1269.54 139.65C1269.58 139.893 1269.6 140.146 1269.61 140.412V141.051C1269.6 141.312 1269.58 141.564 1269.54 141.807C1269.5 142.045 1269.45 142.268 1269.37 142.475C1269.28 142.729 1269.15 142.959 1269 143.166C1268.85 143.369 1268.66 143.541 1268.45 143.682C1268.25 143.818 1268.03 143.924 1267.77 143.998C1267.51 144.072 1267.23 144.111 1266.92 144.115H1266.04V137.359ZM1280.21 141.227V140.254C1280.21 139.949 1280.18 139.641 1280.13 139.328C1280.08 139.016 1280.01 138.715 1279.91 138.426C1279.8 138.137 1279.67 137.867 1279.51 137.617C1279.35 137.363 1279.16 137.143 1278.94 136.955C1278.73 136.768 1278.47 136.621 1278.19 136.516C1277.9 136.406 1277.59 136.352 1277.23 136.352C1276.88 136.352 1276.56 136.406 1276.28 136.516C1276 136.621 1275.75 136.768 1275.53 136.955C1275.31 137.146 1275.12 137.369 1274.96 137.623C1274.8 137.873 1274.68 138.143 1274.57 138.432C1274.47 138.721 1274.39 139.021 1274.34 139.334C1274.29 139.643 1274.27 139.949 1274.26 140.254V141.227C1274.27 141.531 1274.29 141.838 1274.35 142.146C1274.4 142.455 1274.47 142.754 1274.58 143.043C1274.68 143.332 1274.81 143.604 1274.97 143.857C1275.13 144.107 1275.32 144.326 1275.54 144.514C1275.76 144.701 1276.01 144.85 1276.29 144.959C1276.58 145.064 1276.89 145.117 1277.25 145.117C1277.6 145.117 1277.91 145.064 1278.19 144.959C1278.48 144.85 1278.73 144.701 1278.95 144.514C1279.17 144.326 1279.36 144.107 1279.51 143.857C1279.67 143.607 1279.8 143.338 1279.91 143.049C1280.01 142.76 1280.08 142.461 1280.13 142.152C1280.18 141.84 1280.21 141.531 1280.21 141.227ZM1279.14 140.242V141.227C1279.13 141.43 1279.12 141.643 1279.1 141.865C1279.08 142.088 1279.04 142.307 1278.99 142.521C1278.93 142.74 1278.85 142.949 1278.76 143.148C1278.67 143.344 1278.55 143.516 1278.42 143.664C1278.28 143.816 1278.11 143.938 1277.91 144.027C1277.72 144.117 1277.5 144.162 1277.25 144.162C1276.99 144.162 1276.77 144.117 1276.58 144.027C1276.39 143.938 1276.22 143.816 1276.08 143.664C1275.94 143.516 1275.82 143.342 1275.73 143.143C1275.63 142.943 1275.56 142.734 1275.5 142.516C1275.44 142.301 1275.4 142.082 1275.37 141.859C1275.35 141.637 1275.33 141.426 1275.33 141.227V140.242C1275.33 140.043 1275.35 139.834 1275.37 139.615C1275.4 139.393 1275.44 139.172 1275.5 138.953C1275.55 138.738 1275.63 138.533 1275.72 138.338C1275.82 138.139 1275.93 137.963 1276.07 137.811C1276.21 137.662 1276.38 137.543 1276.57 137.453C1276.76 137.363 1276.98 137.318 1277.23 137.318C1277.49 137.318 1277.71 137.363 1277.9 137.453C1278.09 137.539 1278.26 137.656 1278.4 137.805C1278.54 137.957 1278.66 138.133 1278.75 138.332C1278.85 138.527 1278.92 138.732 1278.98 138.947C1279.03 139.166 1279.07 139.387 1279.1 139.609C1279.12 139.828 1279.13 140.039 1279.14 140.242ZM1299.63 137.395V136.469H1293.3V137.395H1295.94V145H1296.99V137.395H1299.63ZM1308.84 136.469H1307.79L1307.77 142.246C1307.76 142.5 1307.72 142.744 1307.65 142.979C1307.57 143.213 1307.47 143.42 1307.33 143.6C1307.18 143.783 1307 143.93 1306.79 144.039C1306.58 144.145 1306.34 144.197 1306.06 144.197C1305.78 144.197 1305.54 144.143 1305.32 144.033C1305.11 143.924 1304.94 143.779 1304.8 143.6C1304.65 143.42 1304.54 143.213 1304.46 142.979C1304.39 142.744 1304.35 142.5 1304.34 142.246L1304.32 136.469H1303.29L1303.28 142.246C1303.28 142.645 1303.35 143.02 1303.49 143.371C1303.63 143.719 1303.81 144.021 1304.06 144.279C1304.3 144.541 1304.59 144.746 1304.93 144.895C1305.27 145.043 1305.65 145.117 1306.06 145.117C1306.47 145.117 1306.84 145.043 1307.18 144.895C1307.52 144.742 1307.81 144.535 1308.06 144.273C1308.31 144.016 1308.5 143.713 1308.64 143.365C1308.78 143.018 1308.85 142.645 1308.85 142.246L1308.84 136.469ZM1315.91 141.52L1317.59 145H1318.73L1318.74 144.93L1316.93 141.285C1317.16 141.184 1317.38 141.061 1317.57 140.916C1317.77 140.771 1317.94 140.605 1318.08 140.418C1318.22 140.23 1318.33 140.021 1318.4 139.791C1318.49 139.561 1318.53 139.307 1318.53 139.029C1318.53 138.6 1318.45 138.227 1318.3 137.91C1318.15 137.59 1317.95 137.324 1317.68 137.113C1317.42 136.902 1317.11 136.744 1316.76 136.639C1316.41 136.533 1316.03 136.477 1315.63 136.469H1313.13V145H1314.21V141.52H1315.91ZM1314.21 140.629V137.359H1315.63C1315.89 137.363 1316.13 137.4 1316.35 137.471C1316.58 137.541 1316.77 137.645 1316.93 137.781C1317.09 137.922 1317.21 138.096 1317.3 138.303C1317.39 138.506 1317.44 138.744 1317.44 139.018C1317.44 139.275 1317.39 139.504 1317.3 139.703C1317.2 139.898 1317.08 140.064 1316.92 140.201C1316.75 140.338 1316.56 140.443 1316.35 140.518C1316.13 140.588 1315.9 140.625 1315.66 140.629H1314.21ZM1328.04 145V136.469H1326.94L1326.93 142.832L1323.62 136.469H1322.52V145H1323.61L1323.63 138.625L1326.94 145H1328.04ZM1337.85 141.227V140.254C1337.85 139.949 1337.82 139.641 1337.77 139.328C1337.72 139.016 1337.65 138.715 1337.55 138.426C1337.44 138.137 1337.31 137.867 1337.15 137.617C1336.99 137.363 1336.81 137.143 1336.59 136.955C1336.37 136.768 1336.12 136.621 1335.83 136.516C1335.55 136.406 1335.23 136.352 1334.88 136.352C1334.52 136.352 1334.21 136.406 1333.92 136.516C1333.64 136.621 1333.39 136.768 1333.17 136.955C1332.95 137.146 1332.76 137.369 1332.6 137.623C1332.45 137.873 1332.32 138.143 1332.22 138.432C1332.11 138.721 1332.03 139.021 1331.98 139.334C1331.93 139.643 1331.91 139.949 1331.91 140.254V141.227C1331.91 141.531 1331.94 141.838 1331.99 142.146C1332.04 142.455 1332.12 142.754 1332.22 143.043C1332.32 143.332 1332.45 143.604 1332.61 143.857C1332.77 144.107 1332.96 144.326 1333.18 144.514C1333.4 144.701 1333.65 144.85 1333.93 144.959C1334.22 145.064 1334.54 145.117 1334.89 145.117C1335.24 145.117 1335.56 145.064 1335.84 144.959C1336.12 144.85 1336.37 144.701 1336.59 144.514C1336.81 144.326 1337 144.107 1337.16 143.857C1337.32 143.607 1337.45 143.338 1337.55 143.049C1337.65 142.76 1337.72 142.461 1337.77 142.152C1337.82 141.84 1337.85 141.531 1337.85 141.227ZM1336.78 140.242V141.227C1336.78 141.43 1336.76 141.643 1336.74 141.865C1336.72 142.088 1336.68 142.307 1336.63 142.521C1336.57 142.74 1336.49 142.949 1336.4 143.148C1336.31 143.344 1336.2 143.516 1336.06 143.664C1335.92 143.816 1335.75 143.938 1335.56 144.027C1335.36 144.117 1335.14 144.162 1334.89 144.162C1334.63 144.162 1334.41 144.117 1334.22 144.027C1334.03 143.938 1333.86 143.816 1333.72 143.664C1333.58 143.516 1333.46 143.342 1333.37 143.143C1333.28 142.943 1333.2 142.734 1333.14 142.516C1333.08 142.301 1333.04 142.082 1333.01 141.859C1332.99 141.637 1332.98 141.426 1332.97 141.227V140.242C1332.98 140.043 1332.99 139.834 1333.01 139.615C1333.04 139.393 1333.08 139.172 1333.14 138.953C1333.2 138.738 1333.27 138.533 1333.36 138.338C1333.46 138.139 1333.58 137.963 1333.72 137.811C1333.86 137.662 1334.02 137.543 1334.21 137.453C1334.41 137.363 1334.63 137.318 1334.88 137.318C1335.13 137.318 1335.35 137.363 1335.54 137.453C1335.74 137.539 1335.9 137.656 1336.04 137.805C1336.18 137.957 1336.3 138.133 1336.39 138.332C1336.49 138.527 1336.56 138.732 1336.62 138.947C1336.68 139.166 1336.72 139.387 1336.74 139.609C1336.76 139.828 1336.78 140.039 1336.78 140.242Z" fill="#F8F7FA"/>
<line x1="102.5" y1="172" x2="102.5" y2="242" stroke="#F8F7FA"/>
</svg>
