<svg width="274" height="312" viewBox="0 0 274 312" fill="none" xmlns="http://www.w3.org/2000/svg">
<g clip-path="url(#clip0_21_3638)">
<path fill-rule="evenodd" clip-rule="evenodd" d="M137 23.4343C209.108 23.4343 267.564 79.6673 267.564 149.034L263.343 191.912L273.023 198.122C271.021 200.542 268.956 202.47 266.827 203.908L273.54 207.082C265.888 213.899 257.237 215.026 247.587 210.464C240.256 206.998 237.193 202.539 238.395 197.085C238.063 196.647 237.755 196.201 237.471 195.747L37.9891 195.747C40.0322 201.813 37.093 206.719 29.1715 210.464C19.5218 215.026 10.8707 213.899 3.21812 207.082L7.82288 204.906C5.1156 203.415 2.50797 201.154 0 198.122L10.5977 191.323L6.43621 149.034C6.43621 79.6673 64.8916 23.4343 137 23.4343Z" fill="#2B2B2B"/>
<path fill-rule="evenodd" clip-rule="evenodd" d="M137.012 27.5704C204.809 27.5704 259.769 82.503 259.769 150.266V189.305C259.769 257.068 204.809 312.001 137.012 312.001C69.2147 312.001 14.2544 257.068 14.2544 189.305V150.266C14.2544 82.503 69.2147 27.5704 137.012 27.5704Z" fill="#F3CBA7"/>
<path d="M101.599 160.663C109.817 160.663 116.478 151.75 116.478 140.756C116.478 129.762 109.817 120.849 101.599 120.849C93.3818 120.849 86.7202 129.762 86.7202 140.756C86.7202 151.75 93.3818 160.663 101.599 160.663Z" fill="#2B2B2B"/>
<path d="M106.874 136.57C108.909 136.57 110.56 134.915 110.56 132.872C110.56 130.83 108.909 129.175 106.874 129.175C104.839 129.175 103.188 130.83 103.188 132.872C103.188 134.915 104.839 136.57 106.874 136.57Z" fill="#F8F7FA"/>
<path d="M172.872 160.663C181.09 160.663 187.751 151.75 187.751 140.756C187.751 129.762 181.09 120.849 172.872 120.849C164.655 120.849 157.993 129.762 157.993 140.756C157.993 151.75 164.655 160.663 172.872 160.663Z" fill="#2B2B2B"/>
<path d="M178.001 136.563C180.037 136.563 181.687 134.908 181.687 132.866C181.687 130.823 180.037 129.168 178.001 129.168C175.966 129.168 174.316 130.823 174.316 132.866C174.316 134.908 175.966 136.563 178.001 136.563Z" fill="#F8F7FA"/>
<path fill-rule="evenodd" clip-rule="evenodd" d="M96.3047 231.588C96.3047 209.146 114.416 190.922 136.795 190.922C159.174 190.922 177.285 209.146 177.285 231.588H170.389C170.389 212.918 155.331 197.814 136.795 197.814C118.258 197.814 103.201 212.918 103.201 231.588H96.3047Z" fill="#2B2B2B"/>
<path d="M82.6263 161.283L71.5928 190.672C70.1793 194.435 70.7017 198.651 72.9907 201.956C75.2798 205.26 79.0444 207.233 83.065 207.233C86.8863 207.235 90.465 205.362 92.6418 202.222C94.8185 199.082 95.3163 195.075 93.9738 191.498L82.6263 161.283Z" fill="#4261EC"/>
<path fill-rule="evenodd" clip-rule="evenodd" d="M109.289 1.53776C135.59 -2.75607 156.395 4.81731 171.704 24.2579C189.891 12.0627 209.206 14.053 229.65 30.228C252.961 48.6725 266.7 80.8246 270.867 126.684C249.271 126.935 229.557 111.751 211.723 81.1321L210.455 78.9404C198.588 58.5041 187.724 44.4691 177.863 36.8352C146.282 42.8962 116.22 57.4149 87.6783 80.3924C58.5665 103.829 29.4943 110.303 0.461914 99.8153L2.3901 97.5086C14.3103 83.2249 23.1643 72.1709 28.9522 64.3465L29.1359 64.0979C55.1349 28.8629 62.4196 9.18964 109.289 1.53776Z" fill="#2B2B2B"/>
<path fill-rule="evenodd" clip-rule="evenodd" d="M1.32437 109.027C14.0797 118.507 26.5236 120.537 38.656 115.117C50.7885 109.698 57.5668 100.365 58.9911 87.1191C45.2278 90.1651 34.9962 93.1845 28.2962 96.1774C21.5963 99.1704 12.6056 103.453 1.32437 109.027Z" fill="#B8B8B8"/>
<path fill-rule="evenodd" clip-rule="evenodd" d="M229.442 93.6036C226.236 109.164 229.654 121.295 239.696 129.994C249.738 138.694 261.065 140.89 273.678 136.582C265.099 125.402 258.037 117.41 252.492 112.606C246.946 107.801 239.263 101.467 229.442 93.6036Z" fill="#B8B8B8"/>
<path fill-rule="evenodd" clip-rule="evenodd" d="M0.461914 99.6415C29.1173 87.8566 56.4577 80.0562 76.5603 69.1763C118.058 46.7168 140.668 25.5121 164.114 29.8014C165.694 30.0905 168.292 30.9902 171.906 32.5005C174.617 31.4678 176.901 30.7841 178.76 30.4495C201.631 26.3304 232.868 66.3067 270.879 126.906C249.283 127.156 229.569 111.972 211.735 81.3536L210.435 79.1048C198.041 57.7553 181.306 45.3029 171.906 38.5368C151.544 49.0779 137.346 56.0564 129.31 59.4721C116.422 64.9507 92.828 101.529 58.639 108.29C23.2144 115.296 23.2144 106.652 0.461914 99.6415Z" fill="#959595"/>
</g>
<defs>
<clipPath id="clip0_21_3638">
<rect width="274" height="312" fill="white"/>
</clipPath>
</defs>
</svg>
