<svg width="91" height="105" viewBox="0 0 91 105" fill="none" xmlns="http://www.w3.org/2000/svg">
<path fill-rule="evenodd" clip-rule="evenodd" d="M45.0852 0.484375C69.9851 0.484375 90.1704 20.6697 90.1704 45.5696V59.9149C90.1704 84.8148 69.9851 105 45.0852 105C20.1853 105 0 84.8148 0 59.9149V45.5696C0 20.6697 20.1853 0.484375 45.0852 0.484375Z" fill="#F7D2B2"/>
<path fill-rule="evenodd" clip-rule="evenodd" d="M2.86605 45.4167L2.86039 46.115L0.158787 52.9116H0V45.6546C0 37.8221 1.99726 30.4562 5.51027 24.0382C7.29611 22.3497 8.48736 22.3499 9.084 24.0389C9.97897 26.5724 2.99298 37.588 2.86605 45.4167Z" fill="#CCCCCC"/>
<path fill-rule="evenodd" clip-rule="evenodd" d="M87.3464 45.5017L87.352 46.1999L90.0536 52.9966H90.2124V45.7395C90.2124 37.9071 88.2151 30.5411 84.7021 24.1232C82.9163 22.4346 81.725 22.4348 81.1284 24.1239C80.2334 26.6574 87.2194 37.673 87.3464 45.5017Z" fill="#CCCCCC"/>
<path d="M58.7587 66.1653C58.7587 73.7186 52.6733 79.8418 45.1666 79.8418C37.6599 79.8418 31.5745 73.7186 31.5745 66.1653H58.7587Z" fill="#F8F7FA"/>
<path fill-rule="evenodd" clip-rule="evenodd" d="M21.5215 34.5925C21.0552 34.5925 20.6772 34.9705 20.6772 35.4367V43.3725C20.6772 48.2216 24.6082 52.1525 29.4572 52.1525H33.003C37.8521 52.1525 41.783 48.2216 41.783 43.3725V35.4367C41.783 34.9705 41.405 34.5925 40.9388 34.5925H21.5215ZM18.9888 35.4367C18.9888 34.038 20.1227 32.9041 21.5215 32.9041H40.9388C42.3375 32.9041 43.4715 34.038 43.4715 35.4367V43.3725C43.4715 49.1541 38.7846 53.841 33.003 53.841H29.4572C23.6757 53.841 18.9888 49.1541 18.9888 43.3725V35.4367Z" fill="#858585"/>
<path fill-rule="evenodd" clip-rule="evenodd" d="M49.6423 34.5915C49.1761 34.5915 48.7981 34.9695 48.7981 35.4358V43.3715C48.7981 48.2206 52.729 52.1515 57.5781 52.1515H61.1238C65.9729 52.1515 69.9038 48.2206 69.9038 43.3715V35.4358C69.9038 34.9695 69.5259 34.5915 69.0596 34.5915H49.6423ZM47.1096 35.4358C47.1096 34.037 48.2435 32.9031 49.6423 32.9031H69.0596C70.4584 32.9031 71.5923 34.037 71.5923 35.4358V43.3715C71.5923 49.1531 66.9054 53.84 61.1238 53.84H57.5781C51.7965 53.84 47.1096 49.1531 47.1096 43.3715V35.4358Z" fill="#858585"/>
<path fill-rule="evenodd" clip-rule="evenodd" d="M47.6172 41.1449L42.8891 41.1449L42.8891 39.4565L47.6172 39.4565L47.6172 41.1449Z" fill="#858585"/>
<path d="M32.0848 50.4048C35.1028 50.4048 37.5494 47.1298 37.5494 43.0899C37.5494 39.0499 35.1028 35.7749 32.0848 35.7749C29.0667 35.7749 26.6201 39.0499 26.6201 43.0899C26.6201 47.1298 29.0667 50.4048 32.0848 50.4048Z" fill="#2B2B2B"/>
<path d="M34.0203 41.5506C34.7679 41.5506 35.3739 40.9422 35.3739 40.1918C35.3739 39.4414 34.7679 38.833 34.0203 38.833C33.2728 38.833 32.6667 39.4414 32.6667 40.1918C32.6667 40.9422 33.2728 41.5506 34.0203 41.5506Z" fill="white"/>
<path d="M58.2564 50.4034C61.2744 50.4034 63.721 47.1283 63.721 43.0884C63.721 39.0485 61.2744 35.7734 58.2564 35.7734C55.2383 35.7734 52.7917 39.0485 52.7917 43.0884C52.7917 47.1283 55.2383 50.4034 58.2564 50.4034Z" fill="#2B2B2B"/>
<path d="M60.1487 41.5486C60.8963 41.5486 61.5023 40.9403 61.5023 40.1898C61.5023 39.4394 60.8963 38.8311 60.1487 38.8311C59.4012 38.8311 58.7952 39.4394 58.7952 40.1898C58.7952 40.9403 59.4012 41.5486 60.1487 41.5486Z" fill="white"/>
</svg>
