<svg width="76" height="77" viewBox="0 0 76 77" fill="none" xmlns="http://www.w3.org/2000/svg">
<path d="M38 76.5C58.9868 76.5 76 59.4868 76 38.5C76 17.5132 58.9868 0.5 38 0.5C17.0132 0.5 0 17.5132 0 38.5C0 59.4868 17.0132 76.5 38 76.5Z" fill="#41AA87"/>
<path d="M38.0007 68.3153C54.4673 68.3153 67.8161 54.9665 67.8161 38.5C67.8161 22.0334 54.4673 8.68457 38.0007 8.68457C21.5341 8.68457 8.1853 22.0334 8.1853 38.5C8.1853 54.9665 21.5341 68.3153 38.0007 68.3153Z" fill="#48C09A"/>
<path d="M42.8228 43.9208C42.8561 42.9421 42.4777 41.9939 41.779 41.3048C41.0831 40.6269 39.8526 39.9842 38.0977 39.3766C35.9125 38.7072 34.3812 37.8971 33.5038 36.9464C32.6004 35.9508 32.1259 34.6416 32.1826 33.301C32.1244 31.8851 32.649 30.5069 33.6349 29.4849C34.6978 28.4669 36.0996 27.8736 37.5733 27.8178V24.8955H39.0508V27.8078C40.5747 27.8724 42.0046 28.5588 43.0044 29.7058C43.9322 30.8155 44.4012 32.3319 44.4012 34.2249H42.6766C42.7466 32.9205 42.3259 31.6369 41.4966 30.6247C40.6752 29.7217 39.4914 29.2318 38.2692 29.2891C37.1004 29.2179 35.9498 29.6034 35.062 30.3636C34.2794 31.1106 33.8585 32.1574 33.9072 33.2357C33.8503 34.2494 34.2365 35.2381 34.9662 35.9472C36.0341 36.7872 37.2575 37.41 38.5667 37.7799C39.8652 38.1809 41.1072 38.7444 42.2631 39.457C42.9821 39.9283 43.5743 40.5679 43.9877 41.3199C44.3906 42.1178 44.5881 43.0029 44.5626 43.8957C44.6216 45.3185 44.0825 46.7013 43.075 47.7118C41.9576 48.7311 40.51 49.3172 38.9954 49.3638V52.1054H37.533V49.3789C35.5932 49.255 34.0904 48.6458 33.0247 47.5512C31.959 46.4565 31.4278 44.9636 31.4312 43.0722H33.1709C33.0989 44.3753 33.5759 45.6491 34.4871 46.5871C35.4921 47.4881 36.8185 47.9495 38.1683 47.8675C39.3834 47.9204 40.576 47.5293 41.5218 46.7679C42.3734 46.0695 42.8535 45.0189 42.8228 43.9208Z" fill="#F2F2F2"/>
<path fill-rule="evenodd" clip-rule="evenodd" d="M36.9888 24.3091H39.6392V27.2715C41.11 27.4696 42.4665 28.194 43.4484 29.3205L43.4523 29.325L43.4562 29.3296C44.4964 30.5736 44.9896 32.2373 44.9896 34.2249V34.8113H42.0598L42.093 34.1935C42.1548 33.0405 41.7849 31.9056 41.0546 31.0082C40.3515 30.2419 39.3417 29.826 38.2986 29.8748L38.267 29.8763L38.2355 29.8744C37.2237 29.8128 36.2278 30.1445 35.4575 30.7987C34.8045 31.4282 34.4542 32.3059 34.495 33.2093L34.4963 33.2389L34.4946 33.2686C34.4479 34.1023 34.7611 34.9163 35.3556 35.5058C36.3572 36.2885 37.5027 36.8693 38.7281 37.2156L38.7349 37.2175L38.7417 37.2196C40.0874 37.6352 41.3747 38.2193 42.5728 38.9578L42.5797 38.9621L42.5865 38.9665C43.3856 39.4903 44.0438 40.2012 44.5035 41.0373L44.5085 41.0463L44.5131 41.0555C44.9568 41.9344 45.176 42.9086 45.1513 43.892C45.2111 45.4714 44.6102 47.0046 43.4922 48.1259L43.4824 48.1357L43.4721 48.1451C42.3917 49.1306 41.0292 49.7453 39.5837 49.9091V52.6918H36.9485V49.9155C35.1558 49.7106 33.6902 49.0734 32.6065 47.9602C31.4098 46.7311 30.8431 45.0772 30.8467 43.0712L30.8477 42.4858H33.7926L33.7584 43.1046C33.6958 44.237 34.1075 45.3446 34.8956 46.1639C35.7818 46.9512 36.9478 47.3542 38.1347 47.2821L38.1652 47.2803L38.1958 47.2816C39.2678 47.3283 40.3197 46.9835 41.1539 46.3127C41.8644 45.7291 42.2641 44.8525 42.2386 43.9372L42.2381 43.9191L42.2387 43.9009C42.2663 43.087 41.952 42.2979 41.3705 41.7236C40.7712 41.1405 39.6462 40.5335 37.9177 39.9342C35.7042 39.255 34.0565 38.4078 33.0748 37.3441L33.0731 37.3423L33.0714 37.3404C32.0701 36.2369 31.5412 34.7872 31.5976 33.3006C31.5399 31.7328 32.1236 30.2089 33.2148 29.0777L33.2228 29.0694L33.2312 29.0613C34.2614 28.0748 35.5811 27.4519 36.9888 27.2774V24.3091ZM38.1617 25.4819V28.3825L37.5974 28.4038C36.2706 28.4541 35.0089 28.9868 34.0509 29.9004C33.1811 30.8064 32.7191 32.0253 32.7704 33.2769L32.7714 33.3014L32.7704 33.3258C32.7203 34.5111 33.1394 35.6691 33.9383 36.5505C34.7104 37.3858 36.1213 38.1572 38.2715 38.8159L38.2816 38.819L38.2915 38.8225C40.066 39.4368 41.3984 40.1136 42.1901 40.8847L42.1914 40.886L42.1927 40.8873C43.0035 41.6869 43.445 42.7861 43.4114 43.9226C43.4414 45.1959 42.8823 46.4121 41.8956 47.2213L41.8935 47.223L41.8915 47.2246C40.8424 48.0692 39.522 48.5058 38.1754 48.4546C36.6799 48.5373 35.212 48.0228 34.0976 47.0237L34.0825 47.0102L34.0684 46.9957C33.1882 46.0896 32.6677 44.9044 32.5896 43.6587H32.0375C32.134 45.1462 32.6177 46.2905 33.4468 47.1421C34.3858 48.1066 35.7366 48.6764 37.5723 48.7936L38.1213 48.8287V51.519H38.4109V48.7951L38.9793 48.7777C40.3496 48.7355 41.6591 48.2069 42.6714 47.288C43.5574 46.394 44.0306 45.1742 43.9786 43.92L43.9778 43.8995L43.9784 43.8789C44.001 43.0871 43.8267 42.302 43.4708 41.5934C43.1052 40.9319 42.5834 40.3684 41.9502 39.9518C40.8405 39.2685 39.6484 38.7277 38.4022 38.3422C37.0219 37.9512 35.7319 37.2941 34.6055 36.4081L34.5814 36.3891L34.5594 36.3677C33.7153 35.5474 33.2648 34.4059 33.3221 33.2326C33.2747 31.995 33.7613 30.7963 34.659 29.9394L34.6705 29.9284L34.6825 29.9181C35.6782 29.0656 36.9658 28.6303 38.2753 28.7019C39.6604 28.6463 41.0002 29.2053 41.9323 30.2301L41.9425 30.2413L41.9521 30.253C42.7426 31.2179 43.1994 32.4049 43.2644 33.6385H43.8002C43.713 32.1283 43.2825 30.9526 42.5603 30.0866C41.6667 29.0639 40.3896 28.4514 39.028 28.3937L38.4664 28.3699V25.4819H38.1617Z" fill="#F8F7FA"/>
</svg>
