<svg width="99" height="98" viewBox="0 0 99 98" fill="none" xmlns="http://www.w3.org/2000/svg">
<path fill-rule="evenodd" clip-rule="evenodd" d="M49.0229 0.933105C72.1194 0.933105 90.8428 19.6565 90.8428 42.753V56.0594C90.8428 79.1559 72.1194 97.8793 49.0229 97.8793C25.9264 97.8793 7.203 79.1559 7.203 56.0594V42.753C7.203 19.6565 25.9264 0.933105 49.0229 0.933105Z" fill="#F7D2B2"/>
<path d="M6.93923 44.1008C10.7717 45.8071 17.4292 39.2151 21.8093 29.3772C26.1895 19.5393 26.6334 10.1809 22.801 8.47457C18.9686 6.76825 12.311 13.3602 7.93087 23.1981C3.55077 33.036 3.10679 42.3945 6.93923 44.1008Z" fill="#D8D8D8"/>
<path d="M91.1712 44.1007C87.3388 45.807 80.6812 39.2151 76.301 29.3772C71.9209 19.5393 71.4769 10.1808 75.3094 8.47455C79.1418 6.76824 85.7994 13.3602 90.1795 23.1981C94.5597 33.036 95.0037 42.3944 91.1712 44.1007Z" fill="#D8D8D8"/>
<path d="M61.5505 61.8574C61.5505 68.8637 55.9058 74.5434 48.9428 74.5434C41.9797 74.5434 36.3351 68.8637 36.3351 61.8574H61.5505Z" fill="#F8F7FA"/>
<path fill-rule="evenodd" clip-rule="evenodd" d="M28.0319 33.0405C27.5994 33.0405 27.2488 33.3911 27.2488 33.8236V40.5582C27.2488 44.71 30.6146 48.0758 34.7664 48.0758H37.4289C41.5808 48.0758 44.9466 44.71 44.9466 40.5582V33.8236C44.9466 33.3911 44.596 33.0405 44.1635 33.0405H28.0319ZM25.6826 33.8236C25.6826 32.5262 26.7344 31.4744 28.0319 31.4744H44.1635C45.4609 31.4744 46.5127 32.5262 46.5127 33.8236V40.5582C46.5127 45.575 42.4458 49.642 37.4289 49.642H34.7664C29.7496 49.642 25.6826 45.575 25.6826 40.5582V33.8236Z" fill="#4F4F4F"/>
<path fill-rule="evenodd" clip-rule="evenodd" d="M53.7153 33.0398C53.2829 33.0398 52.9323 33.3904 52.9323 33.8229V40.5574C52.9323 44.7093 56.298 48.0751 60.4499 48.0751H63.1124C67.2643 48.0751 70.63 44.7093 70.63 40.5574V33.8229C70.63 33.3904 70.2794 33.0398 69.8469 33.0398H53.7153ZM51.3661 33.8229C51.3661 32.5254 52.4179 31.4736 53.7153 31.4736H69.8469C71.1444 31.4736 72.1962 32.5254 72.1962 33.8229V40.5574C72.1962 45.5743 68.1292 49.6412 63.1124 49.6412H60.4499C55.433 49.6412 51.3661 45.5743 51.3661 40.5574V33.8229Z" fill="#4F4F4F"/>
<path fill-rule="evenodd" clip-rule="evenodd" d="M52.1539 36.9944L45.7326 37.0335L45.723 35.4674L52.1443 35.4282L52.1539 36.9944Z" fill="#4F4F4F"/>
<path d="M36.8084 47.0804C39.6078 47.0804 41.8772 44.0425 41.8772 40.2952C41.8772 36.5478 39.6078 33.51 36.8084 33.51C34.0089 33.51 31.7395 36.5478 31.7395 40.2952C31.7395 44.0425 34.0089 47.0804 36.8084 47.0804Z" fill="#2B2B2B"/>
<path d="M38.6024 38.8684C39.2958 38.8684 39.8579 38.3041 39.8579 37.608C39.8579 36.9119 39.2958 36.3477 38.6024 36.3477C37.9089 36.3477 37.3468 36.9119 37.3468 37.608C37.3468 38.3041 37.9089 38.8684 38.6024 38.8684Z" fill="white"/>
<path d="M61.0842 47.0799C63.8837 47.0799 66.1531 44.042 66.1531 40.2947C66.1531 36.5473 63.8837 33.5095 61.0842 33.5095C58.2848 33.5095 56.0154 36.5473 56.0154 40.2947C56.0154 44.042 58.2848 47.0799 61.0842 47.0799Z" fill="#2B2B2B"/>
<path d="M62.8381 38.8662C63.5315 38.8662 64.0936 38.3019 64.0936 37.6058C64.0936 36.9097 63.5315 36.3455 62.8381 36.3455C62.1446 36.3455 61.5825 36.9097 61.5825 37.6058C61.5825 38.3019 62.1446 38.8662 62.8381 38.8662Z" fill="white"/>
</svg>
