<svg width="90" height="109" viewBox="0 0 90 109" fill="none" xmlns="http://www.w3.org/2000/svg">
<g clip-path="url(#clip0_21_1347)">
<path fill-rule="evenodd" clip-rule="evenodd" d="M44.9192 6.46045C69.7274 6.46045 89.8384 26.2641 89.8384 50.6932V64.7672C89.8384 89.1963 69.7274 109 44.9192 109C20.111 109 0 89.1963 0 64.7672V50.6932C0 26.2641 20.111 6.46045 44.9192 6.46045Z" fill="#F3CBA7"/>
<path fill-rule="evenodd" clip-rule="evenodd" d="M44.9159 0C69.7223 0 89.8318 20.1548 89.8318 45.017V47.5425H87.4715L85.8202 45.2377C85.8202 27.5772 74.702 15.7209 59.0981 9.91328L58.8532 9.98922C54.2003 11.4194 49.5474 12.1305 44.8945 12.1226C40.2416 12.1147 35.5887 11.3877 30.9358 9.94159L30.6909 9.86481C15.2191 15.5628 4.12507 27.1426 3.84334 44.5583L3.83785 45.2377L2.18637 47.5425H0V45.017C0 20.1548 20.1095 0 44.9159 0Z" fill="#795219"/>
<path fill-rule="evenodd" clip-rule="evenodd" d="M89.8384 57.813V64.7672C89.8384 89.1962 69.7274 109 44.9192 109C20.111 109 0 89.1962 0 64.7672V57.813L23.1637 64.4391L31.3212 59.4695H58.4816L67.088 64.4391L89.8384 57.813Z" fill="#795219"/>
<path d="M58.5109 66.5928C58.5109 74.0033 52.448 80.0107 44.9689 80.0107C37.4898 80.0107 31.4268 74.0033 31.4268 66.5928H58.5109Z" fill="#F8F7FA"/>
<path d="M31.9664 54.4414C34.9733 54.4414 37.4109 51.2283 37.4109 47.2648C37.4109 43.3012 34.9733 40.0881 31.9664 40.0881C28.9594 40.0881 26.5219 43.3012 26.5219 47.2648C26.5219 51.2283 28.9594 54.4414 31.9664 54.4414Z" fill="#2B2B2B"/>
<path d="M33.8922 45.7563C34.637 45.7563 35.2408 45.1594 35.2408 44.4232C35.2408 43.6869 34.637 43.0901 33.8922 43.0901C33.1474 43.0901 32.5436 43.6869 32.5436 44.4232C32.5436 45.1594 33.1474 45.7563 33.8922 45.7563Z" fill="white"/>
<path d="M58.0414 54.4414C61.0483 54.4414 63.4859 51.2283 63.4859 47.2648C63.4859 43.3012 61.0483 40.0881 58.0414 40.0881C55.0345 40.0881 52.5969 43.3012 52.5969 47.2648C52.5969 51.2283 55.0345 54.4414 58.0414 54.4414Z" fill="#2B2B2B"/>
<path d="M59.925 45.7536C60.6698 45.7536 61.2736 45.1567 61.2736 44.4205C61.2736 43.6842 60.6698 43.0874 59.925 43.0874C59.1801 43.0874 58.5764 43.6842 58.5764 44.4205C58.5764 45.1567 59.1801 45.7536 59.925 45.7536Z" fill="white"/>
</g>
<defs>
<clipPath id="clip0_21_1347">
<rect width="90" height="109" fill="white"/>
</clipPath>
</defs>
</svg>
