<svg width="94" height="131" viewBox="0 0 94 131" fill="none" xmlns="http://www.w3.org/2000/svg">
<path d="M46.7612 59.9454C63.3147 59.9454 76.7339 46.5261 76.7339 29.9727C76.7339 13.4192 63.3147 0 46.7612 0C30.2078 0 16.7886 13.4192 16.7886 29.9727C16.7886 46.5261 30.2078 59.9454 46.7612 59.9454Z" fill="#373737"/>
<path fill-rule="evenodd" clip-rule="evenodd" d="M46.7613 12.8215C72.5868 12.8215 93.5226 33.307 93.5226 58.5772V73.1358C93.5226 78.117 92.7091 82.9124 91.2051 87.4015C91.2145 87.0733 91.2204 86.7444 91.2228 86.4148L91.224 86.0848V71.9376C91.224 47.3815 71.3174 27.4748 46.7613 27.4748C22.4508 27.4748 2.69716 46.9853 2.30451 71.2023L2.29856 71.9376V86.0848C2.29856 86.5251 2.30496 86.9639 2.31767 87.4015C0.813473 82.9124 0 78.117 0 73.1358V58.5772C0 33.307 20.9357 12.8215 46.7613 12.8215Z" fill="#2B2B2B"/>
<path fill-rule="evenodd" clip-rule="evenodd" d="M46.7613 27.4751C71.3174 27.4751 91.2241 47.3817 91.2241 71.9378V86.0851C91.2241 110.641 71.3174 130.548 46.7613 130.548C22.2052 130.548 2.29858 110.641 2.29858 86.0851V71.9378C2.29858 47.3817 22.2052 27.4751 46.7613 27.4751Z" fill="#E2B288"/>
<path d="M60.0823 89.585C60.0823 97.034 54.081 103.073 46.6779 103.073C39.2748 103.073 33.2734 97.034 33.2734 89.585H60.0823Z" fill="#F8F7FA"/>
<path fill-rule="evenodd" clip-rule="evenodd" d="M51.7903 62.776C51.3305 62.776 50.9577 63.1487 50.9577 63.6086V70.9352C50.9577 75.4414 54.6107 79.0944 59.1169 79.0944H61.6147C66.1209 79.0944 69.7739 75.4414 69.7739 70.9352V63.6086C69.7739 63.1487 69.4011 62.776 68.9413 62.776H51.7903ZM49.2926 63.6086C49.2926 62.2291 50.4108 61.1108 51.7903 61.1108H68.9413C70.3208 61.1108 71.439 62.2291 71.439 63.6086V70.9352C71.439 76.3611 67.0405 80.7596 61.6147 80.7596H59.1169C53.6911 80.7596 49.2926 76.3611 49.2926 70.9352V66.153L44.1306 66.1845V70.9352C44.1306 76.3438 39.7461 80.7284 34.3375 80.7284H31.7773C26.3687 80.7284 21.9841 76.3438 21.9841 70.9352V63.6398C21.9841 62.2603 23.1024 61.1421 24.4819 61.1421H41.6329C43.0123 61.1421 44.1306 62.2603 44.1306 63.6398V64.5193L49.2926 64.4878V63.6086ZM24.4819 62.8072C24.022 62.8072 23.6493 63.18 23.6493 63.6398V70.9352C23.6493 75.4242 27.2883 79.0632 31.7773 79.0632H34.3375C38.8264 79.0632 42.4655 75.4242 42.4655 70.9352V63.6398C42.4655 63.18 42.0927 62.8072 41.6329 62.8072H24.4819Z" fill="#2B2B2B"/>
<path d="M33.8084 77.8701C36.7847 77.8701 39.1976 74.6403 39.1976 70.6561C39.1976 66.6719 36.7847 63.4421 33.8084 63.4421C30.832 63.4421 28.4192 66.6719 28.4192 70.6561C28.4192 74.6403 30.832 77.8701 33.8084 77.8701Z" fill="#2B2B2B"/>
<path d="M35.716 69.1395C36.4532 69.1395 37.0509 68.5396 37.0509 67.7995C37.0509 67.0594 36.4532 66.4595 35.716 66.4595C34.9788 66.4595 34.3811 67.0594 34.3811 67.7995C34.3811 68.5396 34.9788 69.1395 35.716 69.1395Z" fill="white"/>
<path d="M59.6189 77.8703C62.5953 77.8703 65.0081 74.6405 65.0081 70.6564C65.0081 66.6722 62.5953 63.4424 59.6189 63.4424C56.6426 63.4424 54.2297 66.6722 54.2297 70.6564C54.2297 74.6405 56.6426 77.8703 59.6189 77.8703Z" fill="#2B2B2B"/>
<path d="M61.4809 69.1376C62.2181 69.1376 62.8158 68.5376 62.8158 67.7975C62.8158 67.0575 62.2181 66.4575 61.4809 66.4575C60.7436 66.4575 60.146 67.0575 60.146 67.7975C60.146 68.5376 60.7436 69.1376 61.4809 69.1376Z" fill="white"/>
</svg>
