<svg width="89" height="106" viewBox="0 0 89 106" fill="none" xmlns="http://www.w3.org/2000/svg">
<path fill-rule="evenodd" clip-rule="evenodd" d="M44.3367 4.41528C68.8226 4.41528 88.6723 23.9893 88.6723 48.1352V62.0461C88.6723 86.1919 68.8226 105.766 44.3367 105.766C19.8507 105.766 0.000976562 86.1919 0.000976562 62.0461V48.1352C0.000976562 23.9893 19.8507 4.41528 44.3367 4.41528Z" fill="#F3CBA7"/>
<path fill-rule="evenodd" clip-rule="evenodd" d="M51.3852 1.79628C55.6988 2.89809 62.7945 5.14467 66.1434 8.87049C69.8359 9.97131 79.3211 16.2391 84.6056 26.5682C89.4143 35.9674 88.7479 43.6953 88.7479 49.1675V54.7634H86.6863L84.969 49.6384C84.969 47.2591 84.766 44.9267 84.376 42.6569C79.612 39.2033 76.7889 34.5515 73.0131 28.8516C69.2935 23.2365 66.5316 18.0391 64.7275 13.2595C64.2961 13.0226 64.9528 13.4107 64.5119 13.1891C54.1013 21.0526 43.5834 25.0432 35.1442 26.3959C27.6635 27.595 18.8303 27.9899 8.64475 27.5808C4.71288 33.7732 3.91613 41.3831 3.78764 49.1978L3.782 49.884L2.0645 55.0089H0V49.4131C0 41.5324 0.521983 33.8022 4.11658 27.3508C3.55826 27.3175 2.99477 27.2812 2.42748 27.2427C12.5118 14.4012 19.7249 6.92133 24.0669 4.80305C32.2246 0.823186 42.2714 -0.53166 51.3852 1.79628Z" fill="#795219"/>
<path d="M57.7823 67.1248C57.7823 74.4494 51.7981 80.3871 44.4162 80.3871C37.0343 80.3871 31.05 74.4494 31.05 67.1248H57.7823Z" fill="#F8F7FA"/>
<path d="M31.5518 55.1146C34.5196 55.1146 36.9255 51.9388 36.9255 48.0212C36.9255 44.1036 34.5196 40.9277 31.5518 40.9277C28.5839 40.9277 26.178 44.1036 26.178 48.0212C26.178 51.9388 28.5839 55.1146 31.5518 55.1146Z" fill="#2B2B2B"/>
<path d="M33.4517 46.5298C34.1868 46.5298 34.7828 45.9399 34.7828 45.2122C34.7828 44.4845 34.1868 43.8945 33.4517 43.8945C32.7165 43.8945 32.1206 44.4845 32.1206 45.2122C32.1206 45.9399 32.7165 46.5298 33.4517 46.5298Z" fill="white"/>
<path d="M57.2881 55.1146C60.256 55.1146 62.6619 51.9388 62.6619 48.0212C62.6619 44.1036 60.256 40.9277 57.2881 40.9277C54.3202 40.9277 51.9143 44.1036 51.9143 48.0212C51.9143 51.9388 54.3202 55.1146 57.2881 55.1146Z" fill="#2B2B2B"/>
<path d="M59.1519 46.5276C59.887 46.5276 60.483 45.9377 60.483 45.21C60.483 44.4823 59.887 43.8923 59.1519 43.8923C58.4167 43.8923 57.8208 44.4823 57.8208 45.21C57.8208 45.9377 58.4167 46.5276 59.1519 46.5276Z" fill="white"/>
</svg>
