<svg width="91" height="100" viewBox="0 0 91 100" fill="none" xmlns="http://www.w3.org/2000/svg">
<g clip-path="url(#clip0_60_488)">
<path fill-rule="evenodd" clip-rule="evenodd" d="M45.3439 0C68.8052 0 87.8243 19.3132 87.8243 43.1373V56.8627C87.8243 80.6868 68.8052 100 45.3439 100C21.8826 100 2.86353 80.6868 2.86353 56.8627V43.1373C2.86353 19.3132 21.8826 0 45.3439 0Z" fill="#F7D2B2"/>
<path d="M2.68212 46.8879C6.57508 48.648 13.3378 41.8484 17.7871 31.7006C22.2364 21.5528 22.6874 11.8996 18.7944 10.1395C14.9015 8.37945 8.13874 15.1791 3.68945 25.3269C-0.759847 35.4747 -1.21084 45.1279 2.68212 46.8879Z" fill="#D8D8D8"/>
<path d="M88.2468 46.8879C84.3539 48.648 77.5911 41.8484 73.1418 31.7006C68.6925 21.5528 68.2415 11.8996 72.1345 10.1395C76.0275 8.37945 82.7902 15.1791 87.2395 25.3269C91.6888 35.4747 92.1398 45.1279 88.2468 46.8879Z" fill="#D8D8D8"/>
<path opacity="0.2" d="M87.8243 50.0806V56.8625C87.8243 80.6866 68.8052 99.9998 45.3439 99.9998C21.8826 99.9998 2.86353 80.6866 2.86353 56.8625V50.0806L24.7696 56.5426L32.4842 51.6961H58.17L66.3091 56.5426L87.8243 50.0806Z" fill="#A5A5A5"/>
<path d="M58.2277 60.4199C58.2277 67.6469 52.4938 73.5055 45.4208 73.5055C38.3478 73.5055 32.614 67.6469 32.614 60.4199H58.2277Z" fill="#F8F7FA"/>
<path d="M33.0945 47.6004C35.9381 47.6004 38.2434 44.4669 38.2434 40.6015C38.2434 36.7361 35.9381 33.6025 33.0945 33.6025C30.2508 33.6025 27.9456 36.7361 27.9456 40.6015C27.9456 44.4669 30.2508 47.6004 33.0945 47.6004Z" fill="#2B2B2B"/>
<path d="M34.9163 39.1299C35.6206 39.1299 36.1916 38.5479 36.1916 37.8299C36.1916 37.1119 35.6206 36.5298 34.9163 36.5298C34.2119 36.5298 33.6409 37.1119 33.6409 37.8299C33.6409 38.5479 34.2119 39.1299 34.9163 39.1299Z" fill="white"/>
<path d="M57.7536 47.6004C60.5973 47.6004 62.9025 44.4668 62.9025 40.6015C62.9025 36.7361 60.5973 33.6025 57.7536 33.6025C54.91 33.6025 52.6047 36.7361 52.6047 40.6015C52.6047 44.4668 54.91 47.6004 57.7536 47.6004Z" fill="#2B2B2B"/>
<path d="M59.5351 39.128C60.2395 39.128 60.8105 38.5459 60.8105 37.8279C60.8105 37.1099 60.2395 36.5278 59.5351 36.5278C58.8308 36.5278 58.2598 37.1099 58.2598 37.8279C58.2598 38.5459 58.8308 39.128 59.5351 39.128Z" fill="white"/>
</g>
<defs>
<clipPath id="clip0_60_488">
<rect width="91" height="100" fill="white"/>
</clipPath>
</defs>
</svg>
