<svg width="195" height="24" viewBox="0 0 195 24" fill="none" xmlns="http://www.w3.org/2000/svg">
<path d="M5.30273 14.8027C5.30273 14.5996 5.25977 14.4219 5.17383 14.2695C5.0918 14.1133 4.97266 13.9766 4.81641 13.8594C4.66406 13.7422 4.48047 13.6406 4.26562 13.5547C4.05469 13.4648 3.82422 13.3828 3.57422 13.3086C3.23828 13.2109 2.90625 13.0898 2.57812 12.9453C2.25391 12.8008 1.96289 12.625 1.70508 12.418C1.45117 12.207 1.24414 11.9629 1.08398 11.6855C0.927734 11.4043 0.849609 11.0801 0.849609 10.7129C0.849609 10.3457 0.927734 10.0176 1.08398 9.72852C1.24414 9.43555 1.45703 9.1875 1.72266 8.98438C1.98828 8.78125 2.29688 8.625 2.64844 8.51562C3 8.40625 3.36719 8.35156 3.75 8.35156C4.16016 8.35156 4.54297 8.41602 4.89844 8.54492C5.25781 8.66992 5.57031 8.84766 5.83594 9.07812C6.10547 9.30469 6.31836 9.57812 6.47461 9.89844C6.63086 10.2148 6.71094 10.5664 6.71484 10.9531H5.30859C5.28906 10.7383 5.24219 10.543 5.16797 10.3672C5.09766 10.1875 4.99609 10.0332 4.86328 9.9043C4.73438 9.77539 4.57617 9.67578 4.38867 9.60547C4.20117 9.53516 3.98438 9.5 3.73828 9.5C3.52734 9.5 3.33203 9.52734 3.15234 9.58203C2.97266 9.63672 2.81641 9.7168 2.68359 9.82227C2.55469 9.92773 2.45312 10.0547 2.37891 10.2031C2.30469 10.3516 2.26758 10.5195 2.26758 10.707C2.26758 10.9062 2.31836 11.0801 2.41992 11.2285C2.52148 11.373 2.6543 11.5 2.81836 11.6094C2.98242 11.7188 3.16992 11.8145 3.38086 11.8965C3.5957 11.9746 3.81836 12.0469 4.04883 12.1133C4.4043 12.2188 4.74414 12.3496 5.06836 12.5059C5.39258 12.6582 5.67773 12.8438 5.92383 13.0625C6.16992 13.2773 6.36523 13.5273 6.50977 13.8125C6.6543 14.0977 6.72656 14.4238 6.72656 14.791C6.72656 15.1699 6.64648 15.5039 6.48633 15.793C6.32617 16.082 6.11133 16.3242 5.8418 16.5195C5.57227 16.7148 5.25977 16.8633 4.9043 16.9648C4.54883 17.0625 4.17773 17.1113 3.79102 17.1113C3.5293 17.1113 3.26953 17.0859 3.01172 17.0352C2.75391 16.9844 2.50586 16.9082 2.26758 16.8066C2.0332 16.7051 1.81445 16.5801 1.61133 16.4316C1.4082 16.2793 1.23047 16.1055 1.07812 15.9102C0.929688 15.7109 0.8125 15.4902 0.726562 15.248C0.640625 15.002 0.595703 14.7324 0.591797 14.4395H2.00391C2.02344 14.6973 2.08008 14.9219 2.17383 15.1133C2.26758 15.3047 2.39258 15.4648 2.54883 15.5938C2.70508 15.7188 2.88672 15.8145 3.09375 15.8809C3.30469 15.9434 3.53711 15.9746 3.79102 15.9746C4.00195 15.9746 4.19922 15.9492 4.38281 15.8984C4.56641 15.8477 4.72656 15.7734 4.86328 15.6758C5 15.5742 5.10742 15.4512 5.18555 15.3066C5.26367 15.1582 5.30273 14.9902 5.30273 14.8027ZM16.2398 14.3809C16.2008 14.791 16.1031 15.166 15.9469 15.5059C15.7906 15.8418 15.5836 16.1309 15.3258 16.373C15.068 16.6113 14.7633 16.7969 14.4117 16.9297C14.0641 17.0586 13.6754 17.123 13.2457 17.123C12.7262 17.123 12.273 17.0234 11.8863 16.8242C11.4996 16.6211 11.1773 16.3477 10.9195 16.0039C10.6617 15.6602 10.4684 15.2578 10.3395 14.7969C10.2105 14.3359 10.1441 13.8438 10.1402 13.3203V12.1543C10.1441 11.6348 10.2125 11.1445 10.3453 10.6836C10.4781 10.2188 10.6734 9.81445 10.9312 9.4707C11.193 9.12305 11.5172 8.84961 11.9039 8.65039C12.2906 8.44727 12.7398 8.3457 13.2516 8.3457C13.7008 8.3457 14.1012 8.41211 14.4527 8.54492C14.8043 8.67773 15.1051 8.86523 15.3551 9.10742C15.6051 9.34961 15.8043 9.64453 15.9527 9.99219C16.1012 10.3398 16.1969 10.7266 16.2398 11.1523H14.8336C14.8102 10.9023 14.7613 10.6758 14.6871 10.4727C14.6168 10.2656 14.5191 10.0898 14.3941 9.94531C14.2691 9.79688 14.1109 9.68359 13.9195 9.60547C13.732 9.52734 13.5094 9.48828 13.2516 9.48828C12.9352 9.48828 12.6695 9.56055 12.4547 9.70508C12.2398 9.84961 12.066 10.0449 11.9332 10.291C11.8004 10.5332 11.7047 10.8145 11.6461 11.1348C11.5914 11.4551 11.5641 11.791 11.5641 12.1426V13.3203C11.5641 13.6875 11.5914 14.0332 11.6461 14.3574C11.7047 14.6777 11.7984 14.959 11.9273 15.2012C12.0562 15.4434 12.2281 15.6348 12.443 15.7754C12.6578 15.916 12.9254 15.9863 13.2457 15.9863C13.7379 15.9863 14.1129 15.8477 14.3707 15.5703C14.6285 15.2891 14.7809 14.8926 14.8277 14.3809H16.2398ZM22.9465 13.6719H21.5168V17H20.1105V8.46875H22.8059C23.2434 8.47266 23.6457 8.5293 24.0129 8.63867C24.384 8.74414 24.7043 8.9043 24.9738 9.11914C25.2434 9.33008 25.4523 9.5957 25.6008 9.91602C25.7492 10.2363 25.8234 10.6113 25.8234 11.041C25.8234 11.3301 25.7844 11.5938 25.7062 11.832C25.632 12.0664 25.5266 12.2793 25.3898 12.4707C25.2531 12.6621 25.0891 12.8301 24.8977 12.9746C24.7062 13.1191 24.4953 13.2422 24.2648 13.3438L26.0695 16.9297V17H24.5695L22.9465 13.6719ZM21.5168 12.5352H22.8117C23.0461 12.5352 23.2609 12.502 23.4562 12.4355C23.6516 12.3691 23.8195 12.2754 23.9602 12.1543C24.1047 12.0293 24.216 11.8789 24.2941 11.7031C24.3723 11.5234 24.4113 11.3184 24.4113 11.0879C24.4113 10.8496 24.3742 10.6387 24.3 10.4551C24.2258 10.2715 24.1184 10.1172 23.9777 9.99219C23.841 9.86719 23.673 9.77344 23.4738 9.71094C23.2746 9.64453 23.052 9.60938 22.8059 9.60547H21.5168V12.5352ZM35.4773 13.2852C35.4773 13.7891 35.4129 14.2734 35.284 14.7383C35.1551 15.1992 34.9617 15.6074 34.7039 15.9629C34.45 16.3145 34.1297 16.5957 33.743 16.8066C33.3602 17.0137 32.9109 17.1172 32.3953 17.1172C31.8836 17.1172 31.4383 17.0117 31.0594 16.8008C30.6805 16.5898 30.3641 16.3086 30.1102 15.957C29.8602 15.6016 29.6707 15.1934 29.5418 14.7324C29.4168 14.2715 29.3543 13.7891 29.3543 13.2852V12.1953C29.3543 11.8594 29.3816 11.5312 29.4363 11.2109C29.4949 10.8906 29.5789 10.5898 29.6883 10.3086C29.8016 10.0234 29.9402 9.76172 30.1043 9.52344C30.2723 9.28125 30.4676 9.07422 30.6902 8.90234C30.9168 8.73047 31.1707 8.5957 31.452 8.49805C31.7371 8.40039 32.0496 8.35156 32.3895 8.35156C32.9051 8.35156 33.3543 8.45703 33.7371 8.66797C34.1238 8.87891 34.4461 9.16211 34.7039 9.51758C34.9617 9.86914 35.1551 10.2773 35.284 10.7422C35.4129 11.207 35.4773 11.6914 35.4773 12.1953V13.2852ZM34.0652 12.1836C34.0613 11.8633 34.032 11.5449 33.9773 11.2285C33.9227 10.9121 33.8309 10.6309 33.702 10.3848C33.573 10.1348 33.4012 9.93359 33.1863 9.78125C32.9754 9.625 32.7098 9.54688 32.3895 9.54688C32.073 9.54688 31.8094 9.625 31.5984 9.78125C31.3914 9.93359 31.2254 10.1348 31.1004 10.3848C30.9793 10.6348 30.8934 10.918 30.8426 11.2344C30.7957 11.5469 30.7703 11.8633 30.7664 12.1836V13.2852C30.7703 13.6055 30.7977 13.9238 30.8484 14.2402C30.8992 14.5527 30.9852 14.8359 31.1063 15.0898C31.2313 15.3398 31.3973 15.543 31.6043 15.6992C31.8152 15.8555 32.0789 15.9336 32.3953 15.9336C32.7156 15.9336 32.9813 15.8555 33.1922 15.6992C33.407 15.543 33.5789 15.3398 33.7078 15.0898C33.8367 14.8398 33.9266 14.5566 33.9773 14.2402C34.032 13.9238 34.0613 13.6055 34.0652 13.2852V12.1836ZM40.8422 15.8516H44.9086V17H39.4359V8.46875H40.8422V15.8516ZM50.4492 15.8516H54.5156V17H49.043V8.46875H50.4492V15.8516ZM73.6477 17H72.2766V13.1914H69.3762V17H68.0109V8.46875H69.3762V12.0371H72.2766V8.46875H73.6477V17ZM83.5125 13.2852C83.5125 13.7891 83.448 14.2734 83.3191 14.7383C83.1902 15.1992 82.9969 15.6074 82.7391 15.9629C82.4852 16.3145 82.1648 16.5957 81.7781 16.8066C81.3953 17.0137 80.9461 17.1172 80.4305 17.1172C79.9187 17.1172 79.4734 17.0117 79.0945 16.8008C78.7156 16.5898 78.3992 16.3086 78.1453 15.957C77.8953 15.6016 77.7059 15.1934 77.577 14.7324C77.452 14.2715 77.3895 13.7891 77.3895 13.2852V12.1953C77.3895 11.8594 77.4168 11.5312 77.4715 11.2109C77.5301 10.8906 77.6141 10.5898 77.7234 10.3086C77.8367 10.0234 77.9754 9.76172 78.1395 9.52344C78.3074 9.28125 78.5027 9.07422 78.7254 8.90234C78.952 8.73047 79.2059 8.5957 79.4871 8.49805C79.7723 8.40039 80.0848 8.35156 80.4246 8.35156C80.9402 8.35156 81.3895 8.45703 81.7723 8.66797C82.159 8.87891 82.4812 9.16211 82.7391 9.51758C82.9969 9.86914 83.1902 10.2773 83.3191 10.7422C83.448 11.207 83.5125 11.6914 83.5125 12.1953V13.2852ZM82.1004 12.1836C82.0965 11.8633 82.0672 11.5449 82.0125 11.2285C81.9578 10.9121 81.866 10.6309 81.7371 10.3848C81.6082 10.1348 81.4363 9.93359 81.2215 9.78125C81.0105 9.625 80.7449 9.54688 80.4246 9.54688C80.1082 9.54688 79.8445 9.625 79.6336 9.78125C79.4266 9.93359 79.2605 10.1348 79.1355 10.3848C79.0145 10.6348 78.9285 10.918 78.8777 11.2344C78.8309 11.5469 78.8055 11.8633 78.8016 12.1836V13.2852C78.8055 13.6055 78.8328 13.9238 78.8836 14.2402C78.9344 14.5527 79.0203 14.8359 79.1414 15.0898C79.2664 15.3398 79.4324 15.543 79.6395 15.6992C79.8504 15.8555 80.1141 15.9336 80.4305 15.9336C80.7508 15.9336 81.0164 15.8555 81.2273 15.6992C81.4422 15.543 81.6141 15.3398 81.743 15.0898C81.8719 14.8398 81.9617 14.5566 82.0125 14.2402C82.0672 13.9238 82.0965 13.6055 82.1004 13.2852V12.1836ZM90.1957 13.6719H88.766V17H87.3598V8.46875H90.0551C90.4926 8.47266 90.8949 8.5293 91.2621 8.63867C91.6332 8.74414 91.9535 8.9043 92.223 9.11914C92.4926 9.33008 92.7016 9.5957 92.85 9.91602C92.9984 10.2363 93.0727 10.6113 93.0727 11.041C93.0727 11.3301 93.0336 11.5938 92.9555 11.832C92.8812 12.0664 92.7758 12.2793 92.6391 12.4707C92.5023 12.6621 92.3383 12.8301 92.1469 12.9746C91.9555 13.1191 91.7445 13.2422 91.5141 13.3438L93.3187 16.9297V17H91.8187L90.1957 13.6719ZM88.766 12.5352H90.0609C90.2953 12.5352 90.5102 12.502 90.7055 12.4355C90.9008 12.3691 91.0687 12.2754 91.2094 12.1543C91.3539 12.0293 91.4652 11.8789 91.5434 11.7031C91.6215 11.5234 91.6605 11.3184 91.6605 11.0879C91.6605 10.8496 91.6234 10.6387 91.5492 10.4551C91.475 10.2715 91.3676 10.1172 91.227 9.99219C91.0902 9.86719 90.9223 9.77344 90.723 9.71094C90.5238 9.64453 90.3012 9.60938 90.0551 9.60547H88.766V12.5352ZM97.1309 8.46875H102.205V9.63477H100.359V15.8398H102.205V17H97.1309V15.8398H98.9355V9.63477H97.1309V8.46875ZM107.921 15.8516H112.228V17H106.269L106.263 16.0508L110.435 9.62891H106.298V8.46875H112.093L112.099 9.39453L107.921 15.8516ZM121.941 13.2852C121.941 13.7891 121.876 14.2734 121.747 14.7383C121.618 15.1992 121.425 15.6074 121.167 15.9629C120.913 16.3145 120.593 16.5957 120.206 16.8066C119.823 17.0137 119.374 17.1172 118.859 17.1172C118.347 17.1172 117.902 17.0117 117.523 16.8008C117.144 16.5898 116.827 16.3086 116.573 15.957C116.323 15.6016 116.134 15.1934 116.005 14.7324C115.88 14.2715 115.818 13.7891 115.818 13.2852V12.1953C115.818 11.8594 115.845 11.5312 115.9 11.2109C115.958 10.8906 116.042 10.5898 116.152 10.3086C116.265 10.0234 116.404 9.76172 116.568 9.52344C116.736 9.28125 116.931 9.07422 117.154 8.90234C117.38 8.73047 117.634 8.5957 117.915 8.49805C118.2 8.40039 118.513 8.35156 118.853 8.35156C119.368 8.35156 119.818 8.45703 120.2 8.66797C120.587 8.87891 120.909 9.16211 121.167 9.51758C121.425 9.86914 121.618 10.2773 121.747 10.7422C121.876 11.207 121.941 11.6914 121.941 12.1953V13.2852ZM120.529 12.1836C120.525 11.8633 120.495 11.5449 120.441 11.2285C120.386 10.9121 120.294 10.6309 120.165 10.3848C120.036 10.1348 119.864 9.93359 119.65 9.78125C119.439 9.625 119.173 9.54688 118.853 9.54688C118.536 9.54688 118.273 9.625 118.062 9.78125C117.855 9.93359 117.689 10.1348 117.564 10.3848C117.443 10.6348 117.357 10.918 117.306 11.2344C117.259 11.5469 117.234 11.8633 117.23 12.1836V13.2852C117.234 13.6055 117.261 13.9238 117.312 14.2402C117.363 14.5527 117.448 14.8359 117.57 15.0898C117.695 15.3398 117.861 15.543 118.068 15.6992C118.279 15.8555 118.542 15.9336 118.859 15.9336C119.179 15.9336 119.445 15.8555 119.655 15.6992C119.87 15.543 120.042 15.3398 120.171 15.0898C120.3 14.8398 120.39 14.5566 120.441 14.2402C120.495 13.9238 120.525 13.6055 120.529 13.2852V12.1836ZM131.284 17H129.866L127.089 11.1289L127.083 17H125.659V8.46875H127.083L129.848 14.3223L129.86 8.46875H131.284V17ZM141.413 9.62891H138.793V17H137.393V9.62891H134.791V8.46875H141.413V9.62891ZM149.115 15.0195H146.449L145.863 17H144.41L147.182 8.46875H148.418L151.137 17H149.689L149.115 15.0195ZM146.807 13.8184H148.764L147.797 10.4727L146.807 13.8184ZM156.127 15.8516H160.193V17H154.72V8.46875H156.127V15.8516Z" fill="#F8F7FA"/>
<path d="M187.01 11.0001H176C175.45 11.0001 175 11.4501 175 12.0001C175 12.5501 175.45 13.0001 176 13.0001H187.01V14.7901C187.01 15.2401 187.55 15.4601 187.86 15.1401L190.64 12.3501C190.83 12.1501 190.83 11.8401 190.64 11.6401L187.86 8.85008C187.55 8.53008 187.01 8.76008 187.01 9.20008V11.0001Z" fill="#F8F7FA"/>
</svg>
