<svg width="80" height="98" viewBox="0 0 80 98" fill="none" xmlns="http://www.w3.org/2000/svg">
<path fill-rule="evenodd" clip-rule="evenodd" d="M39.9017 5.26709C61.9389 5.26709 79.8035 23.1317 79.8035 45.1688V57.8648C79.8035 79.902 61.9389 97.7666 39.9017 97.7666C17.8646 97.7666 0 79.902 0 57.8648V45.1688C0 23.1317 17.8646 5.26709 39.9017 5.26709Z" fill="#F3CBA7"/>
<path d="M52.0061 60.2583C52.0061 66.9432 46.6203 72.3624 39.9767 72.3624C33.333 72.3624 27.9473 66.9432 27.9473 60.2583H52.0061Z" fill="#F8F7FA"/>
<path d="M28.3964 49.297C31.0675 49.297 33.2328 46.3986 33.2328 42.8231C33.2328 39.2476 31.0675 36.3491 28.3964 36.3491C25.7254 36.3491 23.5601 39.2476 23.5601 42.8231C23.5601 46.3986 25.7254 49.297 28.3964 49.297Z" fill="#2B2B2B"/>
<path d="M30.1047 41.4623C30.7663 41.4623 31.3027 40.9239 31.3027 40.2597C31.3027 39.5955 30.7663 39.0571 30.1047 39.0571C29.4431 39.0571 28.9067 39.5955 28.9067 40.2597C28.9067 40.9239 29.4431 41.4623 30.1047 41.4623Z" fill="white"/>
<path d="M51.5566 49.297C54.2276 49.297 56.3929 46.3986 56.3929 42.8231C56.3929 39.2476 54.2276 36.3491 51.5566 36.3491C48.8855 36.3491 46.7202 39.2476 46.7202 42.8231C46.7202 46.3986 48.8855 49.297 51.5566 49.297Z" fill="#2B2B2B"/>
<path d="M53.2282 41.4598C53.8898 41.4598 54.4262 40.9214 54.4262 40.2573C54.4262 39.5931 53.8898 39.0547 53.2282 39.0547C52.5666 39.0547 52.0303 39.5931 52.0303 40.2573C52.0303 40.9214 52.5666 41.4598 53.2282 41.4598Z" fill="white"/>
<path fill-rule="evenodd" clip-rule="evenodd" d="M31.2321 1.1391C41.1871 0.174305 52.1529 2.55872 59.1763 9.13381C72.6253 15.1859 79.804 29.3861 79.804 45.1503V51.5524L77.2724 45.5578C77.2724 41.7356 76.6986 38.0475 75.6325 34.5748C71.7093 32.0827 68.3163 29.2308 65.4525 26.0198C62.5008 22.7104 60.0145 17.6402 57.9061 12.1225C54.9174 12.4213 48.8653 7.93834 34.8933 9.73154C20.9212 11.5247 17.9423 15.4246 12.8518 21.6115L12.5409 21.9901C9.65646 25.509 7.05925 27.1469 5.3297 31.3475C3.60016 35.5481 2.61495 40.1337 2.53703 44.9398L2.53202 45.5578L0.141019 51.573H0.000488281V45.1503C0.000488281 42.8775 0.190499 40.6492 0.555502 38.4802L0.575304 38.0234C0.907356 30.6091 1.66186 25.512 2.83973 22.7323C4.70765 18.324 14.2714 2.78287 31.2321 1.1391Z" fill="#606060"/>
</svg>
