<svg width="59" height="71" viewBox="0 0 59 71" fill="none" xmlns="http://www.w3.org/2000/svg">
<path fill-rule="evenodd" clip-rule="evenodd" d="M5.40503 22.1719H53.8211V68.5612C53.8211 69.8049 52.8129 70.8131 51.5692 70.8131H7.65694C6.41324 70.8131 5.40503 69.8049 5.40503 68.5612V22.1719Z" fill="#4A68ED"/>
<path d="M42.5597 31.4043H16.6628C15.4191 31.4043 14.4109 32.4125 14.4109 33.6562V59.5532C14.4109 60.7968 15.4191 61.8051 16.6628 61.8051H42.5597C43.8034 61.8051 44.8117 60.7968 44.8117 59.5532V33.6562C44.8117 32.4125 43.8034 31.4043 42.5597 31.4043Z" fill="#48C09A"/>
<path fill-rule="evenodd" clip-rule="evenodd" d="M43.2397 5.94043C45.318 6.8549 46.8572 8.22851 47.7436 10.09C48.6272 11.9454 48.7961 14.2985 48.4047 17.0387L46.1754 16.7202C46.5346 14.2059 46.3282 12.3554 45.7105 11.0582C45.0956 9.76699 44.0076 8.73856 42.3328 8.00164L43.2397 5.94043Z" fill="#2B2B2B"/>
<path d="M42.0197 3.35721L37.2212 1.2208C35.7069 0.546572 33.9327 1.22763 33.2584 2.74198C32.5842 4.25633 33.2652 6.03053 34.7796 6.70476L39.5781 8.84116C41.0924 9.51539 42.8666 8.83434 43.5409 7.31999C44.2151 5.80563 43.5341 4.03144 42.0197 3.35721Z" fill="#2B2B2B"/>
<path d="M57.874 16.3164H1.12595C0.504107 16.3164 0 16.8205 0 17.4424V21.0454C0 21.6673 0.504107 22.1714 1.12595 22.1714H57.874C58.4959 22.1714 59 21.6673 59 21.0454V17.4424C59 16.8205 58.4959 16.3164 57.874 16.3164Z" fill="#4663E3"/>
<path fill-rule="evenodd" clip-rule="evenodd" d="M34.8809 39.8433C35.4435 40.1082 35.6849 40.779 35.42 41.3416L30.0177 52.8181C29.8432 53.1889 29.4809 53.4356 29.0719 53.4621C28.663 53.4887 28.2719 53.2909 28.0508 52.9458L23.8237 46.345C23.4883 45.8214 23.641 45.125 24.1646 44.7896C24.6883 44.4543 25.3847 44.6069 25.72 45.1306L28.8482 50.0152L33.3826 40.3825C33.6474 39.8199 34.3182 39.5785 34.8809 39.8433Z" fill="#F8F7FA"/>
</svg>
