<svg width="95" height="108" viewBox="0 0 95 108" fill="none" xmlns="http://www.w3.org/2000/svg">
<path fill-rule="evenodd" clip-rule="evenodd" d="M47.2162 8.12598C72.0679 8.12598 92.2141 27.5161 92.2141 51.4351L90.7596 66.2201L94.0956 68.3615C93.4057 69.1957 92.694 69.8608 91.9604 70.3567L94.2739 71.4508C91.6365 73.8015 88.6549 74.1902 85.3292 72.6171C82.8028 71.4221 81.7469 69.8844 82.1614 68.004C82.047 67.8528 81.9408 67.6989 81.8429 67.5425L13.0927 67.5424C13.7968 69.6342 12.7839 71.3257 10.0538 72.6171C6.72806 74.1902 3.74651 73.8015 1.1091 71.4508L2.6961 70.7005C1.76306 70.1865 0.864357 69.4068 0 68.3615L3.65244 66.017L2.2182 51.4351C2.2182 27.5161 22.3645 8.12598 47.2162 8.12598Z" fill="#2B2B2B"/>
<path fill-rule="evenodd" clip-rule="evenodd" d="M47.2167 9.55151C70.5825 9.55151 89.5242 28.4932 89.5242 51.859V65.3205C89.5242 88.6863 70.5825 107.628 47.2167 107.628C23.8509 107.628 4.90918 88.6863 4.90918 65.3205V51.859C4.90918 28.4932 23.8509 9.55151 47.2167 9.55151Z" fill="#F3CBA7"/>
<path d="M60.0211 67.0671C60.0211 74.1551 54.3106 79.9011 47.2664 79.9011C40.2222 79.9011 34.5117 74.1551 34.5117 67.0671H60.0211Z" fill="#F8F7FA"/>
<path fill-rule="evenodd" clip-rule="evenodd" d="M37.665 0.575612C46.7294 -0.904977 53.8997 1.70646 59.1759 8.40991C65.444 4.2048 72.1009 4.89108 79.1466 10.4685C87.1808 16.8285 91.9159 27.9151 93.3518 43.7283C85.909 43.8147 79.1145 38.579 72.9683 28.0212L72.5314 27.2654C68.4415 20.2186 64.6972 15.3791 61.2986 12.7468C50.4143 14.8368 40.0538 19.843 30.217 27.7661C20.1838 35.8474 10.1643 38.0799 0.158447 34.4635L0.822984 33.6681C4.93121 28.7428 7.9827 24.9312 9.97745 22.2332L10.0408 22.1475C19.0011 9.99779 21.5118 3.21411 37.665 0.575612Z" fill="#2B2B2B"/>
<path fill-rule="evenodd" clip-rule="evenodd" d="M0.45771 37.6398C4.85375 40.9088 9.14245 41.6089 13.3238 39.7401C17.5052 37.8713 19.8413 34.6532 20.3321 30.0859C15.5887 31.1361 12.0624 32.1773 9.75335 33.2093C7.44425 34.2413 4.34571 35.7181 0.45771 37.6398Z" fill="#B8B8B8"/>
<path fill-rule="evenodd" clip-rule="evenodd" d="M79.0768 32.3222C77.972 37.6879 79.1501 41.8706 82.6109 44.8704C86.0718 47.8703 89.9757 48.6275 94.3226 47.1422C91.366 43.287 88.9321 40.5312 87.0209 38.8746C85.1097 37.2179 82.4616 35.0338 79.0768 32.3222Z" fill="#B8B8B8"/>
<path fill-rule="evenodd" clip-rule="evenodd" d="M0.158447 34.4042C10.0343 30.3406 19.457 27.6508 26.3853 23.8992C40.6872 16.1548 48.4796 8.84305 56.5602 10.3221C57.1048 10.4217 57.9999 10.732 59.2454 11.2528C60.1798 10.8967 60.9672 10.6609 61.6076 10.5455C69.4902 9.12521 80.2556 22.9098 93.356 43.8053C85.9132 43.8917 79.1187 38.656 72.9725 28.0982L72.5243 27.3228C68.253 19.9611 62.4852 15.6673 59.2454 13.3342C52.228 16.969 47.3346 19.3753 44.5652 20.5531C40.1233 22.4422 31.9918 35.055 20.2088 37.3864C7.99996 39.802 7.99996 36.8214 0.158447 34.4042Z" fill="#959595"/>
<path d="M35.0214 55.4459C37.8535 55.4459 40.1493 52.3726 40.1493 48.5816C40.1493 44.7905 37.8535 41.7173 35.0214 41.7173C32.1893 41.7173 29.8934 44.7905 29.8934 48.5816C29.8934 52.3726 32.1893 55.4459 35.0214 55.4459Z" fill="#2B2B2B"/>
<path d="M36.8367 47.1376C37.5382 47.1376 38.1069 46.5667 38.1069 45.8625C38.1069 45.1583 37.5382 44.5874 36.8367 44.5874C36.1352 44.5874 35.5665 45.1583 35.5665 45.8625C35.5665 46.5667 36.1352 47.1376 36.8367 47.1376Z" fill="white"/>
<path d="M59.5829 55.4444C62.415 55.4444 64.7109 52.3712 64.7109 48.5801C64.7109 44.7891 62.415 41.7158 59.5829 41.7158C56.7508 41.7158 54.455 44.7891 54.455 48.5801C54.455 52.3712 56.7508 55.4444 59.5829 55.4444Z" fill="#2B2B2B"/>
<path d="M61.357 47.1351C62.0585 47.1351 62.6272 46.5642 62.6272 45.86C62.6272 45.1558 62.0585 44.585 61.357 44.585C60.6555 44.585 60.0868 45.1558 60.0868 45.86C60.0868 46.5642 60.6555 47.1351 61.357 47.1351Z" fill="white"/>
</svg>
