<svg width="80" height="44" viewBox="0 0 80 44" fill="none" xmlns="http://www.w3.org/2000/svg">
<path d="M75.8057 6.01367H13.2055C10.9433 6.01367 9.10938 7.86966 9.10938 10.1591V39.7839C9.10938 42.0734 10.9433 43.9294 13.2055 43.9294H75.8057C78.0679 43.9294 79.9018 42.0734 79.9018 39.7839V10.1591C79.9018 7.86966 78.0679 6.01367 75.8057 6.01367Z" fill="#E9E8EA"/>
<path d="M40.7679 0H3.23213C1.44707 0 0 1.45721 0 3.25478V32.7452C0 34.5428 1.44707 36 3.23213 36H40.7679C42.5529 36 44 34.5428 44 32.7452V3.25478C44 1.45721 42.5529 0 40.7679 0Z" fill="#4AD3A8"/>
<path d="M56.3753 12.9272H51.3507C50.9736 12.9272 50.668 13.2366 50.668 13.6182V16.9387C50.668 17.3202 50.9736 17.6296 51.3507 17.6296H56.3753C56.7523 17.6296 57.058 17.3202 57.058 16.9387V13.6182C57.058 13.2366 56.7523 12.9272 56.3753 12.9272Z" fill="#AFAFAF"/>
<path d="M64.5042 12.9272H59.4796C59.1025 12.9272 58.7969 13.2366 58.7969 13.6182V16.9387C58.7969 17.3202 59.1025 17.6296 59.4796 17.6296H64.5042C64.8812 17.6296 65.1869 17.3202 65.1869 16.9387V13.6182C65.1869 13.2366 64.8812 12.9272 64.5042 12.9272Z" fill="#AFAFAF"/>
<path d="M72.5218 12.9272H67.4971C67.1201 12.9272 66.8145 13.2366 66.8145 13.6182V16.9387C66.8145 17.3202 67.1201 17.6296 67.4971 17.6296H72.5218C72.8988 17.6296 73.2045 17.3202 73.2045 16.9387V13.6182C73.2045 13.2366 72.8988 12.9272 72.5218 12.9272Z" fill="#AFAFAF"/>
<path d="M56.3753 19.2764H51.3507C50.9736 19.2764 50.668 19.5857 50.668 19.9673V23.2878C50.668 23.6694 50.9736 23.9787 51.3507 23.9787H56.3753C56.7523 23.9787 57.058 23.6694 57.058 23.2878V19.9673C57.058 19.5857 56.7523 19.2764 56.3753 19.2764Z" fill="#AFAFAF"/>
<path d="M64.5042 19.2764H59.4796C59.1025 19.2764 58.7969 19.5857 58.7969 19.9673V23.2878C58.7969 23.6694 59.1025 23.9787 59.4796 23.9787H64.5042C64.8812 23.9787 65.1869 23.6694 65.1869 23.2878V19.9673C65.1869 19.5857 64.8812 19.2764 64.5042 19.2764Z" fill="#AFAFAF"/>
<path d="M72.5218 19.2764H67.4971C67.1201 19.2764 66.8145 19.5857 66.8145 19.9673V23.2878C66.8145 23.6694 67.1201 23.9787 67.4971 23.9787H72.5218C72.8988 23.9787 73.2045 23.6694 73.2045 23.2878V19.9673C73.2045 19.5857 72.8988 19.2764 72.5218 19.2764Z" fill="#AFAFAF"/>
<path d="M56.3753 25.625H51.3507C50.9736 25.625 50.668 25.9343 50.668 26.3159V29.6364C50.668 30.018 50.9736 30.3273 51.3507 30.3273H56.3753C56.7523 30.3273 57.058 30.018 57.058 29.6364V26.3159C57.058 25.9343 56.7523 25.625 56.3753 25.625Z" fill="#AFAFAF"/>
<path d="M56.3753 31.9741H51.3507C50.9736 31.9741 50.668 32.2835 50.668 32.665V35.1634C50.668 35.5449 50.9736 35.8543 51.3507 35.8543H56.3753C56.7523 35.8543 57.058 35.5449 57.058 35.1634V32.665C57.058 32.2835 56.7523 31.9741 56.3753 31.9741Z" fill="white"/>
<path d="M64.5042 25.625H59.4796C59.1025 25.625 58.7969 25.9343 58.7969 26.3159V29.6364C58.7969 30.018 59.1025 30.3273 59.4796 30.3273H64.5042C64.8812 30.3273 65.1869 30.018 65.1869 29.6364V26.3159C65.1869 25.9343 64.8812 25.625 64.5042 25.625Z" fill="#AFAFAF"/>
<path d="M72.5218 25.625H67.4971C67.1201 25.625 66.8145 25.9343 66.8145 26.3159V29.6364C66.8145 30.018 67.1201 30.3273 67.4971 30.3273H72.5218C72.8988 30.3273 73.2045 30.018 73.2045 29.6364V26.3159C73.2045 25.9343 72.8988 25.625 72.5218 25.625Z" fill="#AFAFAF"/>
<path d="M64.5042 31.9741H59.4796C59.1025 31.9741 58.7969 32.2835 58.7969 32.665V35.1634C58.7969 35.5449 59.1025 35.8543 59.4796 35.8543H64.5042C64.8812 35.8543 65.1869 35.5449 65.1869 35.1634V32.665C65.1869 32.2835 64.8812 31.9741 64.5042 31.9741Z" fill="#ED6745"/>
<path d="M72.5218 31.9741H67.4971C67.1201 31.9741 66.8145 32.2835 66.8145 32.665V35.1634C66.8145 35.5449 67.1201 35.8543 67.4971 35.8543H72.5218C72.8988 35.8543 73.2045 35.5449 73.2045 35.1634V32.665C73.2045 32.2835 72.8988 31.9741 72.5218 31.9741Z" fill="#48C09A"/>
<path fill-rule="evenodd" clip-rule="evenodd" d="M28.8757 10.6617C29.6283 11.014 29.9528 11.9097 29.6005 12.6623L23.087 26.5767C22.8548 27.0729 22.3711 27.4036 21.8244 27.4401C21.2778 27.4765 20.7545 27.213 20.4584 26.752L15.2982 18.7192C14.8491 18.02 15.0518 17.0892 15.7509 16.64C16.4501 16.1909 17.381 16.3936 17.8301 17.0927L21.5171 22.8323L26.875 11.3865C27.2273 10.6339 28.123 10.3094 28.8757 10.6617Z" fill="#F8F7FA"/>
</svg>
