<svg width="84" height="98" viewBox="0 0 84 98" fill="none" xmlns="http://www.w3.org/2000/svg">
<path fill-rule="evenodd" clip-rule="evenodd" d="M41.7711 0.933105C64.8407 0.933105 83.5423 19.6347 83.5423 42.7043V55.9951C83.5423 79.0646 64.8407 97.7662 41.7711 97.7662C18.7016 97.7662 0 79.0646 0 55.9951V42.7043C0 19.6347 18.7016 0.933105 41.7711 0.933105Z" fill="#E2B288"/>
<path fill-rule="evenodd" clip-rule="evenodd" d="M41.7711 0.933105C64.8407 0.933105 83.5423 19.6347 83.5423 42.7043L83.5422 49.4064L80.8921 43.1308C80.8921 33.5903 77.477 24.8474 71.8024 18.0579L46.4334 9.93581C43.3959 8.9632 40.1337 8.9423 37.084 9.87589L12.2287 17.4843C6.39342 24.2002 2.81035 32.9254 2.65537 42.4839L2.65013 43.1308L0.147115 49.4279H0V42.7043C0 19.6347 18.7016 0.933105 41.7711 0.933105Z" fill="#2B2B2B"/>
<path fill-rule="evenodd" clip-rule="evenodd" d="M41.7711 0.933105C64.8407 0.933105 83.5423 19.6347 83.5423 42.7043L83.5422 49.4064L80.8921 43.1308C80.8921 33.5903 77.477 24.8474 71.8024 18.0579L46.4334 9.93581C43.3959 8.9632 40.1337 8.9423 37.084 9.87589L12.2287 17.4843C6.39342 24.2002 2.81035 32.9254 2.65537 42.4839L2.65013 43.1308L0.147115 49.4279H0V42.7043C0 19.6347 18.7016 0.933105 41.7711 0.933105Z" fill="#2B2B2B"/>
<path d="M53.8137 60.8477C53.8137 67.8458 48.1756 73.5189 41.2207 73.5189C34.2658 73.5189 28.6277 67.8458 28.6277 60.8477H53.8137Z" fill="#F8F7FA"/>
<path d="M29.0983 49.3719C31.8945 49.3719 34.1613 46.3376 34.1613 42.5946C34.1613 38.8517 31.8945 35.8174 29.0983 35.8174C26.3022 35.8174 24.0354 38.8517 24.0354 42.5946C24.0354 46.3376 26.3022 49.3719 29.0983 49.3719Z" fill="#2B2B2B"/>
<path d="M30.8886 41.1697C31.5812 41.1697 32.1427 40.606 32.1427 39.9108C32.1427 39.2155 31.5812 38.6519 30.8886 38.6519C30.196 38.6519 29.6345 39.2155 29.6345 39.9108C29.6345 40.606 30.196 41.1697 30.8886 41.1697Z" fill="white"/>
<path d="M53.3449 49.3719C56.1411 49.3719 58.4079 46.3376 58.4079 42.5946C58.4079 38.8517 56.1411 35.8174 53.3449 35.8174C50.5487 35.8174 48.282 38.8517 48.282 42.5946C48.282 46.3376 50.5487 49.3719 53.3449 49.3719Z" fill="#2B2B2B"/>
<path d="M55.0969 41.1677C55.7895 41.1677 56.3509 40.6041 56.3509 39.9088C56.3509 39.2135 55.7895 38.6499 55.0969 38.6499C54.4042 38.6499 53.8428 39.2135 53.8428 39.9088C53.8428 40.6041 54.4042 41.1677 55.0969 41.1677Z" fill="white"/>
</svg>
