<svg width="71" height="54" viewBox="0 0 71 54" fill="none" xmlns="http://www.w3.org/2000/svg">
<path fill-rule="evenodd" clip-rule="evenodd" d="M11.4648 44.5955C12.2649 45.0156 12.544 45.9537 12.0881 46.6909C12.085 46.696 12.0818 46.7012 12.0785 46.7063L8.1669 52.8664C7.69489 53.6097 6.6617 53.8648 5.84959 53.4385C5.04949 53.0185 4.77039 52.0803 5.22622 51.3431C5.2294 51.338 5.2326 51.3328 5.23584 51.3277L9.14747 45.1676C9.61947 44.4243 10.6527 44.1692 11.4648 44.5955Z" fill="#AFAFAF"/>
<path fill-rule="evenodd" clip-rule="evenodd" d="M53.3634 44.5956C52.5723 45.0218 52.3008 45.9554 52.7547 46.689L56.5874 52.8837C57.035 53.607 58.0341 53.8591 58.8191 53.4467C58.8243 53.444 58.8295 53.4413 58.8346 53.4385C59.6258 53.0122 59.8972 52.0787 59.4433 51.3451L55.6106 45.1503C55.1631 44.427 54.1639 44.1749 53.3789 44.5873C53.3737 44.59 53.3686 44.5928 53.3634 44.5956Z" fill="#AFAFAF"/>
<path d="M61.0679 8.8916H3.5768C1.60139 8.8916 0 10.3672 0 12.1873V43.4968C0 45.317 1.60139 46.7925 3.5768 46.7925H61.0679C63.0433 46.7925 64.6447 45.317 64.6447 43.4968V12.1873C64.6447 10.3672 63.0433 8.8916 61.0679 8.8916Z" fill="#AFAFAF"/>
<path d="M58.3375 12.8101H6.66247C5.74431 12.8101 5 13.4742 5 14.2935V40.8477C5 41.667 5.74431 42.3312 6.66247 42.3312H58.3375C59.2557 42.3312 60 41.667 60 40.8477V14.2935C60 13.4742 59.2557 12.8101 58.3375 12.8101Z" fill="#2F2F2F"/>
<path d="M58.838 23.0631C65.5548 23.0631 70.9999 18.0831 70.9999 11.94C70.9999 5.79687 65.5548 0.816895 58.838 0.816895C52.1211 0.816895 46.676 5.79687 46.676 11.94C46.676 18.0831 52.1211 23.0631 58.838 23.0631Z" fill="#FFD348"/>
<path fill-rule="evenodd" clip-rule="evenodd" d="M59.0195 3.12403C59.5134 3.12547 59.9124 3.49552 59.9109 3.95056L59.8831 12.0251C59.8816 12.4801 59.48 12.8479 58.9861 12.8464C58.4922 12.845 58.0932 12.4749 58.0947 12.0199L58.1225 3.94535C58.124 3.49031 58.5256 3.12259 59.0195 3.12403Z" fill="#2B2B2B"/>
<path fill-rule="evenodd" clip-rule="evenodd" d="M58.1619 12.1047C58.1619 11.6496 58.5622 11.2808 59.0561 11.2808H64.2057C64.6996 11.2808 65.0999 11.6496 65.0999 12.1047C65.0999 12.5597 64.6996 12.9286 64.2057 12.9286H59.0561C58.5622 12.9286 58.1619 12.5597 58.1619 12.1047Z" fill="#2B2B2B"/>
</svg>
