<svg width="71" height="38" viewBox="0 0 71 38" fill="none" xmlns="http://www.w3.org/2000/svg">
<path d="M66.8067 0.0136719H4.20651C1.94426 0.0136719 0.110352 1.86966 0.110352 4.15913V33.7839C0.110352 36.0734 1.94426 37.9294 4.20651 37.9294H66.8067C69.0689 37.9294 70.9028 36.0734 70.9028 33.7839V4.15913C70.9028 1.86966 69.0689 0.0136719 66.8067 0.0136719Z" fill="#E9E8EA"/>
<path d="M32.6402 6.92676H8.85521C7.72408 6.92676 6.80713 7.85475 6.80713 8.99949V27.7798C6.80713 28.9245 7.72408 29.8525 8.85521 29.8525H32.6402C33.7713 29.8525 34.6883 28.9245 34.6883 27.7798V8.99949C34.6883 7.85475 33.7713 6.92676 32.6402 6.92676Z" fill="#AFAFAF"/>
<path d="M47.3748 6.92676H42.3502C41.9731 6.92676 41.6675 7.23609 41.6675 7.61767V10.9382C41.6675 11.3198 41.9731 11.6291 42.3502 11.6291H47.3748C47.7518 11.6291 48.0575 11.3198 48.0575 10.9382V7.61767C48.0575 7.23609 47.7518 6.92676 47.3748 6.92676Z" fill="#AFAFAF"/>
<path d="M55.5052 6.92676H50.4805C50.1035 6.92676 49.7979 7.23609 49.7979 7.61767V10.9382C49.7979 11.3198 50.1035 11.6291 50.4805 11.6291H55.5052C55.8822 11.6291 56.1879 11.3198 56.1879 10.9382V7.61767C56.1879 7.23609 55.8822 6.92676 55.5052 6.92676Z" fill="#AFAFAF"/>
<path d="M63.5223 6.92676H58.4976C58.1206 6.92676 57.8149 7.23609 57.8149 7.61767V10.9382C57.8149 11.3198 58.1206 11.6291 58.4976 11.6291H63.5223C63.8993 11.6291 64.2049 11.3198 64.2049 10.9382V7.61767C64.2049 7.23609 63.8993 6.92676 63.5223 6.92676Z" fill="#AFAFAF"/>
<path d="M47.3748 13.2764H42.3502C41.9731 13.2764 41.6675 13.5857 41.6675 13.9673V17.2878C41.6675 17.6694 41.9731 17.9787 42.3502 17.9787H47.3748C47.7518 17.9787 48.0575 17.6694 48.0575 17.2878V13.9673C48.0575 13.5857 47.7518 13.2764 47.3748 13.2764Z" fill="#AFAFAF"/>
<path d="M55.5052 13.2764H50.4805C50.1035 13.2764 49.7979 13.5857 49.7979 13.9673V17.2878C49.7979 17.6694 50.1035 17.9787 50.4805 17.9787H55.5052C55.8822 17.9787 56.1879 17.6694 56.1879 17.2878V13.9673C56.1879 13.5857 55.8822 13.2764 55.5052 13.2764Z" fill="#AFAFAF"/>
<path d="M63.5223 13.2764H58.4976C58.1206 13.2764 57.8149 13.5857 57.8149 13.9673V17.2878C57.8149 17.6694 58.1206 17.9787 58.4976 17.9787H63.5223C63.8993 17.9787 64.2049 17.6694 64.2049 17.2878V13.9673C64.2049 13.5857 63.8993 13.2764 63.5223 13.2764Z" fill="#AFAFAF"/>
<path d="M47.3748 19.6245H42.3502C41.9731 19.6245 41.6675 19.9338 41.6675 20.3154V23.6359C41.6675 24.0175 41.9731 24.3268 42.3502 24.3268H47.3748C47.7518 24.3268 48.0575 24.0175 48.0575 23.6359V20.3154C48.0575 19.9338 47.7518 19.6245 47.3748 19.6245Z" fill="#AFAFAF"/>
<path d="M47.3748 25.9736H42.3502C41.9731 25.9736 41.6675 26.283 41.6675 26.6645V29.1629C41.6675 29.5444 41.9731 29.8538 42.3502 29.8538H47.3748C47.7518 29.8538 48.0575 29.5444 48.0575 29.1629V26.6645C48.0575 26.283 47.7518 25.9736 47.3748 25.9736Z" fill="white"/>
<path d="M55.5052 19.6245H50.4805C50.1035 19.6245 49.7979 19.9338 49.7979 20.3154V23.6359C49.7979 24.0175 50.1035 24.3268 50.4805 24.3268H55.5052C55.8822 24.3268 56.1879 24.0175 56.1879 23.6359V20.3154C56.1879 19.9338 55.8822 19.6245 55.5052 19.6245Z" fill="#AFAFAF"/>
<path d="M63.5223 19.6245H58.4976C58.1206 19.6245 57.8149 19.9338 57.8149 20.3154V23.6359C57.8149 24.0175 58.1206 24.3268 58.4976 24.3268H63.5223C63.8993 24.3268 64.2049 24.0175 64.2049 23.6359V20.3154C64.2049 19.9338 63.8993 19.6245 63.5223 19.6245Z" fill="#AFAFAF"/>
<path d="M55.5052 25.9736H50.4805C50.1035 25.9736 49.7979 26.283 49.7979 26.6645V29.1629C49.7979 29.5444 50.1035 29.8538 50.4805 29.8538H55.5052C55.8822 29.8538 56.1879 29.5444 56.1879 29.1629V26.6645C56.1879 26.283 55.8822 25.9736 55.5052 25.9736Z" fill="#ED6745"/>
<path d="M63.5223 25.9736H58.4976C58.1206 25.9736 57.8149 26.283 57.8149 26.6645V29.1629C57.8149 29.5444 58.1206 29.8538 58.4976 29.8538H63.5223C63.8993 29.8538 64.2049 29.5444 64.2049 29.1629V26.6645C64.2049 26.283 63.8993 25.9736 63.5223 25.9736Z" fill="#48C09A"/>
</svg>
