<svg width="90" height="105" viewBox="0 0 90 105" fill="none" xmlns="http://www.w3.org/2000/svg">
<path fill-rule="evenodd" clip-rule="evenodd" d="M45.0059 3.28638C68.877 3.28638 88.2285 22.9305 88.2285 47.1628V61.1235C88.2285 85.3558 68.877 105 45.0059 105C21.1347 105 1.78326 85.3558 1.78326 61.1235V47.1628C1.78326 22.9305 21.1347 3.28638 45.0059 3.28638Z" fill="#F7D2B2"/>
<path d="M90 45.6808C90 20.4519 69.8526 0 44.9994 0C20.1462 0 0 20.4519 0 45.6808H3.34762C3.66932 26.8076 16.2531 10.9681 33.3577 6.01932C34.6252 10.0044 43.9424 34.0399 84.3533 34.2903C85.4487 37.9875 86.0364 41.8205 86.0997 45.6808H90Z" fill="#795219"/>
<path d="M62.9682 64.5776C62.9682 74.651 54.96 82.8171 45.0815 82.8171C35.203 82.8171 27.1948 74.651 27.1948 64.5776H62.9682Z" fill="#F8F7FA"/>
<path d="M32.5422 54.6601C35.4356 54.6601 37.7811 51.4728 37.7811 47.5412C37.7811 43.6096 35.4356 40.4224 32.5422 40.4224C29.6489 40.4224 27.3033 43.6096 27.3033 47.5412C27.3033 51.4728 29.6489 54.6601 32.5422 54.6601Z" fill="#6B7BC5"/>
<path d="M34.3961 46.0444C35.1127 46.0444 35.6937 45.4523 35.6937 44.722C35.6937 43.9917 35.1127 43.3997 34.3961 43.3997C33.6794 43.3997 33.0984 43.9917 33.0984 44.722C33.0984 45.4523 33.6794 46.0444 34.3961 46.0444Z" fill="#F8F7FA"/>
<path d="M57.6375 54.66C60.5308 54.66 62.8763 51.4728 62.8763 47.5412C62.8763 43.6096 60.5308 40.4224 57.6375 40.4224C54.7441 40.4224 52.3986 43.6096 52.3986 47.5412C52.3986 51.4728 54.7441 54.66 57.6375 54.66Z" fill="#6B7BC5"/>
<path d="M59.4555 46.0419C60.1722 46.0419 60.7532 45.4499 60.7532 44.7196C60.7532 43.9893 60.1722 43.3972 59.4555 43.3972C58.7388 43.3972 58.1578 43.9893 58.1578 44.7196C58.1578 45.4499 58.7388 46.0419 59.4555 46.0419Z" fill="#F8F7FA"/>
</svg>
