<svg width="346" height="396" viewBox="0 0 346 396" fill="none" xmlns="http://www.w3.org/2000/svg">
<path fill-rule="evenodd" clip-rule="evenodd" d="M173.021 12.3932C264.792 12.3932 339.188 86.4798 339.188 177.87V230.522C339.188 321.912 264.792 395.999 173.021 395.999C81.2492 395.999 6.85376 321.912 6.85376 230.522V177.87C6.85376 86.4798 81.2492 12.3932 173.021 12.3932Z" fill="#F7D2B2"/>
<path d="M346 172.282C346 77.133 268.544 0 172.998 0C77.451 0 0 77.133 0 172.282H12.8697C14.1065 101.103 62.4843 41.3654 128.242 22.7014C133.114 37.7308 168.934 128.379 324.292 129.324C328.503 143.267 330.762 157.723 331.005 172.282H346Z" fill="#795219"/>
<path d="M242.082 243.549C242.082 281.54 211.295 312.338 173.317 312.338C135.34 312.338 104.553 281.54 104.553 243.549H242.082Z" fill="#F8F7FA"/>
<path d="M125.112 206.147C136.235 206.147 145.252 194.127 145.252 179.299C145.252 164.471 136.235 152.451 125.112 152.451C113.988 152.451 104.971 164.471 104.971 179.299C104.971 194.127 113.988 206.147 125.112 206.147Z" fill="#6B7BC5"/>
<path d="M132.228 173.653C134.984 173.653 137.217 171.42 137.217 168.666C137.217 165.912 134.984 163.679 132.228 163.679C129.473 163.679 127.24 165.912 127.24 168.666C127.24 171.42 129.473 173.653 132.228 173.653Z" fill="#F8F7FA"/>
<path d="M221.587 206.147C232.71 206.147 241.728 194.127 241.728 179.299C241.728 164.471 232.71 152.451 221.587 152.451C210.464 152.451 201.447 164.471 201.447 179.299C201.447 194.127 210.464 206.147 221.587 206.147Z" fill="#6B7BC5"/>
<path d="M228.575 173.645C231.33 173.645 233.564 171.412 233.564 168.658C233.564 165.903 231.33 163.671 228.575 163.671C225.82 163.671 223.586 165.903 223.586 168.658C223.586 171.412 225.82 173.645 228.575 173.645Z" fill="#F8F7FA"/>
</svg>
