<svg width="144" height="165" viewBox="0 0 144 165" fill="none" xmlns="http://www.w3.org/2000/svg">
<g clip-path="url(#clip0_64_977)">
<path d="M74.0043 85.7483L65.094 94.6953L67.0943 96.7033L76.0046 87.7563L74.0043 85.7483Z" fill="#F8F7FA"/>
<path d="M67.0916 85.7513L65.0916 87.7593L74.0018 96.705L76.0019 94.697L67.0916 85.7513Z" fill="#F8F7FA"/>
<path d="M65.2459 75.757C61.5377 72.0312 56.3502 69.7906 50.6761 70.0177C40.1596 70.438 31.9455 79.3351 31.9455 89.9021V96.6949C31.9455 97.0073 31.691 97.2628 31.3798 97.2628H0.568559C0.254592 97.2628 -0.00280545 97.5213 2.30915e-05 97.8365C0.0452797 101.528 0.517646 105.339 1.36904 109.113C1.41995 109.338 1.60098 109.511 1.83009 109.545C4.21737 109.917 8.58464 110.317 13.0283 109.315C13.1725 109.284 13.2659 109.46 13.1556 109.556C11.9789 110.601 8.27633 113.558 3.45933 114.182C3.10859 114.228 2.8823 114.586 2.99545 114.924C3.75915 117.212 4.65863 119.456 5.68256 121.623C5.75893 121.785 5.90884 121.898 6.08421 121.932C7.95387 122.267 12.1429 122.798 16.4225 121.847C16.5668 121.816 16.6601 121.992 16.5498 122.088C15.5344 122.98 12.6492 125.252 8.86749 125.97C8.47715 126.044 8.27633 126.482 8.48281 126.822C9.88859 129.128 11.4471 131.289 13.1386 133.255C13.2263 133.357 13.3479 133.425 13.4837 133.442C14.9969 133.641 17.3786 133.791 19.8196 133.274C19.961 133.243 20.0487 133.422 19.9412 133.519C19.3444 134.027 18.1196 134.961 16.4961 135.617C16.1086 135.773 16.018 136.282 16.3235 136.566C17.6501 137.793 19.0417 138.903 20.49 139.871L0.60533 152.395C0.294191 152.591 0.246106 153.028 0.50916 153.284C16.7846 169.079 42.7336 168.911 58.7997 152.778C63.9787 147.581 67.5059 141.354 69.3812 134.754C69.5396 134.192 69.6896 133.624 69.8225 133.056C70.5947 129.838 70.9794 126.55 70.9794 123.261V89.5954C70.9794 84.2054 68.7844 79.3096 65.2459 75.757Z" fill="#F8F7FA"/>
</g>
<path d="M84.8845 71C84.5225 71 84.1565 70.9311 83.8026 70.7811C82.7489 70.3393 82.0652 69.3098 82.0652 68.1587V59.9874H80.0543C74.5084 59.9874 70 55.4438 70 49.8544V10.133C70 4.54364 74.5084 0 80.0543 0H133.946C139.492 0 144 4.54364 144 10.133V49.8544C144 55.4438 139.492 59.9874 133.946 59.9874H96.9738L86.8712 70.1691C86.3323 70.7122 85.6164 71 84.8845 71ZM80.0543 4.05321C76.7284 4.05321 74.0217 6.78101 74.0217 10.133V49.8544C74.0217 53.2064 76.7284 55.9342 80.0543 55.9342H86.087V65.2282L95.3088 55.9342H133.946C137.272 55.9342 139.978 53.2064 139.978 49.8544V10.133C139.978 6.78101 137.272 4.05321 133.946 4.05321H80.0543Z" fill="#F8F7FA"/>
<defs>
<clipPath id="clip0_64_977">
<rect width="76" height="95" fill="white" transform="translate(0 70)"/>
</clipPath>
</defs>
</svg>
