<svg width="212" height="70" viewBox="0 0 212 70" fill="none" xmlns="http://www.w3.org/2000/svg">
<path d="M0 5V58C0 60.7614 2.23858 63 5 63H94.2409L102.859 68.3585C104.476 69.3636 106.523 69.3636 108.139 68.3585L116.758 63H207C209.761 63 212 60.7614 212 58V5C212 2.23858 209.761 0 207 0H5C2.23858 0 0 2.23858 0 5Z" fill="#F8F7FA" fill-opacity="0.9"/>
<path d="M69.7754 29.5791H70.623C71.0924 29.5791 71.5026 29.4971 71.8535 29.333C72.2044 29.1644 72.471 28.9365 72.6533 28.6494C72.8402 28.3577 72.9336 28.0228 72.9336 27.6445C72.9336 27.0065 72.7536 26.5075 72.3936 26.1475C72.0335 25.7874 71.5163 25.6074 70.8418 25.6074C70.2038 25.6074 69.6797 25.7965 69.2695 26.1748C68.8639 26.5485 68.6611 27.043 68.6611 27.6582H67.8408C67.8408 27.1432 67.9707 26.6738 68.2305 26.25C68.4902 25.8216 68.8503 25.4912 69.3105 25.2588C69.7708 25.0264 70.2812 24.9102 70.8418 24.9102C71.7441 24.9102 72.4551 25.1562 72.9746 25.6484C73.4941 26.1406 73.7539 26.8151 73.7539 27.6719C73.7539 28.1504 73.6012 28.5924 73.2959 28.998C72.9951 29.3991 72.5804 29.6999 72.0518 29.9004C72.6715 30.0736 73.141 30.3721 73.46 30.7959C73.779 31.2152 73.9385 31.7165 73.9385 32.2998C73.9385 33.152 73.6605 33.8379 73.1045 34.3574C72.5485 34.877 71.8057 35.1367 70.876 35.1367C70.2835 35.1367 69.7389 35.0182 69.2422 34.7812C68.75 34.5443 68.3672 34.2139 68.0938 33.79C67.8249 33.3617 67.6904 32.8649 67.6904 32.2998H68.5107C68.5107 32.9333 68.7318 33.4505 69.1738 33.8516C69.6159 34.248 70.1833 34.4463 70.876 34.4463C71.5824 34.4463 72.1315 34.2663 72.5234 33.9062C72.9199 33.5417 73.1182 33.0153 73.1182 32.3271C73.1182 31.6618 72.904 31.1536 72.4756 30.8027C72.0518 30.4518 71.4251 30.2764 70.5957 30.2764H69.7754V29.5791ZM81.5879 27.6104C81.5879 28.1253 81.4375 28.5879 81.1367 28.998C80.8359 29.4036 80.4395 29.7021 79.9473 29.8936C80.5215 30.0895 80.9818 30.4062 81.3281 30.8438C81.6745 31.2812 81.8477 31.7871 81.8477 32.3613C81.8477 33.2135 81.5583 33.8903 80.9795 34.3916C80.4007 34.8883 79.6351 35.1367 78.6826 35.1367C77.721 35.1367 76.9508 34.8883 76.3721 34.3916C75.7979 33.8949 75.5107 33.2181 75.5107 32.3613C75.5107 31.7962 75.6771 31.2926 76.0098 30.8506C76.3424 30.4085 76.7982 30.0895 77.377 29.8936C76.8848 29.7021 76.4928 29.4036 76.2012 28.998C75.9095 28.5879 75.7637 28.1253 75.7637 27.6104C75.7637 26.7855 76.028 26.1292 76.5566 25.6416C77.0898 25.154 77.7939 24.9102 78.6689 24.9102C79.5439 24.9102 80.248 25.1562 80.7812 25.6484C81.319 26.1406 81.5879 26.7946 81.5879 27.6104ZM81.0273 32.3682C81.0273 31.7484 80.8063 31.2402 80.3643 30.8438C79.9222 30.4427 79.3571 30.2422 78.6689 30.2422C77.9808 30.2422 77.418 30.4382 76.9805 30.8301C76.543 31.222 76.3242 31.7347 76.3242 32.3682C76.3242 33.0016 76.5361 33.5075 76.96 33.8857C77.3838 34.2594 77.958 34.4463 78.6826 34.4463C79.389 34.4463 79.9564 34.2594 80.3848 33.8857C80.8132 33.512 81.0273 33.0062 81.0273 32.3682ZM80.7676 27.6035C80.7676 27.0339 80.5693 26.5599 80.1729 26.1816C79.7809 25.7988 79.2796 25.6074 78.6689 25.6074C78.0492 25.6074 77.5456 25.792 77.1582 26.1611C76.7754 26.5257 76.584 27.0065 76.584 27.6035C76.584 28.1868 76.7754 28.6562 77.1582 29.0117C77.5456 29.3672 78.0514 29.5449 78.6758 29.5449C79.291 29.5449 79.7923 29.3672 80.1797 29.0117C80.5716 28.6517 80.7676 28.1823 80.7676 27.6035ZM85.3066 29.5791H86.1543C86.6237 29.5791 87.0339 29.4971 87.3848 29.333C87.7357 29.1644 88.0023 28.9365 88.1846 28.6494C88.3714 28.3577 88.4648 28.0228 88.4648 27.6445C88.4648 27.0065 88.2848 26.5075 87.9248 26.1475C87.5648 25.7874 87.0475 25.6074 86.373 25.6074C85.735 25.6074 85.2109 25.7965 84.8008 26.1748C84.3952 26.5485 84.1924 27.043 84.1924 27.6582H83.3721C83.3721 27.1432 83.502 26.6738 83.7617 26.25C84.0215 25.8216 84.3815 25.4912 84.8418 25.2588C85.3021 25.0264 85.8125 24.9102 86.373 24.9102C87.2754 24.9102 87.9863 25.1562 88.5059 25.6484C89.0254 26.1406 89.2852 26.8151 89.2852 27.6719C89.2852 28.1504 89.1325 28.5924 88.8271 28.998C88.5264 29.3991 88.1117 29.6999 87.583 29.9004C88.2028 30.0736 88.6722 30.3721 88.9912 30.7959C89.3102 31.2152 89.4697 31.7165 89.4697 32.2998C89.4697 33.152 89.1917 33.8379 88.6357 34.3574C88.0798 34.877 87.3369 35.1367 86.4072 35.1367C85.8148 35.1367 85.2702 35.0182 84.7734 34.7812C84.2812 34.5443 83.8984 34.2139 83.625 33.79C83.3561 33.3617 83.2217 32.8649 83.2217 32.2998H84.042C84.042 32.9333 84.263 33.4505 84.7051 33.8516C85.1471 34.248 85.7145 34.4463 86.4072 34.4463C87.1136 34.4463 87.6628 34.2663 88.0547 33.9062C88.4512 33.5417 88.6494 33.0153 88.6494 32.3271C88.6494 31.6618 88.4352 31.1536 88.0068 30.8027C87.583 30.4518 86.9564 30.2764 86.127 30.2764H85.3066V29.5791ZM95.5332 27.6035L95.5605 28.8066C95.834 28.36 96.1758 28.0251 96.5859 27.8018C96.9961 27.5785 97.4518 27.4668 97.9531 27.4668C99.1198 27.4668 99.8604 27.9453 100.175 28.9023C100.439 28.4421 100.792 28.0889 101.234 27.8428C101.676 27.5921 102.164 27.4668 102.697 27.4668C104.283 27.4668 105.092 28.3327 105.124 30.0645V35H104.304V30.126C104.299 29.4652 104.156 28.9753 103.873 28.6562C103.595 28.3372 103.139 28.1777 102.506 28.1777C101.918 28.1868 101.421 28.3783 101.016 28.752C100.61 29.1211 100.384 29.5723 100.339 30.1055V35H99.5186V30.0645C99.514 29.431 99.3636 28.9593 99.0674 28.6494C98.7757 28.335 98.3245 28.1777 97.7139 28.1777C97.1989 28.1777 96.7568 28.3258 96.3877 28.6221C96.0186 28.9137 95.7451 29.349 95.5674 29.9277V35H94.7471V27.6035H95.5332ZM108.118 35H107.298V27.6035H108.118V35ZM107.154 25.4639C107.154 25.3089 107.204 25.179 107.305 25.0742C107.405 24.9648 107.542 24.9102 107.715 24.9102C107.888 24.9102 108.025 24.9648 108.125 25.0742C108.23 25.179 108.282 25.3089 108.282 25.4639C108.282 25.6188 108.23 25.7487 108.125 25.8535C108.025 25.9583 107.888 26.0107 107.715 26.0107C107.542 26.0107 107.405 25.9583 107.305 25.8535C107.204 25.7487 107.154 25.6188 107.154 25.4639ZM111.126 27.6035L111.153 28.8682C111.431 28.4124 111.778 28.0661 112.192 27.8291C112.607 27.5876 113.065 27.4668 113.566 27.4668C114.359 27.4668 114.95 27.6901 115.337 28.1367C115.724 28.5833 115.92 29.2533 115.925 30.1465V35H115.111V30.1396C115.107 29.4788 114.965 28.9867 114.688 28.6631C114.414 28.3395 113.974 28.1777 113.368 28.1777C112.862 28.1777 112.413 28.3372 112.021 28.6562C111.634 28.9707 111.347 29.3968 111.16 29.9346V35H110.347V27.6035H111.126ZM122.802 34.0635C122.31 34.779 121.523 35.1367 120.443 35.1367C119.655 35.1367 119.056 34.9089 118.646 34.4531C118.235 33.9928 118.026 33.3138 118.017 32.416V27.6035H118.83V32.3135C118.83 33.7217 119.4 34.4258 120.539 34.4258C121.724 34.4258 122.474 33.9359 122.788 32.9561V27.6035H123.608V35H122.815L122.802 34.0635ZM127.013 25.71V27.6035H128.544V28.2734H127.013V33.2021C127.013 33.6123 127.086 33.9176 127.231 34.1182C127.382 34.3187 127.63 34.4189 127.977 34.4189C128.113 34.4189 128.334 34.3962 128.64 34.3506L128.674 35.0205C128.46 35.098 128.168 35.1367 127.799 35.1367C127.238 35.1367 126.83 34.9749 126.575 34.6514C126.32 34.3232 126.192 33.8424 126.192 33.209V28.2734H124.832V27.6035H126.192V25.71H127.013ZM129.651 31.1924C129.651 30.4814 129.788 29.8411 130.062 29.2715C130.34 28.7018 130.729 28.2598 131.23 27.9453C131.736 27.6263 132.308 27.4668 132.946 27.4668C133.931 27.4668 134.728 27.8132 135.339 28.5059C135.95 29.194 136.255 30.1077 136.255 31.2471V31.418C136.255 32.1335 136.116 32.7783 135.838 33.3525C135.564 33.9222 135.177 34.362 134.676 34.6719C134.174 34.9818 133.603 35.1367 132.96 35.1367C131.98 35.1367 131.183 34.7926 130.567 34.1045C129.957 33.4118 129.651 32.4958 129.651 31.3564V31.1924ZM130.472 31.418C130.472 32.3021 130.7 33.029 131.155 33.5986C131.616 34.1637 132.217 34.4463 132.96 34.4463C133.698 34.4463 134.295 34.1637 134.751 33.5986C135.211 33.029 135.441 32.2793 135.441 31.3496V31.1924C135.441 30.6273 135.337 30.11 135.127 29.6406C134.917 29.1712 134.623 28.8089 134.245 28.5537C133.867 28.2939 133.434 28.1641 132.946 28.1641C132.217 28.1641 131.622 28.4512 131.162 29.0254C130.702 29.5951 130.472 30.3424 130.472 31.2676V31.418ZM142.38 33.1201C142.38 32.7145 142.216 32.3887 141.888 32.1426C141.564 31.8965 141.074 31.7051 140.418 31.5684C139.762 31.4271 139.251 31.2676 138.887 31.0898C138.527 30.9076 138.258 30.6865 138.08 30.4268C137.907 30.167 137.82 29.8525 137.82 29.4834C137.82 28.9001 138.064 28.4193 138.552 28.041C139.039 27.6582 139.664 27.4668 140.425 27.4668C141.25 27.4668 141.91 27.6719 142.407 28.082C142.909 28.4876 143.159 29.0186 143.159 29.6748H142.339C142.339 29.2419 142.157 28.8818 141.792 28.5947C141.432 28.3076 140.976 28.1641 140.425 28.1641C139.887 28.1641 139.454 28.2848 139.126 28.5264C138.802 28.7633 138.641 29.0732 138.641 29.4561C138.641 29.8252 138.775 30.1123 139.044 30.3174C139.317 30.5179 139.812 30.7025 140.527 30.8711C141.247 31.0397 141.785 31.2197 142.141 31.4111C142.501 31.6025 142.767 31.8327 142.94 32.1016C143.114 32.3704 143.2 32.6963 143.2 33.0791C143.2 33.7035 142.947 34.2025 142.441 34.5762C141.94 34.9499 141.284 35.1367 140.473 35.1367C139.611 35.1367 138.912 34.9294 138.374 34.5146C137.841 34.0954 137.574 33.5667 137.574 32.9287H138.395C138.426 33.4072 138.627 33.7809 138.996 34.0498C139.37 34.3141 139.862 34.4463 140.473 34.4463C141.042 34.4463 141.503 34.321 141.854 34.0703C142.204 33.8197 142.38 33.5029 142.38 33.1201Z" fill="#2B2B2B"/>
</svg>
