<svg width="37" height="38" viewBox="0 0 37 38" fill="none" xmlns="http://www.w3.org/2000/svg">
<g clip-path="url(#clip0_212_733)">
<path d="M22.0171 1.34365C23.1231 2.33603 24.6257 2.83222 26.1073 2.66683C28.7994 2.37738 31.2619 4.1554 31.8044 6.78108C32.1175 8.22831 33.0357 9.48946 34.3296 10.2337C36.6668 11.5569 37.6268 14.4307 36.4999 16.8703C35.8738 18.2348 35.8738 19.7854 36.4999 21.1293C37.6059 23.5689 36.6668 26.4427 34.3296 27.7659C33.0357 28.5101 32.0966 29.7713 31.8044 31.2185C31.2619 33.8442 28.7785 35.6222 26.1073 35.3328C24.6048 35.1674 23.1231 35.6429 22.0171 36.6559C20.0137 38.4546 16.9669 38.4546 14.9635 36.6559C13.8575 35.6636 12.3549 35.1674 10.8733 35.3328C8.18121 35.6222 5.71872 33.8442 5.17613 31.2185C4.8631 29.7713 3.94489 28.5101 2.65103 27.7659C0.313751 26.4427 -0.646204 23.5689 0.4807 21.1293C1.10676 19.7648 1.10676 18.2142 0.4807 16.8703C-0.625335 14.4307 0.313751 11.5569 2.65103 10.2337C3.94489 9.48946 4.88397 8.22831 5.17613 6.78108C5.71872 4.1554 8.20208 2.37738 10.8733 2.66683C12.3758 2.83222 13.8575 2.35671 14.9635 1.34365C16.9669 -0.455045 20.0346 -0.455045 22.0171 1.34365Z" fill="#4A68ED"/>
<path d="M16.5485 26.0089C16.1311 26.0089 15.7555 25.8022 15.5259 25.4714L11.6235 19.6825C11.2687 19.1243 11.4148 18.3593 11.9783 17.9872C12.5417 17.6357 13.293 17.7804 13.6686 18.3386L16.5485 22.6183L23.3308 12.529C23.7064 11.9708 24.4577 11.8261 25.0211 12.1982C25.5846 12.5704 25.7307 13.3147 25.355 13.8729L17.5502 25.4714C17.3415 25.8022 16.945 26.0089 16.5485 26.0089Z" fill="#F8F7FA"/>
</g>
<defs>
<clipPath id="clip0_212_733">
<rect width="37" height="38" fill="white"/>
</clipPath>
</defs>
</svg>
